<svg id="svg" xmlns="http://www.w3.org/2000/svg" xmlns:xlink="http://www.w3.org/1999/xlink" width="400" height="92.37472766884532" viewBox="0, 0, 400,92.37472766884532"><g id="svgg"><path id="path0" d="M90.822 11.831 L 91.068 21.918 101.089 21.918 L 111.111 21.918 111.357 11.831 L 111.602 1.743 101.089 1.743 L 90.576 1.743 90.822 11.831 M115.223 11.825 L 115.468 21.907 125.708 22.065 L 135.948 22.222 135.948 11.983 L 135.948 1.743 125.463 1.743 L 114.977 1.743 115.223 11.825 M140.041 2.298 C 139.218 3.120,139.263 21.780,140.087 21.813 C 141.542 21.873,158.279 21.900,159.724 21.845 C 161.134 21.792,161.254 20.881,161.031 11.983 L 160.784 2.179 150.716 1.935 C 145.179 1.800,140.375 1.964,140.041 2.298 M104.432 6.344 C 105.109 6.905,105.411 8.243,105.153 9.537 C 104.908 10.770,105.264 12.520,105.950 13.456 C 108.459 16.880,106.136 19.172,100.156 19.172 L 95.861 19.172 95.861 11.723 L 95.861 4.273 99.564 4.825 C 101.601 5.129,103.792 5.812,104.432 6.344 M154.627 5.207 C 155.857 5.675,156.863 6.655,156.863 7.386 C 156.863 8.961,156.450 9.021,154.140 7.785 C 151.777 6.521,147.470 7.597,146.324 9.738 C 143.989 14.102,148.759 18.479,153.773 16.573 C 156.503 15.535,157.316 15.864,156.604 17.717 C 155.462 20.694,148.441 20.352,144.880 17.147 C 138.681 11.567,146.420 2.087,154.627 5.207 M128.967 6.525 C 129.558 7.237,129.825 8.708,129.560 9.793 C 129.295 10.877,129.644 12.526,130.334 13.456 C 132.870 16.872,130.544 19.172,124.556 19.172 L 120.261 19.172 120.261 12.200 L 120.261 5.229 124.076 5.229 C 126.389 5.229,128.315 5.739,128.967 6.525 M99.056 7.553 C 97.871 8.737,98.529 10.458,100.166 10.458 C 102.341 10.458,103.412 8.746,101.855 7.759 C 100.397 6.836,99.816 6.793,99.056 7.553 M123.033 8.932 C 123.234 10.349,123.795 10.810,125.054 10.593 C 127.326 10.201,127.551 9.928,126.932 8.316 C 126.071 6.073,122.703 6.605,123.033 8.932 M98.632 15.024 C 98.935 17.146,100.812 17.886,102.741 16.645 C 104.600 15.449,103.189 13.072,100.620 13.072 C 98.771 13.072,98.405 13.431,98.632 15.024 M122.876 14.842 C 122.876 17.087,124.811 17.854,127.221 16.564 C 128.717 15.763,128.883 15.317,128.054 14.318 C 126.428 12.359,122.876 12.718,122.876 14.842 M180.392 31.403 L 180.392 43.634 177.567 40.416 C 167.453 28.897,147.697 33.019,142.866 47.656 C 136.145 68.022,163.434 83.742,177.567 67.645 L 180.392 64.427 180.392 68.815 C 180.392 72.134,180.710 73.203,181.699 73.203 C 182.833 73.203,183.007 69.620,183.007 46.187 C 183.007 22.755,182.833 19.172,181.699 19.172 C 180.599 19.172,180.392 21.112,180.392 31.403 M62.745 27.015 L 62.745 33.987 59.642 33.987 C 55.044 33.987,55.297 40.351,59.913 40.796 L 62.745 41.069 62.745 52.807 C 62.745 69.716,65.130 74.067,74.781 74.765 C 83.992 75.431,88.017 69.920,88.017 56.645 C 88.017 45.387,90.196 41.098,96.021 40.885 C 98.094 40.809,104.420 34.412,103.415 33.408 C 101.942 31.934,93.232 32.798,90.701 34.669 C 87.615 36.951,87.146 37.034,87.146 35.294 C 87.146 34.350,86.178 33.987,83.660 33.987 L 80.174 33.987 80.174 49.071 C 80.174 65.640,79.733 67.320,75.381 67.320 C 71.213 67.320,70.588 65.397,70.588 52.557 L 70.588 40.959 73.638 40.959 C 76.616 40.959,76.688 40.876,76.688 37.473 C 76.688 34.070,76.616 33.987,73.638 33.987 L 70.588 33.987 70.588 27.015 L 70.588 20.044 66.667 20.044 L 62.745 20.044 62.745 27.015 M1.758 23.075 C -0.101 25.315,1.987 28.949,4.930 28.597 C 7.893 28.243,9.502 25.848,8.187 23.747 C 6.925 21.733,3.196 21.343,1.758 23.075 M270.584 24.407 C 270.286 24.890,270.672 25.526,271.442 25.822 C 273.111 26.462,274.040 25.757,273.238 24.459 C 272.515 23.288,271.291 23.264,270.584 24.407 M33.115 32.877 C 31.917 33.095,29.711 34.201,28.212 35.335 C 25.428 37.442,24.152 37.392,24.990 35.209 C 25.350 34.270,24.530 33.987,21.444 33.987 L 17.429 33.987 17.429 49.624 C 17.429 64.795,17.371 65.301,15.492 66.617 C 9.982 70.477,8.715 67.228,8.715 49.237 L 8.715 33.987 4.793 33.987 L 0.871 33.987 0.871 49.265 C 0.871 69.752,3.311 74.950,12.921 74.942 C 21.916 74.935,25.272 70.335,25.272 58.013 C 25.272 44.943,28.344 39.797,36.142 39.797 C 43.996 39.797,46.187 43.486,46.187 56.703 C 46.187 71.430,54.009 79.216,63.629 74.067 C 66.013 72.792,62.419 66.900,59.637 67.523 C 55.286 68.498,54.031 66.006,54.026 56.378 C 54.018 41.853,51.118 36.131,42.461 33.561 C 37.980 32.230,37.052 32.162,33.115 32.877 M112.247 33.454 C 96.328 37.778,90.697 55.524,101.389 67.672 C 114.642 82.728,139.403 73.405,139.429 53.349 C 139.446 40.048,125.514 29.850,112.247 33.454 M239.622 35.147 C 228.136 40.444,223.927 54.299,230.550 65.011 C 238.220 77.416,258.891 76.997,265.455 64.303 C 266.949 61.414,266.159 59.563,264.604 62.309 C 254.455 80.228,226.769 71.734,229.536 51.551 C 231.998 33.585,254.982 29.850,264.604 45.853 C 266.147 48.419,266.950 46.646,265.502 43.872 C 261.252 35.733,248.022 31.273,239.622 35.147 M288.667 35.288 C 287.107 35.966,284.852 37.577,283.656 38.867 L 281.481 41.213 281.481 38.036 C 281.481 35.792,281.097 34.858,280.174 34.858 C 279.052 34.858,278.867 37.570,278.867 54.031 C 278.867 70.091,279.070 73.203,280.116 73.203 C 281.138 73.203,281.414 70.603,281.641 58.884 C 282.013 39.596,284.334 36.166,297.014 36.166 C 309.789 36.166,312.269 39.850,312.703 59.477 C 312.870 67.026,313.365 73.203,313.802 73.203 C 314.876 73.203,314.813 48.306,313.729 44.406 C 311.359 35.874,298.273 31.113,288.667 35.288 M330.283 35.376 C 317.152 41.064,314.319 60.100,325.234 69.303 C 333.620 76.374,346.089 75.862,353.595 68.138 L 357.537 64.082 357.157 69.342 C 355.884 86.945,337.746 94.030,325.665 81.644 C 321.388 77.258,319.336 76.661,321.879 80.540 C 330.343 93.459,350.069 92.609,356.834 79.033 C 359.212 74.262,360.403 34.858,358.170 34.858 C 357.691 34.858,357.298 36.909,357.298 39.414 L 357.298 43.970 354.528 40.609 C 349.430 34.425,338.117 31.983,330.283 35.376 M187.555 48.148 C 188.019 62.645,188.847 65.866,193.139 69.879 C 199.976 76.272,213.917 75.447,219.525 68.316 L 221.351 65.996 221.351 69.599 C 221.351 71.581,221.743 73.203,222.222 73.203 C 222.777 73.203,223.094 66.231,223.094 54.031 C 223.094 41.830,222.777 34.858,222.222 34.858 C 221.681 34.858,221.351 39.735,221.351 47.746 C 221.351 67.216,217.259 73.020,204.204 72.065 C 192.789 71.229,190.025 66.492,189.997 47.712 C 189.981 36.407,189.807 34.858,188.554 34.858 C 187.281 34.858,187.175 36.259,187.555 48.148 M271.024 54.031 C 271.024 66.231,271.341 73.203,271.895 73.203 C 272.450 73.203,272.767 66.231,272.767 54.031 C 272.767 41.830,272.450 34.858,271.895 34.858 C 271.341 34.858,271.024 41.830,271.024 54.031 M169.733 37.079 C 186.645 44.145,182.800 70.168,164.566 72.050 C 147.710 73.789,137.385 54.657,148.406 42.105 C 153.596 36.194,162.559 34.081,169.733 37.079 M347.793 37.758 C 361.659 45.078,359.697 67.250,344.814 71.417 C 329.145 75.804,316.185 61.741,321.960 46.618 C 325.607 37.069,338.265 32.727,347.793 37.758 M124.781 41.479 C 130.837 44.610,133.426 53.821,130.176 60.670 C 125.740 70.017,111.128 70.468,105.827 61.422 C 98.270 48.527,111.498 34.609,124.781 41.479 M367.756 72.767 C 367.756 73.486,368.344 74.074,369.063 74.074 C 369.782 74.074,370.370 73.486,370.370 72.767 C 370.370 72.048,369.782 71.460,369.063 71.460 C 368.344 71.460,367.756 72.048,367.756 72.767 M380.828 72.767 C 380.828 73.486,381.416 74.074,382.135 74.074 C 382.854 74.074,383.442 73.486,383.442 72.767 C 383.442 72.048,382.854 71.460,382.135 71.460 C 381.416 71.460,380.828 72.048,380.828 72.767 M393.900 72.767 C 393.900 73.486,394.488 74.074,395.207 74.074 C 395.926 74.074,396.514 73.486,396.514 72.767 C 396.514 72.048,395.926 71.460,395.207 71.460 C 394.488 71.460,393.900 72.048,393.900 72.767 " stroke="none" fill="#000000" fill-rule="evenodd"></path></g></svg>