<svg id="svg" xmlns="http://www.w3.org/2000/svg" xmlns:xlink="http://www.w3.org/1999/xlink" width="400" height="106.5" viewBox="0, 0, 400,106.5"><g id="svgg"><path id="path0" d="M349.750 2.417 C 327.066 9.248,322.544 38.787,342.144 52.098 C 345.930 54.669,349.383 56.223,360.373 60.305 C 379.669 67.471,384.703 73.843,379.332 84.306 C 370.815 100.900,345.810 94.285,335.479 72.706 C 332.937 67.396,332.193 66.681,329.829 67.275 C 327.785 67.788,327.851 68.568,330.994 81.018 C 332.647 87.566,334.000 93.046,334.000 93.194 C 334.000 94.809,355.747 99.500,363.236 99.500 C 385.531 99.500,400.633 76.039,391.214 56.037 C 387.454 48.052,380.980 43.685,363.757 37.514 C 349.732 32.489,346.666 30.660,344.295 25.903 C 340.045 17.373,346.077 8.481,356.691 7.629 C 367.783 6.738,380.491 15.884,384.259 27.469 C 385.356 30.844,387.063 32.699,388.633 32.225 C 391.051 31.495,391.050 31.503,389.795 19.889 C 389.358 15.841,389.000 11.190,389.000 9.555 C 389.000 4.741,388.001 4.006,383.827 5.750 C 381.142 6.872,379.969 6.711,372.291 4.168 C 363.774 1.346,355.453 0.700,349.750 2.417 M6.708 2.958 C 5.221 4.445,6.985 6.752,11.250 8.897 C 14.967 10.766,16.548 12.404,18.347 16.250 L 19.750 19.250 19.894 49.205 C 20.073 86.532,20.198 85.828,12.488 90.867 C 6.991 94.460,7.000 94.451,7.000 96.006 C 7.000 98.188,8.007 98.441,14.500 97.895 C 17.823 97.615,23.522 97.576,28.000 97.801 C 42.277 98.521,44.500 98.245,44.500 95.750 C 44.500 94.271,43.665 93.792,39.333 92.787 C 32.814 91.276,29.751 88.708,28.301 83.541 C 27.485 80.632,27.030 28.306,27.803 26.291 C 28.496 24.487,30.603 26.359,48.995 45.120 C 100.977 98.143,102.760 99.825,104.345 97.375 C 104.568 97.031,104.862 79.184,105.000 57.714 L 105.250 18.678 106.762 15.723 C 108.068 13.169,108.814 12.415,112.262 10.169 C 117.376 6.835,118.000 6.253,118.000 4.811 C 118.000 2.551,117.181 2.380,109.490 3.036 C 102.921 3.596,99.257 3.537,87.893 2.687 C 79.127 2.032,78.358 5.676,86.718 8.256 C 93.555 10.365,95.901 12.942,96.968 19.515 C 97.523 22.936,97.726 60.830,97.197 62.209 C 96.335 64.455,95.029 63.208,56.789 23.625 C 45.829 12.281,36.500 2.975,36.056 2.944 C 33.566 2.771,6.882 2.784,6.708 2.958 M121.000 3.875 L 121.000 5.250 223.000 5.123 L 325.000 4.995 325.000 3.748 L 325.000 2.500 223.000 2.500 L 121.000 2.500 121.000 3.875 M219.070 8.875 C 216.271 11.230,216.286 14.243,219.108 16.220 C 222.740 18.763,226.015 13.260,222.948 9.767 C 221.196 7.772,220.557 7.625,219.070 8.875 M121.500 9.166 C 121.500 9.533,122.344 10.378,123.375 11.045 C 126.182 12.861,126.447 14.202,126.422 26.500 C 126.397 39.039,126.353 39.271,123.634 41.245 C 120.231 43.716,120.678 44.000,127.970 44.000 C 135.162 44.000,135.988 43.636,133.031 41.770 C 129.430 39.496,129.250 38.901,129.250 29.274 C 129.250 24.586,129.447 20.681,129.688 20.596 C 129.929 20.511,132.545 25.686,135.501 32.096 C 139.005 39.693,141.166 43.808,141.709 43.916 C 142.351 44.043,143.883 41.323,148.396 32.044 C 151.616 25.423,154.419 20.005,154.625 20.003 C 154.831 20.001,155.000 24.623,155.000 30.274 L 155.000 40.548 153.750 41.706 C 151.455 43.833,151.947 44.000,160.500 44.000 C 169.023 44.000,170.756 43.392,166.865 41.766 C 163.238 40.251,163.267 40.371,163.102 25.797 C 162.939 11.299,162.847 11.742,166.250 10.649 C 169.859 9.490,168.382 8.500,163.043 8.500 L 158.013 8.500 156.843 10.375 C 156.200 11.406,153.259 16.919,150.308 22.625 C 147.356 28.331,144.832 33.000,144.698 33.000 C 144.565 33.000,141.780 27.488,138.510 20.750 L 132.565 8.500 127.032 8.500 C 122.757 8.500,121.500 8.651,121.500 9.166 M255.145 9.170 C 254.781 9.758,255.983 10.483,257.339 10.492 C 259.918 10.510,260.000 10.989,260.000 25.940 C 260.000 40.679,259.963 40.923,257.531 42.146 C 256.870 42.478,256.236 43.031,256.123 43.375 C 255.901 44.048,271.997 44.336,272.662 43.671 C 273.176 43.157,271.982 42.000,270.939 42.000 C 268.467 42.000,267.961 40.455,268.111 33.361 L 268.250 26.750 270.920 26.597 C 274.041 26.419,275.544 27.193,276.484 29.461 C 277.841 32.738,278.500 31.372,278.500 25.280 C 278.500 18.753,278.149 18.132,276.144 21.119 C 274.599 23.419,271.925 24.466,269.286 23.804 L 268.000 23.481 268.000 17.490 L 268.000 11.500 272.683 11.500 C 278.114 11.500,279.730 12.301,280.287 15.272 C 281.007 19.111,282.408 17.464,282.325 12.875 L 282.250 8.750 268.834 8.739 C 261.456 8.732,255.295 8.926,255.145 9.170 M170.004 21.456 C 167.429 21.732,165.416 23.500,167.678 23.500 C 169.646 23.500,170.000 24.805,170.000 32.052 C 170.000 40.015,170.506 41.890,173.095 43.520 C 175.513 45.043,181.157 44.691,183.949 42.843 L 185.928 41.534 186.229 42.906 L 186.531 44.279 197.140 44.254 C 208.554 44.226,208.943 44.150,211.176 41.497 C 215.165 36.756,212.874 31.682,205.250 28.376 C 200.965 26.517,199.891 25.048,201.798 23.653 C 203.948 22.081,207.294 23.179,209.055 26.035 C 210.893 29.017,211.781 28.466,211.216 24.696 C 210.189 17.850,197.168 20.456,196.639 27.614 C 196.343 31.617,197.503 33.090,202.884 35.549 C 208.594 38.157,209.576 39.424,207.500 41.500 C 205.115 43.885,201.222 42.445,199.317 38.473 C 197.789 35.289,196.788 35.529,196.600 39.125 C 196.461 41.790,196.362 42.000,195.243 42.000 C 193.267 42.000,193.000 40.670,193.000 30.812 C 193.000 24.892,192.811 21.442,192.475 21.235 C 191.176 20.431,182.500 21.584,182.500 22.559 C 182.500 23.153,182.854 23.500,183.459 23.500 C 185.943 23.500,186.000 23.669,186.000 31.086 C 186.000 39.919,184.975 41.603,180.147 40.698 C 177.318 40.167,177.000 39.180,177.000 30.921 C 177.000 20.361,177.238 20.683,170.004 21.456 M221.000 21.860 C 220.037 22.287,218.238 22.902,217.001 23.226 C 214.683 23.833,213.483 25.500,215.363 25.500 C 217.261 25.500,217.500 26.435,217.500 33.873 L 217.500 41.047 216.003 41.898 C 213.024 43.593,214.039 44.000,221.250 44.000 C 228.259 44.000,229.883 43.430,226.505 42.155 C 224.298 41.322,224.000 39.870,224.000 29.967 C 224.000 20.176,224.111 20.476,221.000 21.860 M237.351 21.721 C 224.501 26.305,226.015 44.466,239.250 44.498 C 244.135 44.509,251.000 41.050,251.000 38.577 C 251.000 37.651,249.235 37.912,248.267 38.981 C 243.324 44.443,235.250 38.673,235.250 29.677 C 235.250 22.414,241.634 20.568,243.437 27.310 C 243.934 29.170,244.992 29.337,247.222 27.904 C 253.041 24.168,244.859 19.043,237.351 21.721 M287.953 22.625 C 276.728 28.321,281.159 44.513,293.938 44.497 C 308.020 44.480,312.488 26.809,299.627 21.997 C 295.515 20.459,291.831 20.657,287.953 22.625 M310.762 22.537 C 306.462 24.039,305.724 24.730,307.641 25.459 C 310.858 26.682,310.263 42.500,307.000 42.500 C 306.725 42.500,306.500 42.837,306.500 43.250 C 306.500 43.880,307.583 44.000,313.250 44.000 C 320.426 44.000,321.644 43.524,318.364 42.000 C 316.383 41.079,315.804 38.413,316.252 32.266 C 316.673 26.482,317.657 25.542,320.736 27.989 C 323.003 29.791,323.902 29.490,325.263 26.471 L 326.205 24.382 324.360 22.691 C 321.957 20.489,320.773 20.551,318.443 23.000 C 317.396 24.100,316.419 25.000,316.270 25.000 C 316.122 25.000,316.000 24.100,316.000 23.000 C 316.000 20.658,316.113 20.668,310.762 22.537 M297.026 24.274 C 301.130 27.988,301.467 39.877,297.528 41.985 C 291.760 45.072,285.936 34.105,289.197 26.299 C 290.558 23.042,294.529 22.014,297.026 24.274 M124.218 67.788 C 119.367 77.667,114.649 87.348,113.734 89.301 C 112.223 92.527,110.863 94.135,108.192 95.857 C 105.992 97.276,108.406 97.758,116.923 97.601 C 126.062 97.433,127.165 96.881,122.125 94.998 C 118.725 93.728,117.500 92.738,117.500 91.263 C 117.500 89.053,119.133 84.790,120.505 83.418 L 121.923 82.000 128.929 82.000 C 137.620 82.000,138.189 82.199,139.846 85.820 C 142.336 91.259,141.994 93.926,138.625 95.334 C 134.573 97.028,136.432 97.447,148.000 97.447 C 159.945 97.447,161.486 97.030,156.868 95.051 C 153.936 93.794,154.634 95.047,144.022 71.995 C 138.773 60.593,134.154 50.940,133.759 50.544 C 133.133 49.919,131.891 52.163,124.218 67.788 M245.538 50.733 C 219.823 55.588,215.911 90.041,240.250 97.307 C 256.204 102.070,274.317 90.845,275.366 75.544 C 276.511 58.839,262.839 47.467,245.538 50.733 M152.750 53.675 C 151.763 61.886,152.906 65.299,154.935 60.205 C 156.735 55.686,158.705 54.559,164.875 54.522 C 170.826 54.486,170.500 53.418,170.500 72.925 C 170.500 93.358,170.747 92.461,164.500 94.747 C 158.700 96.870,160.369 97.250,175.500 97.250 C 190.631 97.250,192.300 96.870,186.500 94.747 C 180.256 92.462,180.500 93.346,180.500 73.021 C 180.500 53.855,180.230 54.883,185.331 54.594 C 191.544 54.243,194.609 55.785,195.985 59.953 C 196.673 62.040,197.421 62.667,198.456 62.027 C 199.042 61.665,198.430 52.600,197.744 51.491 C 197.614 51.279,187.506 51.105,175.283 51.103 L 153.059 51.100 152.750 53.675 M199.176 51.764 C 198.758 52.852,199.332 53.345,201.405 53.677 C 205.315 54.302,205.232 53.887,205.394 73.653 C 205.554 93.241,205.524 93.457,202.396 95.053 C 198.746 96.915,200.022 97.242,211.398 97.357 C 218.073 97.425,222.078 97.278,222.275 96.960 C 222.745 96.199,221.610 95.104,219.979 94.745 C 219.180 94.570,217.958 93.751,217.264 92.925 L 216.000 91.423 216.000 73.753 C 216.000 53.853,215.878 54.731,218.822 53.469 C 220.020 52.956,221.000 52.212,221.000 51.817 C 221.000 50.771,199.576 50.719,199.176 51.764 M276.500 51.939 C 276.500 52.503,277.076 53.117,277.941 53.476 C 282.509 55.368,282.994 57.434,282.996 75.000 C 282.999 91.246,282.943 91.516,279.000 94.265 C 274.750 97.228,275.244 97.459,285.593 97.348 C 295.950 97.237,297.329 96.662,291.794 94.764 C 286.696 93.015,286.776 93.291,286.596 76.894 C 286.492 67.478,286.616 62.684,286.971 62.329 C 287.344 61.956,292.721 67.107,305.149 79.742 C 318.587 93.405,323.000 97.607,323.648 97.358 C 324.430 97.058,324.500 95.481,324.500 78.250 C 324.500 56.820,324.434 57.219,328.436 54.344 C 332.715 51.270,332.295 51.058,322.125 51.161 C 312.280 51.260,310.836 51.823,315.750 53.646 C 319.108 54.892,319.844 55.661,320.469 58.574 C 321.034 61.207,321.217 79.616,320.684 80.149 C 320.046 80.787,318.479 79.301,305.019 65.292 L 291.289 51.000 283.894 51.000 C 276.993 51.000,276.500 51.063,276.500 51.939 M253.512 54.513 C 262.312 58.971,267.313 76.244,262.748 86.416 C 257.234 98.701,244.629 98.104,238.125 85.250 C 229.436 68.080,239.724 47.528,253.512 54.513 M133.320 71.518 C 136.971 78.930,137.160 78.569,129.714 78.392 C 122.428 78.218,122.576 78.545,126.288 70.825 C 129.682 63.766,129.492 63.747,133.320 71.518 M6.000 103.250 L 6.000 104.500 199.750 104.500 L 393.500 104.500 393.500 103.250 L 393.500 102.000 199.750 102.000 L 6.000 102.000 6.000 103.250 " stroke="none" fill="#000000" fill-rule="evenodd"></path></g></svg>