<svg id="svg" xmlns="http://www.w3.org/2000/svg" xmlns:xlink="http://www.w3.org/1999/xlink" width="400" height="452.3076923076923" viewBox="0, 0, 400,452.3076923076923"><g id="svgg"><path id="path0" d="M-0.000 15.199 C -0.000 26.988,1.121 30.769,4.615 30.769 C 7.154 30.769,9.231 29.108,9.231 27.077 C 9.231 24.205,10.051 24.205,12.923 27.077 C 17.710 31.864,29.120 31.792,37.367 26.923 C 42.578 23.846,44.160 23.846,45.274 26.923 C 46.936 31.512,67.058 32.028,78.261 27.768 C 94.527 21.584,87.030 -0.000,68.615 -0.000 C 58.732 -0.000,58.460 0.348,58.394 13.077 L 58.326 26.154 52.391 13.077 C 44.759 -3.736,35.870 -4.685,30.769 10.769 C 26.317 24.260,23.008 24.590,23.047 11.538 C 23.075 2.198,22.316 1.476,11.538 0.583 L -0.000 -0.371 -0.000 15.199 M89.231 15.385 C 89.231 27.009,90.359 30.769,93.846 30.769 C 96.410 30.769,98.462 28.034,98.462 24.615 C 98.462 18.462,98.462 18.462,104.615 24.615 C 115.664 35.664,132.308 29.429,132.308 14.242 C 132.308 0.313,108.725 -6.530,101.785 5.385 C 98.798 10.513,98.644 10.513,98.555 5.385 C 98.504 2.423,96.385 0.000,93.846 0.000 C 90.359 0.000,89.231 3.761,89.231 15.385 M74.308 13.846 C 74.308 15.454,72.819 17.265,71.000 17.872 C 69.181 18.478,67.692 16.667,67.692 13.846 C 67.692 11.026,69.181 9.214,71.000 9.821 C 72.819 10.427,74.308 12.238,74.308 13.846 M120.000 13.846 C 120.000 16.385,117.923 18.462,115.385 18.462 C 112.846 18.462,110.769 16.385,110.769 13.846 C 110.769 11.308,112.846 9.231,115.385 9.231 C 117.923 9.231,120.000 11.308,120.000 13.846 M9.231 47.692 C 9.231 54.188,10.667 55.385,18.462 55.385 C 26.256 55.385,27.692 54.188,27.692 47.692 C 27.692 41.197,26.256 40.000,18.462 40.000 C 10.667 40.000,9.231 41.197,9.231 47.692 M33.846 61.538 L 33.846 83.077 43.077 83.077 L 52.308 83.077 52.308 61.538 L 52.308 40.000 43.077 40.000 L 33.846 40.000 33.846 61.538 M61.538 81.538 L 61.538 123.077 70.769 123.077 L 80.000 123.077 80.000 81.538 L 80.000 40.000 70.769 40.000 L 61.538 40.000 61.538 81.538 M89.231 100.000 L 89.231 160.000 98.462 160.000 L 107.692 160.000 107.692 100.000 L 107.692 40.000 98.462 40.000 L 89.231 40.000 89.231 100.000 M116.923 118.462 L 116.923 196.923 124.615 196.923 L 132.308 196.923 132.308 118.462 L 132.308 40.000 124.615 40.000 L 116.923 40.000 116.923 118.462 M221.538 118.462 L 221.538 196.923 230.769 196.923 L 240.000 196.923 240.000 118.462 L 240.000 40.000 230.769 40.000 L 221.538 40.000 221.538 118.462 M249.231 100.000 L 249.231 160.000 258.462 160.000 L 267.692 160.000 267.692 100.000 L 267.692 40.000 258.462 40.000 L 249.231 40.000 249.231 100.000 M276.923 81.538 L 276.923 123.077 286.154 123.077 L 295.385 123.077 295.385 81.538 L 295.385 40.000 286.154 40.000 L 276.923 40.000 276.923 81.538 M301.538 61.538 L 301.538 83.077 310.769 83.077 L 320.000 83.077 320.000 61.538 L 320.000 40.000 310.769 40.000 L 301.538 40.000 301.538 61.538 M329.231 47.692 C 329.231 54.188,330.667 55.385,338.462 55.385 C 346.256 55.385,347.692 54.188,347.692 47.692 C 347.692 41.197,346.256 40.000,338.462 40.000 C 330.667 40.000,329.231 41.197,329.231 47.692 M141.538 201.538 L 141.538 323.077 150.769 323.077 L 160.000 323.077 160.000 201.538 L 160.000 80.000 150.769 80.000 L 141.538 80.000 141.538 201.538 M196.923 201.538 L 196.923 323.077 206.154 323.077 L 215.385 323.077 215.385 201.538 L 215.385 80.000 206.154 80.000 L 196.923 80.000 196.923 201.538 M169.231 201.538 L 169.231 295.385 178.462 295.385 L 187.692 295.385 187.692 201.538 L 187.692 107.692 178.462 107.692 L 169.231 107.692 169.231 201.538 M116.923 293.846 L 116.923 378.462 124.615 378.462 L 132.308 378.462 132.308 293.846 L 132.308 209.231 124.615 209.231 L 116.923 209.231 116.923 293.846 M221.538 293.846 L 221.538 378.462 230.769 378.462 L 240.000 378.462 240.000 293.846 L 240.000 209.231 230.769 209.231 L 221.538 209.231 221.538 293.846 M89.231 309.231 L 89.231 378.462 98.462 378.462 L 107.692 378.462 107.692 309.231 L 107.692 240.000 98.462 240.000 L 89.231 240.000 89.231 309.231 M249.231 321.538 L 249.231 403.077 258.462 403.077 L 267.692 403.077 267.692 321.538 L 267.692 240.000 258.462 240.000 L 249.231 240.000 249.231 321.538 M61.538 327.692 L 61.538 378.462 70.769 378.462 L 80.000 378.462 80.000 327.692 L 80.000 276.923 70.769 276.923 L 61.538 276.923 61.538 327.692 M276.923 364.615 L 276.923 452.308 286.154 452.308 L 295.385 452.308 295.385 364.615 L 295.385 276.923 286.154 276.923 L 276.923 276.923 276.923 364.615 M33.846 349.231 L 33.846 378.462 43.077 378.462 L 52.308 378.462 52.308 349.231 L 52.308 320.000 43.077 320.000 L 33.846 320.000 33.846 349.231 M301.538 386.154 L 301.538 452.308 310.769 452.308 L 320.000 452.308 320.000 386.154 L 320.000 320.000 310.769 320.000 L 301.538 320.000 301.538 386.154 M329.231 404.615 L 329.231 452.308 338.462 452.308 L 347.692 452.308 347.692 404.615 L 347.692 356.923 338.462 356.923 L 329.231 356.923 329.231 404.615 M9.231 370.769 C 9.231 377.265,10.667 378.462,18.462 378.462 C 26.256 378.462,27.692 377.265,27.692 370.769 C 27.692 364.274,26.256 363.077,18.462 363.077 C 10.667 363.077,9.231 364.274,9.231 370.769 M4.044 393.184 C -2.156 397.126,2.658 421.538,9.636 421.538 C 12.798 421.538,15.385 419.877,15.385 417.846 C 15.385 414.974,16.205 414.974,19.077 417.846 C 23.556 422.325,35.833 422.715,38.462 418.462 C 39.507 416.769,43.743 415.385,47.874 415.385 C 52.005 415.385,55.385 416.769,55.385 418.462 C 55.385 422.890,63.812 422.259,65.655 417.692 C 66.896 414.615,67.255 414.615,67.449 417.692 C 67.609 420.220,72.928 421.538,82.969 421.538 C 100.009 421.538,106.712 414.928,103.331 401.457 C 99.559 386.427,78.515 388.489,80.743 403.671 C 81.930 411.753,81.288 412.529,74.105 411.694 C 67.619 410.940,65.976 408.926,65.190 400.769 C 64.011 388.548,58.135 387.841,49.454 398.876 C 45.947 403.335,43.077 405.511,43.077 403.712 C 43.077 399.072,34.194 390.769,29.231 390.769 C 26.934 390.769,22.879 392.945,20.220 395.604 C 15.824 400.000,15.385 400.000,15.385 395.604 C 15.385 390.471,10.088 389.340,4.044 393.184 M120.743 393.322 C 118.614 394.674,116.537 401.229,116.128 407.890 L 115.385 420.000 127.399 420.000 C 141.365 420.000,143.773 414.655,136.434 399.944 C 131.784 390.622,127.706 388.901,120.743 393.322 M154.202 394.956 C 148.199 402.188,151.951 419.847,159.736 421.005 C 168.625 422.328,175.385 416.415,175.385 407.316 C 175.385 402.864,177.192 400.000,180.000 400.000 C 185.743 400.000,185.716 402.902,179.902 410.588 C 173.931 418.483,174.202 421.538,180.875 421.538 C 187.175 421.538,196.923 406.765,196.923 397.218 C 196.923 391.899,195.036 390.769,186.154 390.769 C 179.829 390.769,175.385 392.293,175.385 394.462 C 175.385 397.333,174.564 397.333,171.692 394.462 C 166.777 389.547,158.497 389.781,154.202 394.956 M203.077 395.385 C 203.077 398.032,205.851 400.000,209.585 400.000 C 215.794 400.000,215.865 400.347,211.123 407.584 C 204.997 416.934,204.797 421.538,210.518 421.538 C 215.523 421.538,227.692 403.294,227.692 395.791 C 227.692 391.984,224.716 390.769,215.385 390.769 C 206.496 390.769,203.077 392.051,203.077 395.385 M356.923 426.154 L 356.923 452.308 366.154 452.308 L 375.385 452.308 375.385 426.154 L 375.385 400.000 366.154 400.000 L 356.923 400.000 356.923 426.154 M193.846 416.923 C 193.846 419.462,195.923 421.538,198.462 421.538 C 201.000 421.538,203.077 419.462,203.077 416.923 C 203.077 414.385,201.000 412.308,198.462 412.308 C 195.923 412.308,193.846 414.385,193.846 416.923 M0.000 440.000 C 0.000 453.084,11.656 457.883,20.923 448.615 C 23.795 445.744,24.615 445.744,24.615 448.615 C 24.615 453.500,32.902 453.376,34.885 448.462 C 36.127 445.385,36.486 445.385,36.680 448.462 C 37.441 460.501,58.462 452.335,58.462 440.000 C 58.462 426.916,46.806 422.117,37.538 431.385 C 34.667 434.256,33.846 434.256,33.846 431.385 C 33.846 429.354,31.769 427.692,29.231 427.692 C 26.692 427.692,24.615 429.354,24.615 431.385 C 24.615 434.256,23.795 434.256,20.923 431.385 C 11.656 422.117,0.000 426.916,0.000 440.000 M61.538 440.000 C 61.538 448.889,62.821 452.308,66.154 452.308 C 69.026 452.308,70.769 449.402,70.769 444.615 C 70.769 440.385,72.154 436.923,73.846 436.923 C 75.538 436.923,76.923 440.385,76.923 444.615 C 76.923 449.402,78.667 452.308,81.538 452.308 C 84.410 452.308,86.154 449.402,86.154 444.615 C 86.154 440.385,87.538 436.923,89.231 436.923 C 90.923 436.923,92.308 434.846,92.308 432.308 C 92.308 428.821,88.547 427.692,76.923 427.692 L 61.538 427.692 61.538 440.000 M93.689 438.363 C 91.237 444.231,89.231 449.471,89.231 450.006 C 89.231 450.541,100.308 451.300,113.846 451.693 C 128.935 452.131,138.462 451.197,138.462 449.281 C 138.462 447.561,135.692 446.154,132.308 446.154 C 127.521 446.154,126.154 444.103,126.154 436.923 C 126.154 430.769,124.615 427.692,121.538 427.692 C 118.407 427.692,116.884 430.908,116.803 437.692 L 116.682 447.692 112.336 437.692 C 106.693 424.710,99.282 424.977,93.689 438.363 M147.692 439.344 L 147.692 451.386 182.177 451.764 C 206.363 452.029,217.377 451.018,219.053 448.379 C 220.922 445.437,221.455 445.455,221.491 448.462 C 221.517 450.577,223.615 452.308,226.154 452.308 C 228.692 452.308,230.769 450.646,230.769 448.615 C 230.769 445.744,231.590 445.744,234.462 448.615 C 245.518 459.672,265.652 447.282,258.462 433.846 C 254.261 425.997,238.506 425.500,234.093 433.077 C 231.106 438.205,230.952 438.205,230.863 433.077 C 230.811 430.115,228.692 427.692,226.154 427.692 C 223.615 427.692,221.538 429.354,221.538 431.385 C 221.538 434.256,220.718 434.256,217.846 431.385 C 209.580 423.118,196.943 426.883,196.672 437.692 L 196.421 447.692 192.048 437.692 C 186.590 425.211,180.046 424.934,173.846 436.923 C 167.979 448.269,167.418 448.337,167.571 437.692 C 167.676 430.365,166.352 429.102,157.692 428.267 C 147.950 427.327,147.692 427.612,147.692 439.344 M384.615 444.615 C 384.615 450.769,386.154 452.308,392.308 452.308 C 398.462 452.308,400.000 450.769,400.000 444.615 C 400.000 438.462,398.462 436.923,392.308 436.923 C 386.154 436.923,384.615 438.462,384.615 444.615 " stroke="none" fill="#000000" fill-rule="evenodd"></path></g></svg>