<svg id="svg" xmlns="http://www.w3.org/2000/svg" xmlns:xlink="http://www.w3.org/1999/xlink" width="400" height="530.2464525765497" viewBox="0, 0, 400,530.2464525765497"><g id="svgg"><path id="path0" d="M327.723 2.520 C 327.162 3.196,327.484 4.006,329.623 7.304 C 331.370 9.997,331.681 10.754,331.040 10.754 C 330.921 10.754,330.605 10.385,330.337 9.933 C 328.681 7.135,325.833 4.423,324.667 4.535 C 323.029 4.692,323.126 5.913,324.924 7.761 C 327.320 10.225,328.446 12.951,327.348 13.629 C 326.922 13.893,327.324 15.622,328.149 17.075 C 328.920 18.433,328.889 18.820,328.010 18.820 C 327.703 18.820,327.240 19.031,326.982 19.289 C 326.555 19.716,326.468 19.715,326.027 19.274 C 325.323 18.569,324.370 18.830,323.679 19.917 C 323.348 20.438,322.787 21.001,322.433 21.167 C 322.075 21.336,321.699 21.877,321.588 22.384 C 321.410 23.194,321.337 23.247,320.941 22.851 C 319.978 21.888,318.357 22.670,318.017 24.261 C 317.901 24.801,317.537 26.789,317.208 28.678 C 316.878 30.568,316.481 32.786,316.324 33.607 C 316.168 34.429,316.122 35.687,316.221 36.404 C 316.442 37.996,315.364 39.446,314.135 39.211 C 312.371 38.873,311.189 41.439,311.486 44.960 C 311.617 46.514,311.553 46.828,311.009 47.321 C 310.595 47.696,310.379 48.256,310.376 48.963 C 310.371 50.231,310.211 50.492,309.086 51.073 C 307.964 51.652,307.274 52.669,306.538 54.828 C 305.992 56.431,305.855 56.601,305.170 56.524 C 303.952 56.386,303.408 56.883,302.639 58.836 C 301.958 60.563,301.870 60.658,301.098 60.488 C 299.812 60.206,298.432 62.251,298.432 64.440 C 298.432 64.766,298.145 65.355,297.795 65.750 C 296.941 66.712,295.792 69.260,294.978 71.994 C 294.388 73.977,294.236 74.223,293.653 74.136 C 292.742 74.000,291.611 75.149,291.377 76.448 C 291.109 77.934,291.056 77.981,290.161 77.517 C 289.011 76.920,287.175 78.257,287.419 79.513 C 287.665 80.780,286.885 81.511,285.926 80.912 C 285.182 80.447,283.768 80.842,283.578 81.567 C 283.465 81.998,283.167 82.151,282.436 82.151 C 281.485 82.151,280.508 82.774,280.508 83.381 C 280.508 83.750,278.341 83.373,278.071 82.956 C 277.963 82.790,277.945 82.470,278.030 82.247 C 278.116 82.024,278.034 81.473,277.847 81.023 C 277.608 80.446,277.595 79.749,277.803 78.653 C 278.742 73.701,275.484 73.697,271.435 78.646 C 269.961 80.449,267.961 80.631,267.961 78.963 C 267.961 76.815,266.149 76.355,264.777 78.154 L 263.952 79.236 261.401 79.029 C 259.875 78.905,258.660 78.650,258.378 78.395 C 257.834 77.903,256.731 77.830,256.460 78.267 C 256.008 78.999,253.149 78.600,252.175 77.670 C 251.035 76.580,250.639 76.558,249.494 77.521 C 248.511 78.348,246.087 78.583,245.646 77.894 C 245.515 77.689,245.158 77.384,244.854 77.217 C 244.475 77.010,244.270 76.501,244.203 75.606 C 243.951 72.224,241.536 72.921,240.935 76.550 C 240.725 77.821,240.583 77.874,239.323 77.151 C 238.525 76.693,238.301 76.680,237.431 77.040 C 236.321 77.500,233.134 77.933,232.338 77.732 C 231.685 77.567,231.674 76.774,232.291 74.365 C 232.856 72.161,232.569 71.098,231.410 71.098 C 230.376 71.098,229.827 72.041,229.280 74.757 C 229.113 75.590,228.529 75.916,228.529 75.177 C 228.529 74.956,228.283 74.553,227.982 74.281 C 226.767 73.180,225.660 73.937,225.244 76.153 C 224.875 78.118,225.100 77.910,223.094 78.146 C 221.576 78.324,221.405 78.285,221.227 77.723 C 221.118 77.382,220.771 77.021,220.456 76.921 C 220.140 76.820,219.709 76.378,219.498 75.938 C 218.653 74.176,217.028 75.054,217.028 77.273 L 217.028 78.715 215.335 78.804 C 213.873 78.881,213.616 78.813,213.456 78.309 C 212.934 76.665,211.053 76.719,210.740 78.387 C 210.521 79.556,207.491 80.247,206.179 79.427 C 205.608 79.071,203.393 79.259,199.785 79.971 C 199.021 80.121,198.911 79.997,197.967 77.930 C 196.733 75.227,196.247 74.758,195.180 75.244 C 194.376 75.610,194.346 75.988,194.935 78.342 C 195.110 79.042,195.048 79.164,194.516 79.164 C 194.124 79.164,193.719 79.497,193.428 80.060 C 192.837 81.203,192.078 81.203,190.935 80.060 C 189.890 79.015,189.249 78.928,188.728 79.761 C 188.523 80.090,188.261 80.358,188.147 80.358 C 187.943 80.358,183.719 71.970,183.719 71.565 C 183.719 70.856,181.469 66.905,180.976 66.749 C 178.984 66.117,178.904 67.815,180.734 71.826 C 182.412 75.502,182.464 75.745,181.629 75.964 C 180.520 76.254,180.408 77.392,181.367 78.609 C 182.343 79.847,182.448 80.358,181.726 80.358 C 181.452 80.358,181.015 80.545,180.755 80.773 C 179.514 81.866,178.470 81.676,177.605 80.200 C 177.101 79.338,176.473 78.703,175.945 78.519 C 175.478 78.356,174.882 77.897,174.621 77.498 C 173.688 76.074,171.399 76.914,171.973 78.470 C 172.084 78.769,172.252 79.081,172.346 79.164 C 172.790 79.551,174.459 81.846,174.459 82.069 C 174.459 82.208,173.717 82.457,172.810 82.623 C 170.802 82.991,170.603 82.828,168.766 79.313 C 167.154 76.227,166.668 75.901,165.474 77.096 C 165.132 77.437,164.652 77.639,164.406 77.545 C 163.148 77.062,162.221 78.636,162.942 80.030 C 164.063 82.198,162.878 82.102,161.477 79.910 C 160.604 78.546,160.281 78.267,159.570 78.267 C 158.749 78.267,158.694 78.176,158.180 75.952 C 157.508 73.043,157.284 72.613,156.252 72.253 C 155.684 72.056,155.330 71.657,155.144 71.007 C 154.701 69.461,153.345 68.983,152.428 70.050 C 152.036 70.506,151.609 70.760,151.480 70.615 C 151.117 70.208,149.812 65.805,149.917 65.338 C 150.007 64.933,148.999 63.197,148.447 62.807 C 148.156 62.601,147.762 61.963,147.572 61.388 C 146.954 59.513,145.155 59.674,144.638 61.651 C 144.394 62.582,144.393 62.581,143.905 60.941 C 142.619 56.616,141.003 50.698,140.520 48.544 C 139.804 45.351,138.414 43.735,137.565 45.108 C 136.820 46.315,135.174 45.223,134.636 43.167 C 134.550 42.838,134.141 41.426,133.726 40.030 C 133.311 38.633,132.685 36.418,132.336 35.108 C 131.614 32.397,131.345 31.964,130.387 31.964 C 129.816 31.964,129.620 31.684,129.184 30.246 C 128.533 28.098,127.874 27.339,126.874 27.590 C 125.846 27.848,125.730 28.662,126.411 30.838 C 127.426 34.081,128.754 39.122,128.734 39.661 C 128.724 39.946,128.314 38.835,127.823 37.192 C 123.206 21.738,121.900 18.750,120.239 19.838 C 119.341 20.427,119.325 20.710,120.069 22.926 C 120.387 23.872,120.644 25.250,120.641 25.990 L 120.636 27.334 119.691 25.392 C 118.494 22.934,117.549 22.311,116.216 23.098 C 114.999 23.817,114.853 23.665,114.274 21.062 C 114.000 19.829,113.671 18.820,113.544 18.820 C 113.417 18.820,112.996 18.204,112.609 17.451 C 111.880 16.035,111.031 15.239,110.240 15.230 C 109.984 15.227,109.286 14.303,108.650 13.125 C 107.367 10.748,106.909 10.443,105.683 11.147 C 104.661 11.734,103.642 11.268,102.928 9.888 C 102.172 8.426,101.410 7.958,100.375 8.319 C 99.536 8.611,99.429 8.576,99.181 7.923 C 98.863 7.086,97.832 6.451,97.192 6.697 C 96.946 6.792,96.481 6.727,96.158 6.554 C 94.740 5.795,93.721 7.293,93.335 10.705 C 93.102 12.768,92.831 12.845,92.351 10.983 C 91.793 8.815,90.974 7.767,89.839 7.767 C 89.230 7.767,88.664 7.543,88.351 7.178 C 87.206 5.840,84.839 6.474,84.839 8.118 C 84.839 8.772,84.745 8.783,83.704 8.251 C 82.087 7.425,80.993 8.722,80.879 11.602 C 80.835 12.701,79.761 13.031,79.761 11.946 C 79.761 11.056,78.294 10.689,77.269 11.323 C 76.711 11.667,75.901 11.949,75.469 11.949 C 74.058 11.949,71.872 17.019,71.751 20.571 C 71.719 21.516,71.650 21.552,70.612 21.161 C 67.738 20.076,66.276 27.545,67.913 34.951 C 68.185 36.184,68.542 38.914,68.705 41.018 C 69.023 45.109,69.975 50.371,70.629 51.648 C 70.848 52.077,71.127 53.167,71.247 54.070 C 71.368 54.974,71.792 56.271,72.189 56.953 C 73.149 58.599,74.158 62.189,74.233 64.227 C 74.267 65.131,74.437 66.341,74.612 66.916 C 74.787 67.491,75.404 69.574,75.985 71.546 C 76.984 74.941,77.412 76.093,78.982 79.612 C 79.348 80.433,79.833 81.710,80.059 82.450 C 80.646 84.371,81.453 85.437,82.321 85.437 C 83.181 85.437,83.171 85.395,82.578 86.584 C 82.026 87.690,82.041 87.753,83.992 92.457 C 86.445 98.374,88.687 102.407,90.763 104.635 L 91.533 105.462 89.786 107.226 L 88.040 108.991 87.230 108.392 C 85.539 107.142,80.627 109.255,77.819 112.440 C 77.655 112.626,77.117 113.037,76.624 113.352 C 75.452 114.101,66.351 121.220,65.549 122.015 C 64.752 122.805,60.278 126.851,57.207 129.559 C 54.646 131.818,51.722 134.803,47.193 139.784 C 45.636 141.497,42.764 144.589,40.811 146.655 C 30.411 157.656,20.800 172.476,22.313 175.180 C 23.134 176.647,21.663 181.667,20.239 182.256 C 19.104 182.727,18.677 183.424,16.206 188.844 C 15.034 191.416,13.526 194.239,12.855 195.117 C 11.678 196.659,7.972 203.844,7.408 205.676 C 6.421 208.888,6.190 210.202,6.124 212.995 C 6.070 215.242,5.861 216.716,5.389 218.191 C 4.891 219.745,4.771 220.660,4.899 221.925 C 4.993 222.846,5.108 224.117,5.157 224.750 C 5.340 227.158,7.608 227.052,8.342 224.601 C 8.736 223.288,9.324 223.030,9.092 224.272 C 8.471 227.596,7.991 229.557,7.352 231.367 C 4.782 238.656,2.382 253.804,2.525 261.837 C 2.653 268.990,2.857 269.754,4.641 269.754 C 5.355 269.754,5.676 269.891,5.676 270.195 C 5.676 270.780,7.045 271.658,7.615 271.439 C 8.277 271.185,7.501 275.611,5.972 280.807 C 5.803 281.382,5.462 282.793,5.214 283.943 C 4.815 285.799,4.205 288.535,3.250 292.756 C 2.110 297.791,0.619 306.653,0.606 308.468 C 0.593 310.363,2.076 311.327,3.301 310.218 C 3.782 309.783,3.803 310.140,3.658 316.267 C 3.427 326.108,3.988 329.201,6.008 329.201 C 6.318 329.201,6.577 329.369,6.584 329.574 C 6.637 331.323,6.958 334.007,7.208 334.801 C 7.430 335.503,7.384 336.864,7.045 339.730 C 6.375 345.387,6.011 351.283,6.117 354.742 C 6.168 356.385,6.096 358.267,5.958 358.925 C 5.820 359.582,5.636 362.001,5.548 364.302 C 5.461 366.602,5.239 370.366,5.055 372.666 C 4.543 379.063,4.541 379.015,5.336 379.572 C 6.008 380.042,6.026 380.162,5.860 383.084 C 5.597 387.704,6.045 399.973,6.487 400.246 C 6.749 400.408,6.860 402.084,6.889 406.284 C 6.941 413.964,7.852 420.521,9.538 425.363 C 9.858 426.283,10.335 428.309,10.598 429.866 C 10.899 431.648,11.279 432.921,11.624 433.302 C 11.971 433.684,12.362 435.002,12.689 436.893 C 12.974 438.536,13.711 441.897,14.329 444.361 C 14.946 446.826,15.678 450.042,15.955 451.508 C 16.232 452.975,16.710 454.924,17.017 455.840 C 17.323 456.756,17.859 459.119,18.206 461.090 C 18.957 465.348,19.763 468.471,20.771 471.026 C 21.205 472.128,21.509 473.507,21.509 474.381 C 21.509 480.599,25.110 494.698,26.698 494.698 C 26.916 494.698,27.319 495.202,27.594 495.818 C 27.869 496.434,28.452 497.610,28.889 498.432 C 29.471 499.524,29.673 500.315,29.640 501.379 C 29.591 502.939,29.800 503.452,31.877 506.879 C 33.110 508.914,33.848 510.461,37.647 518.969 C 39.123 522.277,40.169 523.674,41.168 523.674 C 41.593 523.674,43.913 526.847,43.913 527.428 C 43.913 528.677,45.837 530.246,47.369 530.246 C 49.217 530.246,49.259 530.072,48.052 527.409 C 47.379 525.922,47.359 525.186,47.981 524.732 C 48.657 524.237,48.784 521.735,48.192 520.563 L 47.727 519.642 48.747 520.612 C 49.308 521.146,49.988 521.583,50.258 521.583 C 50.528 521.583,50.838 521.727,50.946 521.903 C 52.278 524.057,54.204 521.954,53.148 519.499 C 52.789 518.664,52.547 517.948,52.611 517.908 C 54.560 516.694,57.440 515.915,57.804 516.504 C 58.106 516.993,59.017 516.846,59.586 516.218 C 60.099 515.651,60.091 515.111,59.548 513.620 C 59.438 513.317,60.166 513.842,61.168 514.787 C 63.066 516.579,63.596 516.795,64.319 516.072 C 64.557 515.833,65.106 515.549,65.538 515.441 C 66.327 515.243,66.865 514.161,66.483 513.543 C 66.379 513.374,66.516 512.896,66.788 512.480 C 67.245 511.784,67.246 511.668,66.801 510.989 C 65.822 509.495,66.352 508.886,68.222 509.357 C 69.687 509.726,70.799 509.253,70.799 508.261 C 70.799 507.560,71.438 507.469,71.884 508.106 C 72.620 509.156,73.428 509.443,74.209 508.932 C 74.767 508.566,75.302 508.537,77.179 508.770 C 78.782 508.969,79.653 508.956,80.083 508.726 C 80.594 508.452,80.825 508.526,81.464 509.165 C 82.940 510.641,85.736 509.698,85.736 507.724 C 85.736 506.482,86.235 506.576,87.052 507.971 C 88.007 509.600,88.917 509.978,89.663 509.057 L 90.192 508.403 91.065 509.049 C 91.903 509.668,91.970 509.673,92.720 509.182 C 93.151 508.900,93.503 508.790,93.503 508.938 C 93.503 509.562,97.001 510.896,97.681 510.532 C 98.399 510.148,98.514 510.205,99.006 511.197 C 99.366 511.921,100.474 512.245,101.062 511.799 C 101.668 511.339,103.555 511.621,104.203 512.268 C 104.907 512.973,105.910 512.842,106.368 511.987 C 106.877 511.036,107.459 511.356,108.472 513.144 C 109.007 514.089,109.589 514.961,109.764 515.081 C 110.235 515.406,111.426 515.356,111.426 515.011 C 111.426 514.847,111.607 514.712,111.828 514.712 C 112.049 514.712,112.478 514.439,112.780 514.104 C 113.083 513.770,113.473 513.551,113.648 513.617 C 114.550 513.960,115.310 513.235,115.310 512.034 C 115.310 511.371,115.357 510.829,115.415 510.829 C 115.893 510.829,117.614 511.616,117.861 511.949 C 118.331 512.581,120.397 512.319,120.806 511.576 C 120.987 511.247,121.170 510.921,121.213 510.851 C 121.256 510.781,121.471 510.970,121.691 511.271 C 121.993 511.684,122.318 511.772,123.020 511.632 C 123.825 511.471,124.002 511.555,124.338 512.258 C 124.937 513.513,126.960 513.431,126.960 512.152 C 126.960 511.318,128.340 510.182,128.751 510.677 C 129.305 511.345,130.467 511.235,130.873 510.477 L 131.221 509.825 131.804 510.626 C 132.751 511.926,134.130 511.521,134.130 509.944 C 134.130 509.436,134.357 509.079,134.802 508.883 C 135.385 508.628,135.474 508.365,135.474 506.899 C 135.474 504.885,135.700 504.916,136.386 507.024 C 137.024 508.983,137.622 509.687,138.554 509.573 C 139.172 509.498,139.362 509.701,139.863 510.976 C 140.980 513.813,143.437 514.210,143.037 511.489 C 142.884 510.446,144.724 510.210,145.424 511.183 C 146.530 512.719,148.087 511.532,147.696 509.450 C 147.514 508.481,147.552 508.367,148.003 508.540 C 148.286 508.649,148.757 508.738,149.050 508.738 C 149.406 508.738,149.753 509.184,150.097 510.086 C 150.943 512.299,152.950 512.599,152.950 510.512 C 152.950 509.835,153.130 509.551,153.697 509.335 C 154.108 509.179,154.444 508.854,154.444 508.614 C 154.444 507.966,154.947 507.770,155.648 508.146 C 156.335 508.513,158.913 507.269,158.937 506.559 C 158.943 506.361,159.147 506.565,159.390 507.013 C 160.639 509.313,162.650 508.380,161.942 505.829 C 161.724 505.046,161.493 504.205,161.427 503.958 C 161.361 503.712,161.431 503.319,161.584 503.086 C 162.003 502.444,163.302 503.406,163.552 504.542 C 163.779 505.578,165.026 506.694,165.676 506.444 C 165.918 506.352,166.375 506.509,166.691 506.795 C 168.158 508.124,169.221 506.844,168.720 504.350 C 168.446 502.984,168.455 502.624,168.767 502.519 C 168.981 502.448,169.416 502.130,169.735 501.811 C 170.611 500.935,171.465 501.228,171.921 502.561 C 172.619 504.601,174.080 504.997,174.769 503.332 C 174.980 502.824,175.354 502.465,175.672 502.465 C 175.971 502.465,176.299 502.330,176.400 502.166 C 176.751 501.598,177.053 501.873,177.836 503.473 C 179.041 505.932,180.881 505.871,180.784 503.376 C 180.748 502.462,180.876 502.110,181.332 501.866 C 181.659 501.691,181.928 501.384,181.930 501.184 C 181.931 500.985,182.547 500.553,183.298 500.224 C 184.920 499.514,185.288 499.128,185.288 498.132 C 185.288 497.412,185.768 497.148,186.237 497.610 C 186.362 497.733,186.940 497.834,187.522 497.834 C 188.525 497.834,188.600 497.906,188.995 499.249 C 189.804 502.001,191.994 501.494,191.637 498.638 C 191.505 497.584,191.539 497.085,191.734 497.205 C 191.899 497.307,192.402 497.250,192.853 497.079 C 193.554 496.812,193.783 496.873,194.446 497.500 C 195.663 498.651,197.142 498.657,198.201 497.515 C 198.891 496.770,198.935 496.762,199.688 497.256 C 200.260 497.630,200.809 497.717,201.778 497.584 C 202.501 497.485,203.136 497.505,203.189 497.630 C 203.425 498.180,205.306 499.221,206.107 499.243 C 207.788 499.291,208.700 498.274,208.578 496.489 C 208.516 495.591,209.996 495.239,211.062 495.898 C 212.815 496.981,214.488 496.338,214.488 494.581 C 214.488 493.074,214.758 493.090,216.460 494.699 C 217.328 495.520,218.169 496.191,218.330 496.191 C 218.490 496.191,218.821 496.267,219.063 496.361 C 219.315 496.457,219.885 496.169,220.389 495.689 C 220.876 495.226,221.503 494.712,221.784 494.548 C 222.132 494.344,222.298 493.848,222.310 492.980 C 222.331 491.309,222.366 491.336,223.593 493.957 C 225.180 497.347,227.765 497.746,227.157 494.508 C 226.895 493.111,227.197 493.253,228.044 494.924 C 229.473 497.744,231.097 498.580,231.666 496.788 C 231.804 496.354,232.118 496.191,232.821 496.191 C 234.025 496.191,234.501 495.734,234.513 494.563 C 234.523 493.634,235.091 492.606,235.596 492.606 C 235.749 492.606,236.272 493.299,236.758 494.145 C 238.066 496.427,239.603 496.895,240.329 495.233 C 240.720 494.336,241.747 494.217,242.947 494.930 C 243.681 495.366,244.162 495.449,244.945 495.275 C 245.665 495.116,246.158 495.174,246.579 495.470 C 247.360 496.016,248.574 496.009,249.308 495.454 C 249.627 495.213,250.181 495.011,250.538 495.006 C 250.896 495.001,251.450 494.664,251.770 494.258 C 252.334 493.540,252.364 493.535,252.856 494.079 C 253.609 494.911,254.423 495.008,255.242 494.363 C 255.644 494.047,256.083 493.815,256.217 493.847 C 256.351 493.879,256.833 493.724,257.290 493.503 C 257.924 493.195,258.202 493.183,258.470 493.451 C 258.941 493.923,259.746 493.893,260.164 493.389 C 260.352 493.163,260.909 492.897,261.402 492.798 C 262.100 492.658,262.338 492.420,262.478 491.716 C 262.715 490.534,262.874 490.568,264.510 492.158 C 265.954 493.562,266.995 493.859,267.660 493.057 C 267.983 492.669,268.144 492.707,268.915 493.356 C 269.817 494.115,271.051 494.310,271.832 493.816 C 272.150 493.614,272.612 493.859,273.549 494.722 C 274.874 495.943,275.467 496.029,277.032 495.225 C 277.431 495.020,277.868 495.089,278.576 495.470 C 279.505 495.971,279.637 495.973,280.826 495.506 L 282.088 495.010 283.101 495.899 C 284.684 497.290,286.184 496.982,286.184 495.267 C 286.184 494.562,286.324 494.443,287.304 494.311 C 287.920 494.228,288.865 494.071,289.404 493.962 C 290.195 493.801,290.558 493.910,291.294 494.529 C 292.532 495.571,293.951 495.279,293.951 493.983 C 293.951 493.709,294.186 493.409,294.473 493.317 C 295.256 493.067,296.432 492.571,296.938 492.278 C 297.184 492.135,297.789 491.817,298.282 491.571 C 298.775 491.326,299.380 491.009,299.627 490.866 C 300.809 490.185,301.453 489.918,301.914 489.918 C 302.191 489.918,302.668 489.691,302.975 489.413 C 303.502 488.937,303.624 488.954,305.153 489.729 C 306.432 490.377,306.897 490.483,307.362 490.233 C 307.686 490.060,308.281 489.918,308.684 489.918 C 309.135 489.918,309.604 489.631,309.905 489.171 C 310.526 488.224,310.656 488.234,312.024 489.320 C 313.416 490.427,313.508 490.427,314.515 489.325 L 315.330 488.433 316.410 489.202 C 317.364 489.881,317.573 489.926,318.193 489.584 C 318.579 489.372,319.101 489.229,319.353 489.267 C 319.605 489.305,320.123 489.045,320.505 488.690 C 320.910 488.312,321.278 488.166,321.391 488.338 C 321.984 489.248,323.823 489.593,324.396 488.903 C 324.674 488.567,324.923 488.553,325.654 488.828 C 326.665 489.209,327.858 488.268,327.511 487.364 C 327.280 486.763,327.611 486.822,328.656 487.565 C 329.744 488.340,330.962 488.384,331.486 487.667 C 332.208 486.679,335.211 487.107,336.905 488.438 C 337.789 489.134,338.844 489.192,339.358 488.574 C 339.562 488.327,340.069 488.125,340.484 488.125 C 340.948 488.125,341.615 487.739,342.213 487.122 C 343.302 486.002,345.218 485.494,346.258 486.050 C 346.592 486.229,347.294 486.341,347.817 486.300 C 348.340 486.258,349.279 486.455,349.904 486.737 C 351.405 487.416,352.929 487.137,353.744 486.035 C 354.396 485.152,354.664 485.165,357.152 486.192 C 357.656 486.400,358.406 486.505,358.819 486.426 C 359.314 486.332,359.959 486.546,360.708 487.055 C 362.360 488.176,363.371 488.033,363.977 486.593 L 364.332 485.747 365.429 486.335 C 366.322 486.814,366.861 486.888,368.327 486.735 L 370.127 486.547 369.943 487.892 C 369.750 489.302,370.529 490.387,371.475 490.025 C 371.685 489.944,372.060 490.167,372.307 490.520 C 372.894 491.358,374.024 491.203,374.521 490.217 C 374.765 489.733,374.899 489.641,374.902 489.956 C 374.918 491.665,377.057 491.351,377.696 489.545 C 378.123 488.338,378.147 488.319,378.169 489.179 C 378.182 489.677,378.404 490.385,378.662 490.753 C 378.919 491.121,379.196 491.785,379.277 492.229 C 379.486 493.385,379.990 493.870,380.817 493.712 C 381.395 493.602,381.593 493.740,381.831 494.423 C 382.266 495.673,384.167 495.971,384.167 494.790 C 384.167 494.547,384.335 494.408,384.541 494.479 C 384.801 494.570,384.884 495.177,384.813 496.487 C 384.706 498.495,384.920 498.867,386.193 498.875 C 386.568 498.878,386.955 498.671,387.053 498.415 C 387.191 498.056,387.357 498.158,387.786 498.864 C 388.791 500.517,390.142 499.893,390.142 497.774 C 390.142 496.815,390.259 496.490,390.604 496.490 C 391.084 496.490,391.038 497.346,390.430 499.727 C 390.173 500.735,390.444 501.948,391.004 502.294 C 391.190 502.409,391.241 503.388,391.136 504.846 C 390.924 507.786,391.171 509.242,391.920 509.480 C 392.546 509.679,392.714 512.385,392.187 513.781 C 391.605 515.326,392.858 516.614,394.025 515.669 C 394.864 514.990,395.871 510.845,396.726 504.557 C 397.127 501.610,397.562 499.547,397.923 498.881 C 399.684 495.626,400.795 467.217,399.546 457.356 C 399.081 453.679,398.778 451.820,398.086 448.394 C 397.671 446.341,396.980 442.778,396.550 440.478 C 396.120 438.178,395.569 435.303,395.326 434.089 C 395.014 432.531,394.978 431.789,395.202 431.565 C 395.631 431.135,395.601 429.883,395.094 427.035 C 394.859 425.721,394.527 423.435,394.356 421.957 C 394.184 420.478,393.814 417.857,393.533 416.131 C 392.805 411.663,392.848 409.150,393.668 408.277 C 394.240 407.668,394.275 407.465,393.985 406.413 C 393.746 405.548,393.750 404.982,393.999 404.291 C 394.285 403.500,394.219 402.932,393.585 400.745 C 393.170 399.313,392.830 397.843,392.830 397.480 C 392.830 397.117,392.481 395.687,392.054 394.302 C 391.628 392.918,391.242 391.180,391.198 390.441 C 391.155 389.701,390.947 388.559,390.738 387.901 C 390.528 387.244,390.325 386.034,390.285 385.213 C 390.159 382.603,389.603 378.372,389.273 377.511 C 389.042 376.908,389.048 376.528,389.296 376.131 C 389.637 375.587,388.402 370.483,387.274 367.772 C 386.876 366.816,386.893 366.726,387.602 366.069 C 388.532 365.207,388.532 364.888,387.603 362.601 C 387.192 361.590,386.856 360.471,386.856 360.115 C 386.856 359.758,386.581 358.672,386.246 357.702 C 385.910 356.731,385.698 355.696,385.773 355.402 C 385.930 354.790,385.776 354.228,384.498 350.754 C 383.818 348.905,383.657 348.117,383.874 347.712 C 384.035 347.410,384.167 346.862,384.167 346.493 C 384.167 346.125,384.322 345.395,384.511 344.871 C 384.895 343.809,384.307 341.696,382.038 335.983 C 381.110 333.649,380.939 332.936,381.193 332.462 C 381.554 331.788,381.424 331.234,380.360 328.902 C 379.948 327.999,379.172 326.184,378.637 324.869 C 378.101 323.555,377.301 321.673,376.860 320.687 C 374.239 314.834,373.711 313.303,373.906 312.107 C 374.115 310.818,373.768 309.716,371.918 305.783 C 371.137 304.122,370.212 302.105,369.862 301.301 C 369.512 300.497,368.913 299.526,368.531 299.144 C 368.148 298.761,367.419 297.604,366.911 296.573 C 365.690 294.094,363.882 290.180,363.533 289.262 C 363.206 288.403,361.492 285.828,361.048 285.530 C 360.421 285.109,360.030 278.766,360.463 276.027 C 361.028 272.447,361.003 272.191,360.045 271.770 C 359.230 271.412,358.646 270.776,358.604 270.202 C 358.511 268.904,357.685 266.069,357.065 264.918 C 356.544 263.950,356.370 263.282,356.503 262.752 C 356.669 262.091,356.552 260.978,355.920 257.207 C 355.045 251.984,353.064 247.150,346.982 235.400 C 345.556 232.646,345.592 232.364,347.250 233.295 C 349.032 234.296,350.411 233.981,350.411 232.574 C 350.411 231.837,349.810 231.410,346.125 229.528 C 344.734 228.817,344.697 228.767,345.191 228.222 C 345.473 227.910,345.629 227.461,345.539 227.225 C 345.422 226.921,345.670 226.740,346.382 226.606 C 347.353 226.424,347.976 225.596,347.599 224.987 C 347.510 224.843,347.703 224.485,348.028 224.191 C 348.727 223.558,348.798 222.477,348.174 221.959 C 347.473 221.378,347.973 221.015,348.762 221.532 C 351.175 223.113,352.658 220.750,350.398 218.926 C 349.716 218.375,348.813 217.554,348.391 217.102 C 347.969 216.650,347.448 216.281,347.234 216.281 C 347.020 216.281,346.280 215.987,345.590 215.627 L 344.336 214.973 345.357 214.631 C 346.195 214.351,346.395 214.120,346.472 213.343 C 346.556 212.493,346.664 212.397,347.544 212.397 C 348.669 212.397,349.369 211.402,348.871 210.511 C 348.531 209.905,348.981 209.865,351.267 210.299 C 353.498 210.722,354.427 210.315,354.160 209.031 C 354.049 208.500,353.964 207.669,353.970 207.185 C 353.985 205.966,353.298 205.325,351.723 205.089 C 350.985 204.979,349.952 204.692,349.426 204.451 L 348.469 204.014 349.419 204.192 C 350.223 204.342,350.543 204.206,351.498 203.305 C 352.118 202.720,352.733 202.240,352.863 202.240 C 353.392 202.240,353.079 200.468,352.476 200.046 C 351.882 199.629,351.876 199.574,352.353 198.846 C 352.835 198.111,352.825 198.056,352.080 197.310 C 351.121 196.351,351.118 196.378,352.210 196.160 C 354.791 195.644,353.400 193.440,350.639 193.672 C 348.277 193.870,348.235 193.827,349.813 192.830 C 351.204 191.953,351.356 191.130,350.261 190.413 C 349.754 190.081,349.515 189.651,349.515 189.072 C 349.515 188.535,349.300 188.107,348.933 187.910 C 348.455 187.654,348.400 187.454,348.625 186.779 C 348.776 186.329,348.869 185.703,348.833 185.388 C 348.786 184.976,349.028 184.748,349.704 184.567 C 350.855 184.260,351.211 183.099,350.383 182.349 C 349.709 181.739,346.011 182.178,342.847 183.242 C 341.750 183.612,340.851 183.806,340.851 183.675 C 340.851 183.338,342.166 182.713,344.467 181.958 C 347.078 181.100,347.573 180.706,347.573 179.485 C 347.573 178.648,347.737 178.410,348.618 177.971 C 350.293 177.138,350.823 176.109,350.002 175.287 C 349.777 175.063,349.499 174.582,349.384 174.220 C 348.913 172.737,347.612 172.789,343.006 174.477 C 339.961 175.593,340.353 174.899,344.270 172.238 C 347.143 170.286,347.444 169.706,346.338 168.255 C 345.343 166.952,344.334 167.169,338.992 169.838 C 337.669 170.498,336.447 170.311,337.658 169.633 C 337.919 169.487,338.308 169.200,338.521 168.996 C 339.332 168.222,342.915 165.475,343.586 165.113 C 343.971 164.905,344.824 164.388,345.482 163.965 C 346.139 163.541,347.685 162.847,348.917 162.421 C 351.397 161.564,352.152 160.842,351.617 159.842 C 351.264 159.182,349.477 158.972,348.653 159.494 C 348.420 159.642,347.850 159.644,347.348 159.500 C 346.408 159.231,346.262 159.288,343.466 161.017 C 342.686 161.499,341.849 161.817,341.606 161.724 C 341.364 161.631,340.709 161.837,340.152 162.182 C 339.594 162.526,339.045 162.808,338.931 162.808 C 338.436 162.808,339.290 162.074,342.138 160.050 C 343.813 158.860,345.228 157.782,345.284 157.655 C 345.339 157.527,346.180 156.640,347.151 155.684 C 348.122 154.727,348.917 153.731,348.917 153.469 C 348.917 152.390,347.352 151.647,346.621 152.379 C 346.425 152.574,346.227 152.592,346.122 152.422 C 346.026 152.267,346.280 151.829,346.686 151.448 C 347.863 150.342,347.524 148.768,346.109 148.768 C 345.130 148.768,345.937 148.277,347.778 147.753 C 348.929 147.424,349.535 147.082,349.660 146.689 C 349.761 146.370,350.106 146.027,350.426 145.925 C 351.144 145.697,351.222 144.239,350.547 143.679 C 350.062 143.276,349.914 143.299,345.676 144.442 C 343.555 145.013,342.804 144.733,343.129 143.490 C 343.264 142.971,343.676 142.772,345.262 142.456 C 346.893 142.132,347.307 141.925,347.699 141.236 C 347.958 140.779,348.607 140.197,349.141 139.942 C 351.584 138.777,349.728 136.648,347.178 137.690 C 346.409 138.004,344.772 138.620,343.540 139.057 C 342.308 139.495,341.031 139.981,340.702 140.136 C 340.373 140.291,339.298 140.674,338.312 140.988 C 337.326 141.301,335.594 141.907,334.463 142.334 C 333.332 142.761,332.338 143.043,332.255 142.959 C 332.035 142.740,332.795 141.897,333.212 141.897 C 333.407 141.897,334.729 141.428,336.150 140.855 C 338.766 139.800,345.074 137.692,347.287 137.134 C 348.295 136.879,348.598 136.615,349.125 135.530 L 349.756 134.231 348.888 132.836 C 347.966 131.355,347.458 131.173,345.750 131.717 C 345.274 131.869,343.473 132.415,341.748 132.930 C 340.022 133.446,337.832 134.138,336.881 134.468 C 334.229 135.387,334.152 134.949,336.750 133.728 C 338.027 133.127,339.155 132.636,339.256 132.636 C 339.357 132.636,340.572 132.085,341.957 131.412 C 343.342 130.739,344.634 130.158,344.829 130.122 C 348.056 129.523,348.918 129.123,349.115 128.135 C 349.225 127.584,349.574 127.183,350.149 126.945 C 351.307 126.465,351.549 125.420,350.739 124.391 C 350.394 123.953,350.112 123.415,350.112 123.197 C 350.112 121.849,345.995 122.550,342.811 124.440 C 340.589 125.759,340.309 125.820,339.625 125.137 C 339.183 124.694,338.794 124.572,338.257 124.707 C 336.073 125.255,338.150 123.998,340.874 123.122 C 345.587 121.608,345.384 121.723,345.276 120.610 C 345.188 119.688,345.117 119.637,343.822 119.553 C 342.578 119.472,342.437 119.382,342.179 118.507 C 342.024 117.981,341.594 117.418,341.225 117.256 C 340.424 116.904,340.302 115.218,341.010 114.282 C 341.564 113.550,341.561 112.993,341.000 111.917 C 340.581 111.114,340.600 111.006,341.315 110.124 C 343.516 107.407,344.259 106.521,347.347 102.933 C 351.087 98.587,351.412 97.670,349.445 97.014 C 349.208 96.935,349.734 96.085,350.859 94.732 C 351.845 93.546,352.853 92.274,353.099 91.905 C 353.346 91.537,354.194 90.401,354.983 89.382 C 357.175 86.554,357.897 85.158,357.497 84.519 C 357.168 83.991,359.065 80.837,361.888 77.222 C 362.401 76.565,363.209 75.451,363.684 74.746 L 364.547 73.466 363.883 72.568 L 363.219 71.670 363.939 70.413 C 364.334 69.722,364.914 68.722,365.227 68.191 C 365.829 67.168,365.677 66.536,364.675 65.904 C 363.979 65.465,362.786 66.186,362.314 67.329 C 361.698 68.825,359.671 72.175,359.676 71.691 C 359.690 70.275,361.808 66.326,364.877 61.996 C 365.440 61.201,365.441 61.161,364.897 60.152 C 364.265 58.978,364.414 58.285,365.942 55.265 C 366.400 54.361,367.202 52.748,367.725 51.680 C 370.063 46.906,369.942 47.268,369.602 46.072 C 369.428 45.460,369.321 44.287,369.364 43.465 C 369.502 40.817,368.139 36.347,366.648 34.555 C 366.261 34.091,365.945 33.411,365.945 33.044 C 365.945 31.872,365.258 31.250,364.197 31.462 C 363.269 31.648,363.256 31.635,363.256 30.470 C 363.256 28.324,361.371 27.742,360.333 29.567 C 359.453 31.112,359.371 30.633,359.474 24.571 C 359.584 18.126,359.491 17.625,358.178 17.625 C 357.178 17.625,356.684 18.302,356.684 19.672 C 356.684 20.763,356.419 21.509,356.031 21.509 C 355.865 21.509,355.823 21.132,355.933 20.630 C 356.040 20.147,355.991 19.498,355.825 19.188 C 355.487 18.556,355.249 15.854,355.167 11.706 C 355.116 9.164,355.052 8.885,354.424 8.473 C 353.558 7.906,352.517 8.371,352.470 9.346 C 352.419 10.412,352.562 16.771,352.667 18.073 C 352.807 19.816,352.467 25.392,352.220 25.392 C 352.105 25.392,351.498 23.275,350.872 20.687 C 348.737 11.864,347.580 9.630,345.441 10.204 C 344.618 10.424,344.480 10.615,344.307 11.769 L 344.110 13.084 342.963 12.930 C 342.051 12.807,341.683 12.910,341.160 13.433 C 340.799 13.794,340.470 14.045,340.431 13.991 C 340.391 13.936,339.913 13.087,339.369 12.105 C 336.969 7.774,334.506 5.268,333.059 5.683 C 332.252 5.915,332.125 5.820,330.917 4.085 C 329.559 2.135,328.481 1.607,327.723 2.520 M346.041 14.414 C 346.794 15.608,347.012 16.658,346.401 16.151 C 345.930 15.760,345.034 14.288,345.034 13.906 C 345.034 13.492,345.659 13.807,346.041 14.414 M343.921 17.685 C 344.369 18.375,344.734 19.148,344.734 19.403 C 344.733 19.664,344.494 19.476,344.185 18.969 C 343.883 18.476,343.413 17.889,343.140 17.663 C 342.633 17.244,342.458 16.430,342.876 16.430 C 343.003 16.430,343.474 16.995,343.921 17.685 M102.045 18.969 C 102.922 19.782,105.509 20.051,105.928 19.372 C 106.063 19.154,106.316 19.366,106.618 19.950 C 109.006 24.564,109.835 25.546,111.125 25.288 C 111.914 25.130,112.037 25.204,112.196 25.923 C 113.592 32.249,114.725 35.250,115.717 35.250 C 115.946 35.250,116.300 35.452,116.505 35.698 C 117.574 36.987,119.048 35.621,118.815 33.556 C 118.597 31.619,119.009 32.449,120.058 36.058 C 121.432 40.785,122.269 42.420,123.313 42.420 C 124.408 42.420,125.094 41.668,125.219 40.329 C 125.300 39.464,125.570 40.060,126.772 43.764 C 130.160 54.199,130.200 54.268,132.353 53.352 C 132.717 53.198,132.900 53.496,133.201 54.733 C 134.766 61.165,135.596 62.677,136.945 61.557 C 137.242 61.311,137.467 61.659,137.947 63.107 C 138.742 65.502,139.775 68.391,140.110 69.156 C 140.253 69.485,140.606 70.560,140.893 71.546 C 141.545 73.789,141.726 74.029,142.851 74.143 C 143.682 74.227,143.836 74.427,144.638 76.475 C 145.121 77.707,145.678 78.850,145.876 79.014 C 146.075 79.178,146.473 79.683,146.762 80.134 C 147.140 80.725,147.535 80.956,148.167 80.956 C 148.957 80.956,149.591 81.515,149.612 82.233 C 149.621 82.544,150.769 86.354,151.523 88.574 C 152.286 90.820,152.877 91.992,153.548 92.589 C 154.019 93.007,154.521 94.324,155.206 96.938 C 155.335 97.431,155.468 97.935,155.502 98.058 C 155.536 98.181,155.581 98.415,155.601 98.577 C 155.645 98.923,157.915 100.407,158.249 100.308 C 159.660 99.889,160.937 102.514,159.951 103.807 C 158.798 105.320,159.560 106.624,161.613 106.652 C 162.188 106.659,162.920 106.863,163.239 107.104 C 163.558 107.346,164.047 107.543,164.327 107.543 C 164.606 107.543,164.913 107.745,165.007 107.991 C 165.267 108.667,166.376 108.535,168.783 107.543 C 171.911 106.253,172.957 106.322,174.045 107.891 C 174.519 108.576,175.279 109.362,175.734 109.639 C 176.189 109.916,177.177 110.936,177.930 111.905 C 179.834 114.358,180.275 114.572,181.305 113.542 C 181.870 112.977,181.886 112.977,182.397 113.542 C 183.510 114.771,185.135 113.951,184.810 112.324 C 184.644 111.495,184.673 111.458,185.221 111.799 C 185.545 112.002,185.810 112.395,185.810 112.673 C 185.810 113.101,187.232 114.414,187.695 114.414 C 187.778 114.414,189.236 115.068,190.935 115.868 C 197.470 118.944,198.453 119.348,202.539 120.640 C 203.115 120.822,204.324 120.953,205.228 120.930 C 206.386 120.902,207.242 121.081,208.129 121.535 C 209.613 122.297,210.518 122.352,211.214 121.722 C 211.677 121.303,214.203 122.781,215.086 123.987 C 215.466 124.507,216.648 124.595,217.322 124.153 C 218.171 123.596,219.037 124.354,221.069 127.433 C 223.100 130.510,223.134 130.545,224.025 130.545 C 225.303 130.545,225.665 129.925,225.131 128.648 C 224.593 127.359,224.778 126.451,225.567 126.509 C 226.378 126.568,226.527 126.763,228.176 129.904 C 228.980 131.437,229.826 132.915,230.054 133.187 C 230.283 133.459,230.709 134.052,231.000 134.503 C 231.510 135.294,233.607 135.760,233.607 135.083 C 233.607 134.316,234.418 133.764,235.050 134.103 C 235.501 134.344,235.871 134.357,236.264 134.147 C 236.689 133.919,236.927 133.960,237.218 134.311 C 237.459 134.602,237.923 134.732,238.445 134.655 C 239.507 134.499,239.504 134.553,238.237 138.312 C 237.662 140.020,237.192 141.834,237.192 142.344 C 237.192 144.031,238.582 144.581,239.460 143.241 C 239.729 142.830,240.073 142.494,240.224 142.494 C 240.589 142.494,242.569 144.487,242.569 144.854 C 242.569 145.013,242.872 145.235,243.241 145.349 C 244.677 145.789,244.729 146.082,243.617 147.440 C 242.713 148.543,242.607 148.829,242.859 149.492 C 243.514 151.215,244.449 150.655,249.604 145.451 C 256.939 138.046,262.010 133.742,269.612 128.469 C 271.349 127.265,271.535 127.040,271.541 126.133 C 271.550 124.866,270.271 124.638,268.823 125.646 C 268.138 126.123,267.074 126.848,266.458 127.259 C 265.842 127.670,264.953 128.300,264.484 128.659 C 264.014 129.019,262.756 129.960,261.688 130.751 C 260.620 131.542,259.477 132.416,259.149 132.693 C 258.820 132.970,257.946 133.686,257.207 134.285 C 256.468 134.883,254.279 136.926,252.343 138.824 C 250.407 140.722,248.747 142.200,248.654 142.107 C 248.088 141.541,254.273 133.593,256.952 131.444 C 257.667 130.870,258.935 129.794,259.769 129.054 C 261.592 127.434,262.213 126.905,265.830 123.889 C 267.369 122.606,268.792 121.394,268.993 121.196 C 269.193 120.998,270.396 120.030,271.665 119.044 C 272.934 118.058,274.401 116.873,274.925 116.410 C 275.449 115.948,276.583 115.165,277.446 114.671 C 279.298 113.610,279.656 112.303,278.267 111.671 C 277.417 111.283,277.319 110.970,277.969 110.721 C 278.706 110.438,278.501 109.147,277.615 108.502 L 276.813 107.918 278.138 107.086 C 278.866 106.629,280.336 105.692,281.404 105.006 C 282.472 104.319,284.354 103.139,285.586 102.384 C 288.602 100.535,289.470 99.827,289.470 99.216 C 289.470 97.998,287.802 97.571,286.530 98.462 C 286.154 98.725,285.769 98.863,285.674 98.768 C 285.398 98.492,286.119 97.786,287.855 96.634 C 288.853 95.971,289.470 95.348,289.470 95.002 C 289.470 93.448,291.486 92.869,292.312 94.186 C 293.835 96.611,295.064 95.249,295.200 90.988 C 295.306 87.689,295.834 86.776,296.140 89.362 C 296.766 94.647,300.224 89.691,300.224 83.509 C 300.224 82.846,300.352 82.748,301.222 82.748 C 302.215 82.748,302.913 81.951,302.913 80.815 C 302.913 80.479,303.083 80.489,303.854 80.874 C 305.573 81.732,306.051 80.895,306.351 76.495 C 306.642 72.236,306.721 71.933,307.435 72.315 C 308.503 72.887,309.428 72.417,309.776 71.126 C 310.060 70.069,310.174 69.969,311.044 70.009 C 312.497 70.075,312.831 69.138,312.307 66.468 C 311.716 63.457,311.731 63.108,312.421 63.733 C 313.659 64.854,315.206 64.091,315.566 62.181 C 315.670 61.631,316.097 60.773,316.516 60.276 C 317.172 59.496,317.250 59.191,317.081 58.062 C 316.966 57.300,317.013 56.599,317.191 56.383 C 317.360 56.179,317.563 55.004,317.641 53.771 C 317.774 51.683,318.591 47.221,319.378 44.287 C 319.645 43.293,319.859 43.017,320.361 43.017 C 321.379 43.017,322.290 42.191,322.499 41.077 C 322.605 40.513,322.879 39.895,323.108 39.705 C 323.361 39.496,323.525 38.784,323.525 37.902 C 323.525 36.489,323.551 36.445,324.404 36.445 C 326.206 36.445,326.341 35.612,325.451 29.992 C 325.076 27.621,325.076 27.161,325.453 26.406 C 325.789 25.733,325.818 25.244,325.585 24.206 C 325.341 23.123,325.382 22.658,325.799 21.732 C 326.391 20.421,326.733 20.579,326.958 22.265 C 327.045 22.917,327.175 23.884,327.247 24.414 C 327.319 24.944,327.607 26.691,327.886 28.297 C 328.661 32.752,328.544 39.095,327.665 40.299 C 327.442 40.605,326.617 41.711,325.833 42.757 C 323.334 46.091,322.640 47.303,322.634 48.342 C 322.629 49.329,320.295 53.126,318.538 55.007 C 316.843 56.822,318.507 58.504,320.554 57.046 C 321.370 56.465,321.519 56.443,321.973 56.843 C 323.378 58.082,324.225 57.831,326.241 55.580 C 327.279 54.421,328.254 53.473,328.409 53.473 C 328.564 53.473,328.369 53.798,327.975 54.197 C 325.880 56.315,325.453 57.564,326.512 58.471 C 327.840 59.608,327.017 61.168,325.021 61.300 C 322.250 61.484,322.337 63.948,325.117 64.041 C 327.327 64.115,327.289 65.295,325.071 65.480 C 324.185 65.554,323.883 65.751,323.509 66.500 C 323.254 67.011,322.595 67.997,322.044 68.692 C 320.689 70.403,319.364 73.139,319.352 74.249 C 319.347 74.751,319.213 75.291,319.054 75.450 C 318.895 75.608,318.652 76.274,318.513 76.928 C 318.282 78.019,318.188 78.111,317.379 78.034 C 315.667 77.870,315.409 78.387,315.816 81.170 C 316.204 83.819,316.074 84.322,315.204 83.535 C 314.039 82.480,312.407 84.015,312.858 85.740 C 312.944 86.066,312.878 86.416,312.712 86.519 C 312.547 86.621,312.221 87.159,311.989 87.714 C 311.501 88.882,311.273 88.946,310.530 88.125 C 309.709 87.218,308.734 87.377,307.780 88.574 C 307.151 89.362,306.719 89.619,306.025 89.619 C 305.349 89.619,304.999 89.817,304.705 90.366 C 304.485 90.777,304.206 91.113,304.084 91.113 C 303.557 91.113,300.916 95.937,300.381 97.878 C 300.261 98.312,299.879 98.579,299.199 98.707 C 298.646 98.811,297.856 99.161,297.444 99.485 C 297.032 99.809,296.254 100.075,295.715 100.075 C 295.010 100.075,294.344 100.405,293.339 101.252 C 292.373 102.067,291.755 102.381,291.334 102.271 C 289.660 101.833,288.789 103.797,290.237 104.746 C 291.394 105.504,292.905 105.320,294.184 104.265 C 294.788 103.768,295.515 103.361,295.801 103.361 C 296.087 103.361,296.792 103.136,297.369 102.860 C 298.351 102.392,298.454 102.392,298.971 102.860 C 299.275 103.136,299.874 103.361,300.302 103.361 C 301.034 103.361,301.073 103.434,300.958 104.588 C 300.813 106.039,301.218 106.945,302.011 106.945 C 302.339 106.945,302.748 107.294,302.973 107.767 C 303.225 108.295,303.641 108.621,304.135 108.678 C 305.478 108.835,308.738 104.455,307.739 103.837 C 307.561 103.728,307.507 102.982,307.606 102.018 C 307.717 100.942,307.650 100.235,307.410 99.945 C 307.040 99.499,307.234 98.282,307.676 98.282 C 307.809 98.282,308.085 98.484,308.290 98.730 C 308.494 98.977,308.880 99.179,309.148 99.180 C 310.501 99.186,310.735 100.874,309.679 103.012 C 308.208 105.988,308.130 106.514,309.027 107.411 C 310.056 108.440,310.852 107.991,313.033 105.149 C 314.840 102.796,315.659 102.184,315.380 103.396 C 314.391 107.691,314.406 107.511,315.009 107.953 C 315.533 108.336,315.550 108.517,315.227 110.255 C 314.756 112.787,316.109 114.356,317.309 112.671 C 317.623 112.231,318.079 112.127,319.617 112.148 C 321.975 112.179,322.078 112.396,320.790 114.635 C 319.476 116.919,319.068 117.652,317.964 119.704 C 317.451 120.655,316.773 121.904,316.456 122.479 C 315.455 124.296,313.966 127.840,313.966 128.407 C 313.966 128.867,302.624 140.424,301.513 141.097 C 301.312 141.218,300.833 140.985,300.406 140.558 C 299.389 139.541,298.973 139.606,297.794 140.967 C 296.090 142.935,294.847 144.535,294.847 144.761 C 294.847 144.880,294.532 145.393,294.147 145.902 C 293.762 146.410,293.109 147.431,292.695 148.170 C 292.281 148.910,291.678 149.985,291.355 150.560 C 290.881 151.403,290.563 151.623,289.711 151.696 C 288.547 151.796,288.327 152.111,287.382 155.041 C 287.090 155.945,286.581 157.155,286.251 157.730 C 285.351 159.295,284.511 162.023,283.952 165.198 C 283.677 166.759,283.333 168.332,283.188 168.694 C 283.042 169.057,282.488 171.813,281.958 174.818 C 280.107 185.300,280.784 193.134,283.595 193.747 C 284.115 193.861,284.921 194.272,285.385 194.662 C 287.106 196.104,288.275 195.450,288.275 193.044 L 288.275 191.435 289.601 192.603 C 293.229 195.796,297.858 194.566,303.317 188.959 C 307.780 184.376,309.040 178.384,306.527 173.696 C 306.182 173.052,305.900 172.417,305.900 172.284 C 305.900 169.868,298.412 163.107,295.736 163.107 C 294.131 163.107,295.160 161.464,299.339 157.356 C 301.198 155.529,303.339 155.224,303.017 156.833 C 302.788 157.981,303.236 158.506,304.640 158.730 C 309.503 159.508,318.406 170.508,317.074 174.095 C 316.869 174.647,316.875 175.641,317.094 177.201 C 318.741 188.962,315.674 204.353,311.315 206.205 C 310.883 206.388,310.298 206.732,310.015 206.968 C 309.640 207.281,308.748 207.388,306.738 207.360 C 300.760 207.276,298.115 206.294,294.397 202.775 C 292.389 200.875,291.411 200.149,290.855 200.149 C 289.986 200.149,289.340 201.063,289.609 201.911 C 289.707 202.219,289.585 202.618,289.327 202.832 C 288.373 203.624,289.356 205.835,291.860 208.528 C 292.106 208.793,292.913 209.724,293.652 210.596 C 303.536 222.253,310.134 228.103,317.999 232.183 C 320.134 233.291,322.651 234.603,323.591 235.098 C 324.531 235.592,325.522 235.997,325.793 235.997 C 326.590 235.997,335.738 243.996,340.609 248.953 C 343.937 252.340,344.157 252.687,343.384 253.329 C 342.799 253.814,345.281 259.879,346.892 261.902 C 347.051 262.102,347.128 262.426,347.062 262.623 C 346.996 262.820,346.652 262.488,346.297 261.886 C 345.329 260.246,343.764 260.586,343.764 262.436 C 343.764 262.846,343.657 263.181,343.526 263.181 C 343.240 263.181,340.553 260.152,340.553 259.829 C 340.553 259.705,340.025 259.519,339.380 259.416 C 338.480 259.272,337.977 258.942,337.216 257.994 C 334.948 255.169,332.103 252.427,331.440 252.427 C 329.720 252.427,329.761 254.101,331.526 255.898 C 333.321 257.725,336.370 261.375,336.370 261.695 C 336.370 262.350,335.410 261.895,328.039 257.747 C 325.475 256.305,323.056 256.141,322.743 257.389 C 322.479 258.444,322.713 258.773,324.314 259.597 C 325.112 260.007,326.505 261.088,327.409 261.997 C 328.312 262.907,329.522 264.032,330.097 264.498 C 332.873 266.748,335.248 269.203,334.944 269.507 C 334.254 270.197,330.986 268.347,327.879 265.507 C 326.660 264.393,325.019 264.779,325.019 266.179 C 325.019 266.462,324.817 266.860,324.571 267.065 C 323.429 268.012,323.944 268.860,327.338 271.626 C 328.439 272.523,329.099 273.261,328.942 273.418 C 328.602 273.758,326.461 272.681,324.839 271.354 C 323.336 270.125,322.165 270.029,321.679 271.097 C 321.261 272.013,321.633 272.481,324.372 274.489 C 326.578 276.107,326.186 276.522,323.750 275.148 C 320.397 273.255,318.545 275.185,321.733 277.251 C 322.554 277.783,323.246 278.431,323.271 278.691 C 323.295 278.951,323.332 279.365,323.353 279.612 C 323.459 280.872,325.341 282.707,327.763 283.914 C 328.342 284.202,328.483 284.844,328.029 285.124 C 327.878 285.217,326.085 284.553,324.046 283.648 C 322.007 282.742,320.090 282.001,319.786 282.001 C 319.063 282.001,316.654 283.171,316.654 283.522 C 316.654 284.026,316.065 283.799,314.547 282.708 C 312.813 281.462,311.576 281.590,311.576 283.015 C 311.576 283.725,311.939 284.141,314.337 286.186 C 315.209 286.928,315.418 287.290,315.284 287.823 C 315.099 288.562,315.990 289.382,318.223 290.526 C 319.368 291.112,319.527 291.406,319.079 292.112 C 318.751 292.630,317.388 291.965,315.418 290.325 C 314.656 289.690,313.801 289.171,313.519 289.171 C 313.237 289.171,312.607 288.835,312.119 288.424 C 311.056 287.530,309.922 287.457,309.495 288.255 C 309.034 289.116,309.099 289.350,310.122 290.515 C 311.723 292.338,310.336 292.254,308.224 290.400 C 306.274 288.687,305.298 288.625,304.165 290.143 C 303.852 290.561,303.651 290.601,303.166 290.342 C 302.309 289.883,301.120 290.242,301.120 290.959 C 301.120 291.278,300.836 291.692,300.488 291.878 C 299.560 292.375,297.537 294.343,297.536 294.749 C 297.535 295.357,295.727 296.938,295.033 296.938 C 294.144 296.938,293.652 297.482,293.652 298.465 C 293.652 299.236,293.585 299.273,292.274 299.227 C 290.499 299.165,289.969 299.802,290.713 301.104 C 291.182 301.926,291.178 302.000,290.638 302.489 C 290.324 302.773,290.067 303.186,290.067 303.407 C 290.067 303.921,290.148 303.938,288.298 303.045 C 286.555 302.205,285.335 302.184,284.944 302.987 C 284.804 303.275,284.552 303.745,284.383 304.033 C 284.214 304.320,283.996 304.791,283.900 305.078 C 283.803 305.366,283.572 305.595,283.386 305.588 C 283.025 305.574,282.878 305.520,277.425 303.412 C 273.156 301.762,271.474 302.003,272.543 304.110 C 272.897 304.809,273.152 304.988,274.614 305.566 C 275.294 305.834,275.410 306.023,275.261 306.617 C 275.066 307.394,275.368 307.800,277.225 309.257 C 278.321 310.118,278.116 310.312,276.713 309.743 C 273.731 308.533,272.106 307.618,271.511 306.813 C 270.438 305.362,268.559 305.675,268.559 307.304 C 268.559 307.682,268.827 308.260,269.156 308.588 C 269.939 309.371,269.929 309.385,268.716 309.244 C 267.831 309.140,267.627 309.237,267.324 309.901 C 266.986 310.643,266.460 310.842,265.152 310.722 C 264.371 310.651,263.480 311.523,263.480 312.358 C 263.480 312.944,262.431 313.932,262.144 313.616 C 262.095 313.562,261.563 312.476,260.962 311.203 C 258.491 305.970,255.291 307.704,256.784 313.466 C 257.145 314.857,257.171 315.322,256.896 315.414 C 256.697 315.480,256.280 315.789,255.969 316.100 C 255.413 316.656,255.390 316.655,254.755 316.063 C 253.371 314.774,251.574 315.947,252.344 317.637 C 252.620 318.242,251.172 320.653,250.810 320.193 C 250.576 319.896,249.415 317.546,248.989 316.505 C 248.720 315.848,248.316 314.907,248.092 314.414 C 247.867 313.921,247.405 312.883,247.065 312.107 C 245.206 307.872,242.902 310.349,243.297 316.159 C 243.434 318.187,243.399 319.038,243.182 318.904 C 243.009 318.797,242.868 318.465,242.868 318.166 C 242.868 317.534,241.459 314.352,241.074 314.114 C 240.795 313.942,239.881 312.081,239.264 310.432 C 238.819 309.241,237.864 308.547,236.986 308.776 C 236.210 308.979,235.859 310.162,236.319 311.021 C 236.670 311.678,238.089 319.353,238.050 320.388 C 238.023 321.100,237.820 320.363,236.899 316.206 C 235.476 309.777,233.717 306.630,231.580 306.687 L 230.377 306.718 230.172 305.338 C 229.817 302.954,228.796 302.603,226.290 304.004 L 224.872 304.797 225.043 306.242 L 225.214 307.687 224.482 307.207 C 223.733 306.717,223.604 306.165,223.735 304.012 C 223.815 302.693,223.119 301.718,222.096 301.718 C 221.072 301.718,220.769 302.345,220.711 304.585 C 220.647 307.088,219.827 308.617,218.966 307.839 C 218.696 307.594,218.166 307.394,217.790 307.394 C 217.113 307.394,217.107 307.362,217.278 304.630 C 217.640 298.831,216.682 296.874,213.560 297.032 C 211.482 297.136,211.142 297.296,209.626 298.880 L 208.769 299.776 208.951 296.024 L 209.134 292.271 208.367 291.861 C 207.685 291.496,207.449 291.524,206.245 292.109 C 204.738 292.841,204.332 292.758,204.332 291.718 C 204.332 291.295,204.003 290.772,203.510 290.409 C 202.789 289.878,202.734 289.730,203.062 289.193 C 204.977 286.057,201.770 285.759,197.874 288.710 C 197.618 288.904,197.314 288.832,196.932 288.486 C 196.099 287.733,195.054 287.864,193.876 288.871 C 193.301 289.363,192.782 289.621,192.723 289.445 C 192.664 289.268,192.899 288.925,193.246 288.682 C 193.954 288.187,194.117 286.544,193.518 285.945 C 192.779 285.206,191.841 285.581,190.183 287.279 C 188.760 288.737,188.465 288.917,188.059 288.580 C 187.432 288.060,188.128 287.229,189.402 286.974 C 190.295 286.795,190.835 285.760,190.497 284.877 C 190.270 284.287,188.676 284.132,187.577 284.594 C 187.061 284.811,186.584 284.989,186.519 284.989 C 186.350 284.989,187.910 282.573,188.557 281.833 C 189.647 280.586,188.821 278.478,187.453 279.017 C 187.125 279.147,186.058 280.396,185.082 281.794 C 183.331 284.302,183.300 284.329,182.637 283.840 C 181.502 283.005,182.031 282.101,185.695 278.616 C 189.174 275.306,189.463 274.836,188.602 273.885 C 187.892 273.101,187.267 273.205,186.063 274.309 C 185.481 274.843,184.170 276.053,183.150 276.998 C 181.144 278.855,180.732 279.045,180.732 278.109 C 180.732 277.775,180.536 277.427,180.297 277.335 C 179.998 277.220,179.914 276.906,180.028 276.335 C 180.386 274.546,179.115 273.714,177.569 274.727 C 177.003 275.098,176.733 275.135,176.475 274.876 C 176.022 274.424,175.496 274.444,174.354 274.955 C 173.837 275.187,172.932 275.458,172.345 275.556 C 171.758 275.655,171.018 275.973,170.702 276.263 C 169.548 277.321,168.311 278.049,167.293 278.269 C 166.721 278.394,165.931 278.705,165.539 278.962 C 164.882 279.393,164.795 279.386,164.424 278.879 C 163.899 278.161,163.950 278.098,166.495 276.339 C 169.608 274.187,170.454 272.899,169.626 271.573 C 169.344 271.120,169.373 270.913,169.776 270.510 C 170.051 270.235,170.276 269.872,170.276 269.703 C 170.276 269.534,170.947 268.771,171.767 268.007 C 173.510 266.381,173.796 265.355,172.666 264.778 C 172.255 264.569,171.904 264.126,171.886 263.795 C 171.808 262.405,170.424 261.853,169.248 262.743 C 168.929 262.984,168.433 263.181,168.145 263.181 C 167.857 263.181,167.446 263.425,167.231 263.723 C 167.017 264.021,166.370 264.592,165.795 264.992 C 165.220 265.393,164.683 265.788,164.600 265.870 C 162.886 267.585,146.824 278.491,147.410 277.542 C 148.266 276.157,158.869 267.753,161.611 266.287 C 163.123 265.478,164.003 264.711,164.003 264.203 C 164.003 263.994,164.776 263.310,165.721 262.681 C 167.137 261.739,167.455 261.372,167.531 260.587 C 167.638 259.473,166.767 258.778,165.867 259.260 C 165.209 259.612,163.704 259.348,163.704 258.881 C 163.704 258.689,164.712 258.034,165.945 257.424 C 168.332 256.243,168.718 255.602,167.711 254.490 C 167.271 254.003,167.149 253.999,165.993 254.434 C 165.309 254.692,163.943 254.923,162.957 254.947 C 161.467 254.984,160.621 255.252,157.940 256.533 C 154.916 257.979,153.836 258.207,153.854 257.399 C 153.858 257.211,154.362 256.829,154.974 256.551 C 155.586 256.272,157.095 255.582,158.327 255.018 C 159.559 254.454,161.105 253.755,161.763 253.464 C 163.601 252.652,163.963 251.611,162.695 250.781 C 161.942 250.287,161.253 250.528,154.485 253.652 C 153.441 254.135,152.432 254.506,152.245 254.477 C 152.058 254.448,151.663 254.529,151.369 254.657 C 150.386 255.086,150.411 254.492,151.412 253.617 C 152.146 252.977,152.352 252.598,152.210 252.150 C 152.053 251.654,152.329 251.352,153.754 250.463 C 154.708 249.868,156.469 248.722,157.667 247.917 C 158.865 247.111,159.953 246.453,160.085 246.453 C 160.217 246.453,160.569 246.184,160.866 245.855 C 161.164 245.527,161.519 245.258,161.656 245.258 C 161.794 245.258,162.882 244.631,164.075 243.865 C 165.768 242.777,166.538 242.463,167.588 242.430 C 168.395 242.406,169.554 242.067,170.490 241.583 C 171.348 241.139,172.307 240.777,172.623 240.777 C 173.342 240.777,180.152 238.285,184.298 236.505 C 187.959 234.933,189.912 233.577,190.739 232.033 C 191.376 230.845,193.324 229.455,195.639 228.537 C 198.156 227.539,207.168 223.022,207.916 222.384 C 208.163 222.174,209.147 221.470,210.104 220.821 C 212.160 219.428,217.793 214.464,219.973 212.125 C 220.818 211.219,222.352 209.605,223.383 208.539 C 225.845 205.992,226.523 204.773,228.278 199.736 C 229.810 195.339,229.791 195.480,229.655 189.843 C 229.601 187.571,226.884 179.998,225.098 177.142 C 223.883 175.197,220.862 170.988,219.286 169.042 C 218.061 167.529,214.801 162.928,214.040 161.639 C 210.427 155.509,208.535 153.608,207.508 155.075 C 206.935 155.893,207.014 156.076,209.594 159.969 C 211.917 163.471,212.071 164.442,210.052 162.843 C 208.752 161.814,206.115 158.861,205.572 157.826 C 205.019 156.773,202.878 155.523,199.827 154.471 C 197.153 153.550,196.806 153.330,194.305 150.980 C 191.644 148.479,189.993 147.721,189.624 148.829 C 189.245 149.965,183.231 146.686,180.119 143.647 C 177.712 141.296,176.911 140.702,176.149 140.702 C 175.837 140.702,175.002 140.097,174.294 139.358 C 172.994 138.002,172.189 137.714,171.531 138.372 C 170.850 139.053,171.168 140.220,172.367 141.439 C 174.467 143.577,172.426 142.606,169.444 140.050 C 168.330 139.094,167.713 139.002,166.965 139.679 C 166.491 140.108,166.286 140.106,164.662 139.650 C 163.307 139.270,162.732 139.228,162.266 139.478 C 161.438 139.920,161.225 139.895,160.549 139.272 C 155.028 134.185,150.387 131.370,149.482 132.562 C 148.748 133.529,149.030 134.083,150.905 135.356 C 153.485 137.108,153.846 137.459,153.846 138.212 C 153.846 139.439,153.367 139.188,150.561 136.489 C 147.390 133.439,146.028 132.975,145.842 134.880 C 145.764 135.670,146.119 136.139,148.757 138.735 C 152.436 142.355,152.377 142.616,148.509 139.834 C 145.714 137.825,144.191 136.660,140.019 133.339 C 138.458 132.097,138.174 131.979,137.102 132.123 C 136.118 132.254,135.858 132.178,135.589 131.676 C 135.313 131.160,135.070 131.096,133.957 131.249 L 132.648 131.428 131.009 128.970 C 130.107 127.618,128.928 125.889,128.389 125.128 C 124.816 120.083,124.921 120.284,125.089 118.794 C 125.238 117.469,125.765 116.802,125.765 117.939 C 125.765 118.235,125.877 118.604,126.012 118.760 C 126.148 118.916,126.440 119.621,126.662 120.326 C 127.105 121.738,128.271 123.188,128.816 123.006 C 130.464 122.457,130.390 120.685,128.459 114.414 C 128.130 113.346,127.860 112.438,127.859 112.397 C 127.858 112.356,128.172 112.323,128.557 112.323 C 130.489 112.323,130.456 108.631,128.481 103.809 C 127.807 102.162,126.150 96.790,126.319 96.797 C 126.425 96.801,127.093 97.337,127.803 97.988 C 131.492 101.368,133.824 100.248,132.959 95.513 C 132.742 94.325,132.460 92.681,132.334 91.860 C 132.085 90.244,131.602 88.641,128.443 78.945 C 127.307 75.457,126.062 72.096,125.676 71.477 C 125.291 70.858,124.348 68.817,123.581 66.942 C 121.667 62.263,121.077 61.722,119.362 63.071 C 118.328 63.884,118.134 63.675,117.356 60.918 C 116.484 57.824,115.823 56.951,114.533 57.193 C 113.620 57.364,113.520 57.309,113.360 56.547 C 112.448 52.202,111.446 49.290,110.503 48.245 C 109.700 47.355,109.543 46.718,109.183 42.885 C 108.581 36.479,106.004 34.251,104.538 38.869 L 104.027 40.478 103.837 39.432 C 103.733 38.857,103.591 37.916,103.521 37.341 C 103.377 36.160,103.057 34.084,102.188 28.678 C 101.857 26.624,101.514 24.003,101.425 22.853 C 101.337 21.703,101.183 20.190,101.084 19.492 C 100.873 18.014,100.962 17.966,102.045 18.969 M362.687 38.628 C 362.450 38.864,362.360 38.787,362.360 38.347 C 362.360 37.557,362.778 37.138,362.911 37.794 C 362.967 38.073,362.866 38.448,362.687 38.628 M274.570 80.119 C 274.290 80.875,273.637 81.206,273.637 80.592 C 273.637 80.147,274.210 79.462,274.583 79.462 C 274.710 79.462,274.703 79.758,274.570 80.119 M306.896 93.355 C 305.641 95.756,303.684 98.880,303.433 98.880 C 302.982 98.880,303.525 97.088,304.453 95.514 C 306.243 92.479,308.306 90.655,306.896 93.355 M129.965 94.892 C 130.393 96.017,130.208 96.246,129.378 95.617 C 128.916 95.267,128.726 94.899,128.846 94.586 C 129.124 93.861,129.625 93.998,129.965 94.892 M164.302 95.444 C 164.302 95.691,164.175 95.892,164.021 95.892 C 163.644 95.892,163.374 95.426,163.613 95.187 C 163.949 94.851,164.302 94.982,164.302 95.444 M191.726 111.545 C 192.586 111.990,193.834 113.219,193.426 113.219 C 192.972 113.219,190.590 111.702,190.590 111.414 C 190.590 111.031,190.772 111.052,191.726 111.545 M138.013 138.024 C 138.013 138.513,137.579 138.343,137.175 137.697 C 136.821 137.129,136.838 137.107,137.402 137.409 C 137.738 137.589,138.013 137.865,138.013 138.024 M108.488 139.377 C 109.986 139.962,111.428 140.700,111.693 141.017 C 112.001 141.386,113.342 141.887,115.437 142.417 C 118.732 143.249,118.751 143.847,115.459 143.115 C 108.131 141.486,107.244 141.544,107.244 143.652 C 107.244 144.378,107.514 144.560,109.297 145.033 L 110.680 145.399 109.557 145.624 C 108.207 145.893,107.749 146.943,108.579 147.861 C 109.244 148.595,109.060 149.547,108.278 149.419 C 107.956 149.366,106.902 149.176,105.936 148.998 C 104.464 148.725,104.030 148.750,103.248 149.153 C 102.708 149.430,101.681 149.615,100.809 149.592 C 98.753 149.537,97.403 151.322,99.029 151.946 C 99.841 152.257,99.497 152.593,98.397 152.561 C 97.697 152.542,97.186 152.710,96.945 153.039 C 96.556 153.572,95.318 153.724,94.832 153.299 C 93.843 152.433,89.375 151.986,88.550 152.671 C 87.669 153.402,88.496 155.046,89.740 155.036 C 90.775 155.027,94.996 156.047,94.996 156.306 C 94.996 156.438,94.694 156.478,94.324 156.394 C 87.860 154.932,86.279 154.970,86.091 156.592 C 85.963 157.694,89.794 159.193,94.698 159.958 C 97.569 160.406,97.240 160.200,97.516 161.725 L 97.726 162.882 96.381 162.680 C 94.917 162.461,93.801 162.906,93.801 163.709 C 93.801 163.961,93.230 164.433,92.532 164.758 C 91.444 165.263,91.274 165.464,91.347 166.159 L 91.431 166.971 86.054 166.785 L 80.678 166.598 80.369 167.411 C 79.801 168.906,80.415 169.380,82.919 169.380 C 84.734 169.380,84.839 169.418,84.839 170.081 C 84.839 171.232,85.705 171.742,87.763 171.804 C 89.658 171.861,89.918 172.023,89.229 172.720 C 88.524 173.433,88.417 174.170,88.910 174.922 C 89.365 175.616,89.358 175.653,88.774 175.653 C 88.099 175.653,87.229 176.688,87.229 177.492 C 87.229 177.773,86.960 178.088,86.632 178.193 C 85.414 178.579,85.970 180.508,87.379 180.785 C 87.844 180.877,87.955 181.098,87.879 181.786 C 87.760 182.866,87.830 182.800,86.673 182.934 C 85.371 183.086,84.503 183.912,84.723 184.790 C 84.824 185.194,84.699 185.761,84.420 186.159 C 83.530 187.429,84.447 188.798,86.187 188.798 C 86.451 188.798,86.584 188.932,86.482 189.096 C 86.381 189.261,85.921 189.395,85.460 189.395 C 83.648 189.395,82.764 190.741,83.473 192.416 C 83.636 192.800,83.416 192.946,82.391 193.134 C 81.684 193.263,81.038 193.391,80.956 193.417 C 80.874 193.444,80.067 193.631,79.164 193.833 C 75.360 194.684,73.786 195.427,73.786 196.373 C 73.786 197.931,74.666 198.067,78.101 197.040 C 80.421 196.347,86.799 195.068,87.926 195.070 C 89.192 195.072,88.080 195.847,86.309 196.196 C 83.160 196.818,79.655 197.505,78.960 197.637 C 78.098 197.800,77.295 198.630,77.503 199.142 C 77.595 199.368,77.751 199.754,77.851 200.000 C 77.969 200.291,77.859 200.448,77.539 200.448 C 76.590 200.448,75.589 201.788,75.839 202.723 C 76.127 203.797,76.826 203.975,80.034 203.789 C 82.360 203.655,82.533 203.684,82.343 204.179 C 82.015 205.034,82.915 206.124,83.950 206.124 C 84.439 206.124,84.839 206.258,84.839 206.423 C 84.839 206.587,84.643 206.721,84.402 206.721 C 83.079 206.721,82.998 209.215,84.299 209.888 C 85.465 210.491,85.272 210.687,81.898 212.332 C 78.876 213.805,77.936 215.938,80.063 216.494 C 80.505 216.610,80.657 216.902,80.657 217.640 C 80.657 218.616,81.825 219.866,82.737 219.866 C 83.365 219.866,82.731 220.455,81.461 221.055 C 80.772 221.380,79.470 222.167,78.566 222.804 L 76.923 223.962 76.936 225.573 C 76.944 226.630,76.807 227.271,76.537 227.437 C 76.206 227.641,76.257 227.829,76.798 228.405 C 77.377 229.022,77.422 229.226,77.122 229.884 C 76.930 230.304,76.774 231.037,76.774 231.512 C 76.774 231.988,76.639 232.460,76.475 232.562 C 76.049 232.825,76.105 233.607,76.550 233.607 C 76.929 233.607,76.986 233.924,77.154 236.952 C 77.317 239.887,78.720 240.699,81.459 239.445 L 83.112 238.689 82.903 239.807 C 82.273 243.182,82.699 244.302,84.740 244.634 C 85.779 244.803,85.892 244.915,86.061 245.954 C 86.163 246.579,86.447 247.292,86.694 247.539 C 87.093 247.938,87.044 248.086,86.253 248.877 C 84.209 250.920,86.561 253.970,89.239 252.749 C 89.755 252.514,90.108 252.498,90.309 252.699 C 90.750 253.139,90.082 253.813,88.988 254.032 C 85.347 254.760,83.053 257.788,84.734 259.645 C 85.194 260.154,85.175 260.239,84.435 260.979 C 83.051 262.363,83.904 265.571,85.656 265.571 C 85.841 265.571,86.210 265.790,86.477 266.057 C 86.925 266.504,87.015 266.493,87.641 265.905 C 88.403 265.189,88.723 265.331,88.723 266.388 C 88.723 267.945,90.162 269.156,92.014 269.156 C 93.153 269.156,94.100 269.629,94.100 270.198 C 94.100 271.577,95.630 273.040,97.073 273.040 C 97.715 273.040,97.896 273.471,97.386 273.786 C 96.229 274.501,97.976 277.819,99.509 277.819 C 100.265 277.819,100.220 278.380,99.381 279.429 L 98.691 280.292 99.340 280.941 C 99.714 281.315,100.077 282.171,100.195 282.957 C 100.309 283.719,100.658 284.556,100.984 284.851 C 101.689 285.490,101.724 286.127,101.103 287.013 C 100.665 287.639,100.676 287.677,101.288 287.677 C 101.645 287.677,102.397 288.081,102.958 288.574 C 103.520 289.066,104.169 289.470,104.402 289.470 C 104.634 289.470,104.940 289.677,105.082 289.929 C 105.313 290.343,105.428 290.343,106.217 289.931 C 106.700 289.679,107.296 289.473,107.543 289.472 C 107.789 289.471,109.066 289.136,110.381 288.727 C 113.381 287.795,112.997 287.734,114.589 289.395 C 115.939 290.803,115.965 290.814,117.945 290.836 C 121.992 290.881,122.041 290.890,121.473 291.518 C 121.041 291.995,121.030 292.122,121.397 292.426 C 121.632 292.621,121.906 293.111,122.008 293.515 C 122.151 294.086,122.387 294.249,123.069 294.249 C 123.551 294.249,124.283 294.403,124.696 294.592 C 125.323 294.877,125.823 294.797,127.705 294.111 C 129.179 293.573,130.193 293.362,130.627 293.503 C 130.993 293.621,132.903 293.764,134.872 293.821 C 136.969 293.882,138.495 294.052,138.555 294.232 C 139.202 296.172,142.331 298.239,144.199 297.959 C 145.539 297.758,145.568 297.770,145.382 298.466 C 145.277 298.858,145.188 299.515,145.184 299.925 C 145.173 301.205,141.899 303.124,140.874 302.452 C 139.771 301.729,138.720 302.100,136.950 303.836 L 135.438 305.319 134.411 304.572 C 132.879 303.458,132.073 303.178,130.980 303.383 C 130.046 303.558,129.283 303.977,124.296 307.053 C 121.981 308.481,121.369 308.489,121.090 307.095 C 120.726 305.272,118.643 304.504,117.082 305.616 C 116.368 306.124,116.110 306.168,115.566 305.877 L 114.911 305.527 115.594 305.161 C 116.255 304.807,116.240 304.789,115.155 304.613 C 114.537 304.512,113.807 304.550,113.533 304.697 C 112.358 305.325,110.413 304.833,110.156 303.841 C 109.539 301.459,107.862 301.518,103.089 304.092 C 99.800 305.866,99.205 305.993,99.183 304.929 C 99.173 304.443,98.461 304.761,96.841 305.975 C 93.390 308.559,92.222 308.847,90.832 307.457 C 90.176 306.801,89.892 306.690,89.492 306.934 C 89.022 307.222,87.908 306.368,87.485 305.397 C 87.278 304.921,85.102 303.458,84.229 303.208 C 83.504 303.000,82.961 303.145,81.228 304.012 C 79.120 305.067,79.109 305.069,78.138 304.546 C 77.266 304.076,76.700 304.055,75.312 304.440 C 75.049 304.513,74.798 304.197,74.632 303.589 C 74.357 302.579,73.150 301.718,72.009 301.718 C 71.507 301.718,71.397 301.527,71.397 300.658 C 71.397 299.339,70.226 298.133,68.945 298.133 C 68.441 298.133,68.153 298.007,68.260 297.834 C 68.700 297.122,67.738 297.657,65.687 299.264 C 61.677 302.407,61.590 302.454,60.509 302.063 C 59.336 301.639,58.241 301.623,57.207 302.016 C 56.519 302.278,56.327 302.203,55.667 301.419 C 54.738 300.315,53.480 300.237,51.571 301.164 C 50.186 301.837,49.405 301.766,49.088 300.939 C 48.880 300.399,49.672 299.662,51.309 298.871 C 54.546 297.309,54.207 293.801,50.820 293.801 C 49.814 293.801,49.180 293.608,48.544 293.108 C 47.850 292.562,47.447 292.456,46.638 292.608 L 45.612 292.800 47.414 290.833 C 49.822 288.206,50.117 286.409,48.347 285.168 C 46.991 284.219,45.758 284.615,44.609 286.369 C 44.248 286.921,44.036 287.007,43.604 286.775 C 43.303 286.614,42.790 286.482,42.465 286.482 C 41.941 286.482,41.910 286.388,42.193 285.639 C 42.705 284.281,42.260 283.366,40.329 281.808 C 38.195 280.086,37.996 279.625,38.813 278.302 C 41.050 274.683,38.013 273.090,33.419 275.472 C 31.714 276.356,30.942 276.604,30.354 276.457 C 29.113 276.145,29.149 275.818,30.580 274.408 C 32.605 272.412,33.970 269.508,33.128 268.987 C 32.981 268.896,32.860 268.555,32.860 268.229 C 32.860 267.902,32.524 267.299,32.114 266.888 C 31.234 266.009,31.214 265.837,31.848 264.611 C 32.113 264.099,32.356 263.295,32.388 262.824 C 32.428 262.249,32.798 261.679,33.516 261.087 C 35.229 259.676,35.183 257.533,33.421 256.590 C 32.474 256.083,32.878 254.173,34.292 252.464 C 35.587 250.902,37.039 248.790,37.041 248.469 C 37.042 248.346,36.188 248.245,35.144 248.245 C 32.170 248.245,30.670 246.215,32.117 244.149 C 32.700 243.316,32.304 243.057,30.552 243.123 C 27.971 243.221,30.066 240.008,33.368 238.803 C 36.258 237.750,36.989 236.600,35.990 234.683 C 35.741 234.207,35.574 233.787,35.618 233.749 C 35.662 233.712,36.553 233.240,37.599 232.701 C 42.179 230.336,41.661 226.448,36.819 226.848 C 35.452 226.961,34.653 226.917,34.653 226.728 C 34.653 226.177,32.724 225.245,31.516 225.213 L 30.321 225.181 31.815 224.683 C 33.982 223.959,34.599 223.545,35.109 222.469 C 35.360 221.941,35.768 221.173,36.015 220.762 C 36.281 220.321,36.408 219.616,36.325 219.042 C 36.203 218.205,36.303 218.007,37.043 217.625 C 39.751 216.224,39.169 213.129,36.120 212.723 C 34.998 212.573,34.787 212.436,34.703 211.800 C 34.648 211.389,34.185 210.616,33.673 210.082 C 33.071 209.454,32.896 209.107,33.175 209.101 C 34.701 209.063,36.063 206.575,35.343 205.142 C 34.815 204.091,35.396 203.203,38.312 200.609 C 40.874 198.329,37.753 195.601,33.159 196.104 C 31.047 196.335,31.626 195.779,34.735 194.592 C 36.266 194.007,36.947 193.567,37.304 192.935 C 37.641 192.337,38.154 191.984,38.984 191.778 C 41.777 191.086,42.635 189.821,41.678 187.805 C 41.212 186.824,41.210 186.680,41.646 186.057 C 41.907 185.684,42.121 185.072,42.121 184.698 C 42.121 184.278,42.301 184.018,42.592 184.018 C 43.515 184.018,44.863 182.310,44.757 181.275 C 44.664 180.363,44.721 180.308,46.127 179.949 C 47.648 179.561,48.680 178.789,48.804 177.949 C 48.843 177.681,49.439 176.941,50.128 176.305 C 51.416 175.116,51.873 173.278,51.079 172.483 C 50.278 171.682,51.506 169.847,53.054 169.530 C 55.584 169.011,57.058 167.809,57.058 166.265 C 57.058 166.042,57.651 165.717,58.408 165.526 C 62.198 164.572,61.735 161.063,57.625 159.603 C 55.529 158.858,55.802 158.626,58.775 158.624 C 63.130 158.621,64.712 157.799,65.038 155.369 C 65.182 154.290,65.295 154.145,65.984 154.143 C 69.521 154.136,71.141 151.487,69.001 149.210 L 68.384 148.553 70.375 148.393 C 72.798 148.198,73.825 147.400,73.874 145.671 C 73.911 144.382,74.354 144.284,75.402 145.332 C 76.902 146.832,77.831 146.466,82.425 142.569 C 83.441 141.706,84.523 141.001,84.828 141.001 C 85.134 141.001,85.722 140.599,86.135 140.108 C 86.827 139.285,87.027 139.219,88.681 139.265 C 89.712 139.293,90.660 139.161,90.909 138.955 C 91.217 138.700,92.277 138.645,94.588 138.766 C 96.373 138.860,98.977 138.814,100.373 138.665 C 104.931 138.178,105.561 138.233,108.488 139.377 M113.779 145.967 C 114.292 146.070,114.712 146.282,114.712 146.439 C 114.712 146.746,113.075 146.483,112.323 146.054 C 111.749 145.727,112.389 145.689,113.779 145.967 M120.836 148.170 C 120.938 148.335,120.819 148.469,120.573 148.469 C 120.327 148.469,120.042 148.335,119.940 148.170 C 119.839 148.006,119.957 147.872,120.204 147.872 C 120.450 147.872,120.735 148.006,120.836 148.170 M345.168 149.016 C 344.169 149.891,341.093 152.054,340.848 152.054 C 339.992 152.054,340.612 150.602,341.673 150.122 C 342.289 149.843,343.196 149.428,343.689 149.198 C 344.684 148.736,345.620 148.620,345.168 149.016 M104.688 153.811 C 106.685 154.517,107.668 155.196,106.024 154.733 C 103.714 154.083,100.090 152.736,100.242 152.584 C 100.416 152.409,101.824 152.798,104.688 153.811 M174.309 159.829 C 175.750 160.127,181.000 161.304,181.628 161.471 C 182.978 161.829,184.361 162.495,185.960 163.558 C 187.927 164.866,188.983 165.402,191.546 166.391 C 195.331 167.851,204.393 177.961,204.769 181.142 C 204.888 182.149,205.027 183.308,205.079 183.719 C 205.130 184.130,205.260 185.810,205.367 187.453 C 205.475 189.096,205.617 190.606,205.683 190.809 C 206.040 191.908,203.255 196.914,200.017 200.991 C 198.642 202.723,198.443 202.865,197.608 202.708 C 196.847 202.565,196.378 202.775,194.764 203.982 C 192.522 205.657,187.294 209.267,186.856 209.441 C 186.692 209.506,185.280 210.319,183.719 211.248 C 182.158 212.176,180.276 213.094,179.537 213.286 C 178.798 213.479,176.848 214.093,175.205 214.650 C 168.911 216.787,166.936 216.594,160.020 213.162 C 151.969 209.168,149.508 207.153,146.813 202.352 C 146.037 200.968,145.289 199.767,145.151 199.681 C 143.883 198.898,141.735 189.320,141.773 184.615 C 141.799 181.299,142.193 180.077,144.419 176.400 C 144.816 175.743,145.370 174.802,145.648 174.309 C 146.647 172.541,149.032 169.515,150.005 168.783 C 152.011 167.272,154.185 165.809,157.132 163.987 C 158.364 163.225,160.583 161.841,162.061 160.912 L 164.750 159.222 168.932 159.403 C 171.232 159.502,173.652 159.694,174.309 159.829 M178.193 168.976 C 175.121 169.547,173.995 169.905,171.970 170.951 C 162.620 175.784,161.004 185.798,168.139 194.702 C 171.941 199.447,173.316 200.186,178.473 200.260 C 183.552 200.332,189.570 195.824,191.183 190.739 C 191.392 190.082,191.680 189.236,191.823 188.858 C 192.673 186.620,191.865 178.695,190.463 175.526 C 188.531 171.158,182.829 168.114,178.193 168.976 M296.032 170.500 C 296.027 170.624,295.570 171.175,295.017 171.725 C 294.071 172.666,292.756 175.431,292.756 176.478 C 292.756 176.738,292.401 177.835,291.967 178.916 C 290.913 181.542,290.821 184.778,291.747 186.632 C 292.409 187.955,292.084 188.403,291.205 187.379 C 288.723 184.482,288.190 173.401,290.443 171.532 C 291.354 170.775,296.057 169.907,296.032 170.500 M181.434 172.963 C 181.574 173.095,180.957 173.416,180.065 173.676 C 178.518 174.125,174.459 177.303,174.459 178.064 C 174.459 178.210,173.921 179.038,173.265 179.904 C 170.808 183.143,170.434 187.590,172.315 191.179 C 173.160 192.790,173.211 193.019,172.766 193.190 C 171.505 193.673,169.403 189.268,168.788 184.852 C 168.064 179.656,169.257 176.890,173.562 173.779 C 175.171 172.617,180.489 172.065,181.434 172.963 M346.094 188.177 C 345.845 188.579,342.147 189.758,341.528 189.633 C 341.238 189.574,342.076 189.170,343.391 188.734 C 346.089 187.840,346.333 187.790,346.094 188.177 M248.955 198.884 C 248.639 199.091,248.159 200.662,248.115 201.635 C 248.103 201.916,247.722 202.105,247.059 202.159 C 245.557 202.282,245.348 202.678,245.149 205.770 C 244.942 208.997,244.911 209.076,243.947 208.892 C 242.707 208.655,242.500 209.553,242.546 214.969 L 242.588 219.849 241.351 223.517 C 240.012 227.489,239.062 230.057,237.896 232.860 C 237.079 234.823,236.983 235.047,235.865 237.574 C 235.445 238.524,235.101 239.379,235.101 239.474 C 235.101 240.977,232.664 245.333,230.777 247.201 C 229.615 248.352,227.869 250.503,226.898 251.981 C 225.926 253.459,224.502 255.483,223.732 256.479 C 220.436 260.746,220.257 263.575,223.206 264.806 C 223.915 265.102,224.789 265.480,225.148 265.647 C 225.584 265.849,227.064 265.853,229.622 265.660 C 233.332 265.378,233.498 265.392,235.244 266.104 C 236.233 266.508,237.962 267.095,239.085 267.408 C 243.443 268.623,248.502 272.055,249.724 274.626 C 250.319 275.876,251.306 277.667,252.806 280.218 C 253.786 281.885,255.265 285.389,256.080 287.976 C 256.416 289.044,256.792 290.052,256.915 290.217 C 257.037 290.381,257.231 290.951,257.345 291.483 C 257.458 292.015,257.900 292.724,258.327 293.059 C 258.925 293.530,259.154 294.056,259.332 295.366 C 260.009 300.356,261.953 301.108,265.440 297.729 C 266.482 296.719,268.047 295.217,268.918 294.392 C 271.468 291.975,274.832 287.431,274.832 286.402 C 274.832 286.184,274.954 285.877,275.103 285.721 C 276.079 284.698,278.056 275.737,278.335 271.074 C 278.848 262.497,278.411 251.818,277.471 249.971 C 277.327 249.687,277.074 248.141,276.909 246.535 C 276.480 242.370,276.414 241.969,275.557 238.276 C 275.133 236.447,274.540 233.876,274.240 232.562 C 273.674 230.085,272.986 228.130,272.138 226.587 C 271.866 226.094,271.556 225.336,271.449 224.903 C 271.341 224.469,270.785 223.288,270.214 222.277 C 269.437 220.902,269.219 220.223,269.348 219.576 C 269.757 217.533,266.145 212.688,261.063 208.465 C 259.650 207.290,257.433 205.486,256.460 204.721 C 256.131 204.462,255.096 203.592,254.158 202.788 C 252.730 201.563,252.324 201.359,251.652 201.527 C 250.872 201.723,250.856 201.701,251.050 200.670 C 251.335 199.148,250.126 198.119,248.955 198.884 M256.947 221.272 C 257.215 221.672,257.707 222.191,258.040 222.424 C 258.374 222.658,259.096 223.543,259.645 224.390 C 260.193 225.238,261.008 226.482,261.454 227.155 C 263.342 230.000,265.870 235.765,265.870 237.224 C 265.870 238.043,267.052 239.283,267.833 239.283 C 268.232 239.283,268.559 239.326,268.559 239.379 C 268.559 239.432,268.892 241.738,269.300 244.503 C 270.458 252.359,270.648 254.980,270.693 263.779 C 270.735 271.943,270.630 273.254,269.556 277.969 C 269.294 279.119,269.052 280.261,269.019 280.508 C 268.738 282.600,268.169 283.516,267.860 282.375 C 267.517 281.110,267.750 277.063,268.195 276.551 C 270.055 274.413,266.145 255.869,262.182 248.028 C 260.903 245.500,260.879 245.352,261.752 245.383 C 262.942 245.426,263.333 244.037,262.559 242.519 C 261.193 239.843,260.231 236.194,261.292 237.715 C 261.774 238.406,262.713 238.580,263.449 238.114 C 264.421 237.498,262.673 232.657,259.555 227.325 C 258.549 225.605,257.539 223.842,257.311 223.407 C 257.082 222.973,256.697 222.452,256.454 222.250 C 256.211 222.049,256.012 221.772,256.012 221.636 C 256.012 221.500,255.600 220.779,255.096 220.033 C 254.593 219.287,254.268 218.535,254.374 218.364 C 254.549 218.080,255.627 219.299,256.947 221.272 M78.865 227.334 C 78.865 227.498,78.663 227.633,78.417 227.633 C 78.170 227.633,77.969 227.498,77.969 227.334 C 77.969 227.170,78.170 227.035,78.417 227.035 C 78.663 227.035,78.865 227.170,78.865 227.334 M353.393 314.679 C 353.527 315.026,354.144 316.654,354.764 318.297 C 355.384 319.940,356.184 321.957,356.542 322.778 C 356.900 323.600,357.763 325.751,358.460 327.558 C 359.157 329.365,359.849 331.113,359.997 331.441 C 360.146 331.770,361.069 334.257,362.050 336.968 C 364.058 342.520,364.885 344.680,368.336 353.398 C 369.670 356.766,371.362 361.202,372.097 363.256 C 372.832 365.310,373.692 367.595,374.008 368.335 C 374.324 369.074,375.204 371.292,375.964 373.264 C 378.763 380.528,379.431 382.239,379.698 382.823 C 379.848 383.152,380.430 384.698,380.992 386.258 C 381.554 387.819,382.384 390.073,382.836 391.267 C 383.289 392.461,383.606 393.485,383.540 393.544 C 383.400 393.668,373.858 394.601,371.023 394.768 C 369.955 394.830,368.208 394.974,367.140 395.086 C 362.900 395.532,362.888 395.529,362.154 394.025 C 361.216 392.102,357.612 383.967,356.993 382.375 C 356.705 381.636,356.132 380.291,355.720 379.388 C 355.308 378.484,354.728 377.093,354.432 376.296 C 354.135 375.500,353.710 374.778,353.488 374.693 C 353.127 374.555,344.193 375.232,339.507 375.753 L 337.715 375.952 337.173 378.342 C 336.876 379.656,336.473 381.270,336.278 381.927 C 336.084 382.584,335.913 383.189,335.899 383.271 C 335.870 383.443,335.764 383.888,334.547 388.947 C 333.801 392.046,332.761 396.176,332.309 397.834 C 332.240 398.087,331.507 398.213,330.032 398.223 C 327.358 398.243,324.706 398.452,322.928 398.782 C 322.188 398.920,320.709 399.052,319.642 399.076 C 318.574 399.100,316.306 399.257,314.602 399.424 C 312.898 399.592,311.441 399.666,311.364 399.589 C 311.162 399.387,312.820 390.947,314.862 381.777 C 315.173 380.381,315.511 378.701,315.613 378.043 C 315.715 377.386,316.061 375.639,316.382 374.160 C 316.704 372.681,317.091 370.799,317.242 369.978 C 317.394 369.156,317.666 367.812,317.847 366.990 C 318.027 366.169,318.361 364.556,318.588 363.406 C 319.984 356.349,320.245 355.079,320.507 354.069 C 320.667 353.454,320.864 352.547,320.945 352.054 C 321.026 351.561,321.237 350.485,321.414 349.664 C 321.591 348.842,321.878 347.364,322.050 346.378 C 322.223 345.392,322.620 343.510,322.933 342.196 C 323.482 339.884,324.295 335.935,325.178 331.292 C 325.413 330.060,325.749 328.379,325.926 327.558 C 326.104 326.736,326.364 325.459,326.504 324.720 C 328.244 315.587,328.111 315.871,330.765 315.639 C 340.632 314.778,346.786 314.270,349.040 314.132 C 350.504 314.043,351.755 313.916,351.820 313.851 C 352.117 313.554,353.174 314.111,353.393 314.679 M278.716 320.612 C 278.716 320.818,278.842 322.397,278.996 324.122 C 279.150 325.848,279.350 328.200,279.439 329.350 C 279.791 333.867,280.530 342.423,280.948 346.826 C 281.319 350.734,281.795 356.314,282.452 364.451 C 282.791 368.660,283.643 378.671,283.934 381.874 C 284.066 383.331,283.773 383.236,287.229 382.944 C 288.872 382.805,292.208 382.555,294.643 382.389 C 297.077 382.223,299.160 382.030,299.273 381.961 C 299.385 381.891,300.903 381.743,302.646 381.632 L 305.815 381.429 306.007 382.387 C 306.112 382.914,306.203 384.304,306.208 385.474 C 306.213 386.645,306.349 388.611,306.511 389.843 C 306.672 391.075,306.871 393.025,306.952 394.175 C 307.033 395.325,307.176 397.098,307.268 398.115 L 307.437 399.965 306.445 400.117 C 305.899 400.201,304.444 400.345,303.211 400.438 C 301.979 400.530,298.753 400.800,296.042 401.038 C 293.331 401.275,289.567 401.555,287.677 401.659 C 285.788 401.764,284.164 401.898,284.068 401.957 C 283.973 402.016,282.695 402.140,281.230 402.232 C 279.765 402.324,276.120 402.616,273.129 402.880 C 266.050 403.507,266.733 404.200,266.316 395.967 C 266.250 394.653,266.057 392.099,265.889 390.291 C 265.720 388.484,265.372 384.518,265.115 381.479 C 264.858 378.439,264.456 373.869,264.221 371.322 C 263.986 368.775,263.714 365.549,263.617 364.152 C 263.520 362.756,263.379 361.075,263.304 360.418 C 263.230 359.761,263.040 357.018,262.882 354.322 C 262.724 351.627,262.536 349.207,262.464 348.945 C 262.391 348.683,262.251 347.326,262.152 345.930 C 262.053 344.533,261.844 341.845,261.688 339.955 C 261.532 338.066,261.327 335.444,261.232 334.130 C 261.138 332.816,261.009 331.337,260.946 330.844 C 260.883 330.351,260.754 328.603,260.659 326.960 C 260.563 325.317,260.414 323.418,260.327 322.739 C 260.141 321.296,260.221 321.267,264.675 321.147 C 266.072 321.110,268.693 320.907,270.500 320.695 C 275.018 320.167,278.715 320.130,278.716 320.612 M230.824 324.058 C 231.206 324.300,231.861 330.193,232.557 339.656 C 232.856 343.709,234.418 362.620,234.951 368.633 C 235.031 369.537,235.158 371.016,235.234 371.919 C 235.310 372.823,235.506 374.907,235.668 376.550 C 235.831 378.193,236.047 380.747,236.148 382.226 C 236.349 385.174,236.543 386.904,236.689 387.050 C 236.784 387.145,245.131 386.506,250.934 385.960 C 252.659 385.797,255.008 385.630,256.155 385.588 L 258.239 385.512 258.442 386.706 C 258.554 387.364,258.797 389.851,258.982 392.233 C 259.167 394.615,259.383 397.170,259.463 397.909 C 259.952 402.431,259.976 403.871,259.564 404.008 C 259.336 404.083,257.872 404.214,256.311 404.298 C 254.750 404.382,252.532 404.588,251.382 404.755 C 250.232 404.922,248.296 405.063,247.080 405.069 C 245.864 405.074,243.108 405.272,240.956 405.508 C 238.803 405.744,234.152 406.160,230.620 406.432 C 227.087 406.704,223.189 407.029,221.957 407.153 C 219.364 407.415,219.279 407.354,219.273 405.241 C 219.270 404.426,219.073 401.738,218.835 399.266 C 217.979 390.385,217.705 387.241,217.442 383.271 C 217.294 381.053,217.119 378.768,217.051 378.193 C 216.984 377.618,216.848 375.803,216.749 374.160 C 216.650 372.517,216.445 369.963,216.293 368.484 C 216.141 367.005,215.937 364.653,215.840 363.256 C 215.744 361.860,215.537 359.440,215.382 357.879 C 215.095 354.999,214.351 346.256,214.021 341.897 C 213.921 340.583,213.796 339.104,213.743 338.611 C 213.689 338.118,213.557 336.303,213.447 334.578 C 213.338 332.853,213.124 330.369,212.972 329.059 C 212.506 325.035,212.095 325.464,216.804 325.052 C 219.063 324.855,222.726 324.561,224.944 324.400 C 228.446 324.145,229.683 324.023,230.321 323.869 C 230.403 323.849,230.630 323.934,230.824 324.058 M208.383 326.775 C 208.138 327.248,207.747 328.156,207.514 328.792 C 207.280 329.427,206.391 331.494,205.537 333.383 C 204.684 335.273,203.811 337.293,203.597 337.874 C 203.384 338.455,202.782 339.866,202.261 341.011 C 201.739 342.155,201.202 343.361,201.067 343.689 C 200.932 344.018,200.402 345.191,199.888 346.297 C 199.375 347.403,198.954 348.386,198.954 348.482 C 198.954 348.578,198.602 349.421,198.172 350.355 C 197.139 352.596,195.564 356.240,194.292 359.332 C 193.727 360.707,193.066 362.114,192.823 362.461 C 192.581 362.807,192.382 363.273,192.382 363.495 C 192.382 363.718,191.898 364.908,191.306 366.139 L 190.229 368.377 190.572 372.464 C 190.761 374.711,191.107 378.701,191.341 381.329 C 191.575 383.958,191.839 387.184,191.927 388.499 C 192.015 389.813,192.359 394.048,192.691 397.909 C 193.686 409.494,193.689 409.559,193.229 409.559 C 192.640 409.559,182.234 410.438,179.238 410.741 C 176.342 411.033,176.074 410.917,175.992 409.340 C 175.959 408.721,175.875 407.745,175.804 407.170 C 175.733 406.594,175.538 404.242,175.371 401.942 C 175.203 399.642,174.935 396.415,174.773 394.772 C 174.612 393.129,174.403 390.709,174.308 389.395 C 174.213 388.081,174.011 385.728,173.859 384.167 C 173.707 382.606,173.355 378.708,173.075 375.504 C 172.582 369.846,172.540 369.636,171.608 368.185 C 170.524 366.498,167.630 361.874,164.879 357.431 C 163.861 355.788,162.732 353.973,162.370 353.398 C 160.726 350.786,158.481 347.204,155.756 342.845 C 154.131 340.244,152.035 336.924,151.099 335.467 C 149.469 332.929,148.469 331.185,148.469 330.880 C 148.469 330.713,149.751 330.574,156.833 329.972 C 167.088 329.100,169.343 329.054,169.602 329.713 C 169.726 330.031,170.407 331.222,171.114 332.360 C 172.617 334.777,175.814 340.076,178.262 344.207 C 180.200 347.477,180.221 347.494,180.728 346.154 C 180.930 345.620,181.536 344.108,182.075 342.793 C 182.614 341.479,183.152 340.067,183.271 339.656 C 183.390 339.246,183.663 338.506,183.877 338.013 C 184.261 337.133,186.409 331.612,187.451 328.827 C 187.744 328.047,188.065 327.408,188.166 327.408 C 188.267 327.408,189.761 327.282,191.486 327.128 C 193.211 326.973,195.765 326.759,197.162 326.650 C 198.559 326.541,200.642 326.351,201.792 326.228 C 202.942 326.104,204.996 325.983,206.356 325.959 L 208.828 325.915 208.383 326.775 M121.135 333.836 C 130.608 335.249,137.312 340.167,142.177 349.272 L 143.716 352.153 142.732 352.863 C 140.557 354.431,139.139 355.393,134.134 358.691 C 131.262 360.585,128.775 362.186,128.608 362.249 C 128.441 362.312,127.936 361.657,127.484 360.793 C 121.310 348.975,108.099 349.662,104.092 362.011 C 103.394 364.161,103.576 368.857,104.887 382.524 C 106.489 399.211,124.251 403.184,129.973 388.135 C 130.320 387.220,130.632 387.263,133.397 388.611 C 134.704 389.247,136.109 389.869,136.520 389.994 C 136.931 390.118,138.006 390.596,138.910 391.057 C 139.813 391.518,141.964 392.516,143.689 393.274 C 147.297 394.861,147.428 394.957,147.021 395.708 C 146.855 396.015,146.087 397.543,145.315 399.104 C 140.813 408.208,133.045 413.911,123.336 415.241 C 121.970 415.428,120.760 415.639,120.645 415.709 C 119.287 416.548,108.704 415.508,105.302 414.202 C 104.317 413.823,103.295 413.442,103.031 413.355 C 100.742 412.598,95.543 408.235,93.262 405.155 C 89.563 400.162,86.687 391.251,86.198 383.271 C 86.102 381.710,85.897 379.223,85.743 377.745 C 84.096 362.008,85.272 354.492,90.671 346.229 C 96.640 337.092,109.070 332.035,121.135 333.836 M59.298 339.523 C 60.284 339.782,61.494 340.099,61.987 340.228 C 67.631 341.705,73.000 346.610,75.691 352.749 C 77.053 355.855,77.720 355.194,68.827 359.546 C 59.967 363.880,61.103 363.552,60.395 361.987 C 57.742 356.119,50.984 353.806,47.168 357.462 C 43.503 360.971,47.085 366.263,55.564 369.868 C 74.215 377.796,82.087 386.768,82.134 400.149 C 82.170 410.609,70.901 419.985,57.356 420.766 C 57.110 420.780,56.165 420.897,55.256 421.027 C 50.927 421.644,43.244 420.036,39.097 417.645 C 37.938 416.977,36.921 416.430,36.836 416.430 C 35.673 416.430,30.571 410.688,29.035 407.651 C 27.371 404.362,27.359 404.388,31.516 402.242 C 33.488 401.224,37.176 399.298,39.713 397.962 C 42.249 396.625,44.341 395.563,44.362 395.600 C 45.843 398.325,49.241 401.601,51.613 402.593 C 54.779 403.916,59.400 401.563,59.875 398.387 C 60.529 394.014,58.468 392.222,44.810 385.284 C 31.497 378.521,27.200 374.095,25.455 365.347 C 23.346 354.770,30.888 343.437,41.972 340.529 C 42.465 340.400,43.674 340.067,44.660 339.790 C 48.504 338.711,55.709 338.579,59.298 339.523 M367.140 406.187 C 368.208 406.439,369.417 406.818,369.828 407.030 C 370.239 407.242,371.314 407.780,372.218 408.224 C 376.306 410.237,381.644 417.034,380.810 419.165 C 380.665 419.535,368.366 425.837,368.188 425.632 C 368.145 425.582,367.818 424.965,367.463 424.259 C 364.242 417.874,354.320 418.136,355.770 424.568 C 356.280 426.826,358.579 428.551,365.795 432.090 C 374.277 436.249,377.085 438.129,380.169 441.714 C 384.306 446.522,386.443 453.646,385.266 458.702 C 384.814 460.641,384.415 461.833,384.167 461.987 C 384.012 462.083,383.653 462.660,383.370 463.269 C 382.542 465.051,379.409 467.831,376.338 469.508 C 363.398 476.574,347.766 473.198,341.788 462.048 L 340.485 459.616 341.159 459.158 C 344.210 457.090,354.446 452.238,354.732 452.725 C 357.311 457.114,361.452 459.324,364.348 457.857 C 368.362 455.823,368.248 451.687,364.104 448.940 C 361.415 447.158,360.909 446.877,354.675 443.702 C 342.453 437.478,338.837 433.114,338.707 424.430 C 338.519 411.893,352.711 402.787,367.140 406.187 M306.945 411.066 C 307.767 411.198,308.977 411.458,309.634 411.644 C 310.291 411.830,311.232 412.088,311.725 412.217 C 320.168 414.422,328.271 423.637,330.799 433.906 C 332.192 439.561,332.827 452.910,331.783 454.598 C 331.694 454.742,331.414 455.859,331.162 457.079 C 329.875 463.297,325.807 469.423,320.687 472.854 C 315.552 476.295,311.123 477.552,301.609 478.266 C 299.167 478.450,296.075 478.726,294.738 478.880 C 293.401 479.033,291.689 479.160,290.932 479.161 L 289.556 479.164 289.369 477.147 C 289.266 476.038,289.125 474.593,289.055 473.936 C 288.985 473.279,288.837 471.329,288.726 469.604 C 288.615 467.879,288.409 465.594,288.268 464.526 C 288.126 463.458,287.928 461.173,287.826 459.447 C 287.725 457.722,287.524 455.302,287.380 454.070 C 287.236 452.838,287.036 450.620,286.936 449.141 C 286.836 447.662,286.629 445.176,286.475 443.615 C 286.321 442.054,286.117 439.567,286.021 438.088 C 285.926 436.609,285.803 434.929,285.749 434.354 C 285.695 433.779,285.567 432.233,285.466 430.919 C 285.188 427.305,284.387 417.823,284.103 414.787 C 283.800 411.552,283.408 411.944,287.285 411.602 C 289.062 411.446,292.397 411.134,294.698 410.909 C 298.795 410.508,303.857 410.573,306.945 411.066 M266.169 414.731 C 274.731 417.604,279.093 424.757,279.136 435.997 C 279.166 443.590,275.367 450.902,270.130 453.333 C 268.568 454.058,268.563 454.267,270.055 456.464 C 270.714 457.434,271.386 458.536,271.550 458.912 C 271.714 459.289,272.592 460.739,273.501 462.136 C 274.410 463.532,276.207 466.423,277.493 468.559 C 278.780 470.695,280.797 474.039,281.974 475.990 C 283.152 477.942,284.039 479.616,283.944 479.710 C 283.850 479.804,281.764 479.988,279.309 480.117 C 276.853 480.247,274.338 480.462,273.718 480.596 C 273.098 480.730,271.260 480.832,269.632 480.823 L 266.673 480.807 266.175 479.910 C 265.539 478.767,261.843 471.692,258.770 465.734 C 256.687 461.694,255.294 459.664,255.816 461.428 C 255.980 461.984,256.159 463.845,256.459 468.111 C 256.545 469.343,256.679 471.023,256.755 471.845 C 256.831 472.666,256.960 474.212,257.041 475.280 C 257.121 476.348,257.270 478.264,257.372 479.537 C 257.540 481.641,257.506 481.856,257.008 481.899 C 256.707 481.925,256.124 481.975,255.713 482.011 C 255.302 482.047,253.689 482.227,252.128 482.411 C 250.568 482.596,249.022 482.730,248.693 482.709 C 248.364 482.689,246.785 482.768,245.183 482.886 C 242.846 483.057,242.270 483.020,242.267 482.699 C 242.263 482.086,241.709 475.487,241.382 472.143 C 241.221 470.500,241.017 467.962,240.927 466.504 C 240.838 465.045,240.713 463.768,240.650 463.666 C 240.586 463.563,240.449 461.800,240.343 459.746 C 240.238 457.692,240.022 454.937,239.864 453.622 C 239.705 452.308,239.504 450.022,239.416 448.544 C 239.328 447.065,239.134 444.645,238.984 443.167 C 238.835 441.688,238.633 439.335,238.536 437.939 C 238.439 436.542,238.234 434.190,238.080 432.711 C 237.926 431.232,237.725 428.678,237.634 427.035 C 237.543 425.392,237.402 423.510,237.321 422.853 C 236.474 415.967,236.547 415.625,238.885 415.582 C 240.551 415.552,247.943 414.923,253.323 414.354 C 257.037 413.962,264.531 414.181,266.169 414.731 M213.742 418.529 C 216.152 419.141,217.348 419.504,218.268 419.904 C 218.785 420.129,219.304 420.314,219.421 420.314 C 219.538 420.314,220.778 421.005,222.177 421.850 C 229.127 426.048,233.500 433.050,234.208 441.116 C 234.360 442.839,234.619 445.619,234.785 447.293 C 236.067 460.235,235.973 463.535,234.157 469.273 C 230.745 480.058,217.361 487.823,206.273 485.452 C 205.452 485.277,204.376 485.055,203.883 484.959 C 203.391 484.863,202.584 484.605,202.091 484.385 C 201.597 484.165,200.548 483.709,199.758 483.370 C 190.683 479.480,186.194 472.058,184.929 458.850 C 183.252 441.353,183.299 439.648,185.611 433.906 C 189.957 423.116,203.228 415.861,213.742 418.529 M160.423 423.408 C 166.238 424.982,170.721 428.076,173.687 432.562 C 175.164 434.797,176.554 437.445,176.541 438.004 C 176.535 438.299,165.304 446.111,164.259 446.547 C 164.134 446.599,163.635 445.860,163.150 444.904 C 158.404 435.558,147.293 436.257,144.274 446.093 C 143.642 448.152,143.628 448.426,143.962 452.427 C 145.140 466.533,145.236 467.165,146.538 469.494 C 150.918 477.326,161.440 476.945,164.953 468.826 C 165.733 467.023,166.129 466.881,167.846 467.789 C 168.443 468.104,169.671 468.696,170.575 469.104 C 171.479 469.512,173.092 470.243,174.160 470.728 C 175.228 471.214,176.606 471.791,177.222 472.012 C 177.838 472.232,178.342 472.520,178.342 472.651 C 178.342 472.783,178.536 472.890,178.773 472.890 C 179.871 472.890,179.677 473.662,177.534 477.819 C 175.303 482.147,171.784 485.409,166.433 488.112 C 160.272 491.223,147.510 491.177,142.494 488.025 C 141.919 487.663,141.077 487.178,140.622 486.946 C 135.462 484.318,130.578 474.739,129.647 465.422 C 129.458 463.532,129.250 461.583,129.185 461.090 C 129.119 460.597,128.983 458.917,128.882 457.356 C 128.781 455.795,128.602 453.319,128.485 451.853 C 127.460 439.072,134.700 427.127,145.332 424.054 C 149.847 422.750,156.877 422.449,160.423 423.408 M120.565 426.306 C 120.604 426.707,120.714 427.909,120.809 428.977 C 120.903 430.045,121.036 431.456,121.105 432.114 C 121.212 433.144,121.690 439.625,121.722 440.478 C 121.734 440.818,119.670 441.083,114.712 441.378 C 112.823 441.491,111.210 441.623,111.128 441.673 C 111.046 441.723,109.500 441.849,107.692 441.953 C 105.885 442.058,103.936 442.203,103.361 442.274 C 102.786 442.346,101.240 442.482,99.925 442.577 C 95.304 442.912,95.604 442.395,96.211 448.974 C 96.663 453.882,96.653 453.846,97.621 453.648 C 98.067 453.557,100.246 453.342,102.465 453.172 C 107.488 452.785,109.051 452.650,112.621 452.294 C 116.116 451.945,115.743 451.345,116.322 458.252 C 116.591 461.456,116.885 464.771,116.975 465.617 C 117.181 467.558,117.308 467.494,112.545 467.829 C 110.369 467.982,108.185 468.161,107.692 468.227 C 107.199 468.293,105.250 468.433,103.361 468.538 C 101.471 468.644,99.480 468.809,98.935 468.905 L 97.944 469.081 98.139 470.911 C 98.246 471.917,98.423 474.287,98.532 476.176 L 98.730 479.612 99.627 479.596 C 100.724 479.577,104.776 479.256,110.530 478.733 C 112.913 478.516,115.063 478.342,115.310 478.346 C 115.735 478.352,118.048 478.157,122.031 477.778 C 123.017 477.684,123.897 477.563,123.987 477.509 C 124.564 477.162,124.882 478.222,125.160 481.415 C 125.332 483.381,125.537 485.728,125.618 486.632 C 125.698 487.535,125.849 489.298,125.954 490.548 L 126.143 492.822 123.938 493.004 C 122.725 493.105,121.060 493.248,120.239 493.322 C 119.417 493.396,117.603 493.540,116.206 493.641 C 113.748 493.819,107.597 494.364,100.822 495.002 C 99.014 495.172,95.923 495.382,93.952 495.468 C 91.981 495.553,89.830 495.748,89.172 495.900 C 88.514 496.052,87.270 496.180,86.408 496.184 L 84.839 496.191 84.788 495.071 C 84.723 493.633,84.692 493.332,84.444 491.710 C 84.332 490.971,84.040 487.946,83.797 484.989 C 83.283 478.731,82.842 473.485,82.618 470.948 C 82.530 469.963,82.322 467.072,82.154 464.526 C 81.987 461.979,81.784 459.604,81.702 459.249 C 81.621 458.893,81.484 457.481,81.398 456.112 C 81.245 453.665,80.622 446.207,80.055 440.030 C 79.174 430.432,79.154 428.841,79.910 428.782 C 80.239 428.756,81.718 428.647,83.196 428.540 C 84.675 428.433,88.910 428.081,92.606 427.759 C 96.303 427.436,101.815 426.975,104.854 426.732 C 107.894 426.490,110.784 426.228,111.277 426.151 C 111.770 426.074,113.854 425.925,115.907 425.820 C 117.961 425.715,119.700 425.573,119.772 425.504 C 120.081 425.210,120.498 425.631,120.565 426.306 M62.811 432.244 C 77.334 437.774,78.839 463.440,65.056 470.530 L 63.943 471.103 64.728 472.519 C 65.161 473.298,66.770 475.914,68.306 478.331 C 69.841 480.748,71.098 482.794,71.098 482.876 C 71.098 482.959,71.957 484.342,73.008 485.949 C 74.059 487.557,75.283 489.544,75.729 490.366 C 76.175 491.187,76.838 492.330,77.204 492.905 C 79.064 495.835,79.462 496.487,79.462 496.598 C 79.462 496.664,78.286 496.808,76.848 496.919 C 75.411 497.029,72.084 497.309,69.455 497.540 C 66.826 497.771,64.094 497.995,63.385 498.037 L 62.095 498.113 59.850 493.792 C 58.616 491.415,56.922 488.193,56.086 486.632 C 55.250 485.071,54.376 483.391,54.143 482.898 C 53.910 482.405,53.389 481.397,52.984 480.657 C 52.580 479.918,52.108 478.943,51.935 478.491 C 51.506 477.366,51.092 477.457,51.250 478.641 C 51.466 480.262,52.262 490.171,52.431 493.353 C 52.519 494.996,52.663 496.912,52.751 497.610 C 52.868 498.532,52.805 498.888,52.520 498.910 C 51.389 498.998,49.542 499.162,47.946 499.317 C 46.960 499.413,45.213 499.556,44.063 499.634 C 42.913 499.713,41.210 499.850,40.279 499.938 C 37.989 500.155,38.155 500.674,37.213 490.366 C 36.606 483.741,36.425 482.061,36.290 481.844 C 36.230 481.745,36.032 479.388,35.852 476.605 C 35.671 473.823,35.254 468.723,34.925 465.273 C 34.298 458.703,33.765 452.769,32.993 443.764 C 31.938 431.446,31.811 432.836,34.003 432.731 C 35.995 432.636,42.847 431.999,47.050 431.518 C 53.548 430.774,59.694 431.057,62.811 432.244 M375.382 486.533 C 375.270 487.629,375.043 488.738,374.878 488.998 C 374.578 489.467,374.746 486.750,375.111 485.213 C 375.431 483.863,375.581 484.592,375.382 486.533 " stroke="none" fill="#000000" fill-rule="evenodd"></path></g></svg>