<svg id="svg" xmlns="http://www.w3.org/2000/svg" xmlns:xlink="http://www.w3.org/1999/xlink" width="400" height="398.4" viewBox="0, 0, 400,398.4"><g id="svgg"><path id="path0" d="M191.600 0.805 C 189.840 1.191,185.880 1.541,182.800 1.583 C 176.633 1.665,163.695 3.378,159.000 4.734 C 157.350 5.210,154.830 5.937,153.400 6.349 C 151.970 6.762,147.020 8.151,142.400 9.436 C 137.780 10.722,131.688 12.725,128.862 13.887 C 126.036 15.049,123.336 16.007,122.862 16.015 C 121.955 16.031,114.242 19.834,107.782 23.451 C 100.612 27.465,86.810 37.068,78.912 43.538 C 74.574 47.092,69.895 50.817,68.513 51.815 C 63.064 55.753,60.487 58.077,59.174 60.236 C 58.419 61.476,54.596 66.161,50.678 70.646 C 46.760 75.131,41.876 80.960,39.826 83.600 C 37.776 86.240,33.811 91.287,31.014 94.816 C 23.796 103.925,21.407 107.555,17.855 114.812 C 16.135 118.325,14.336 121.920,13.857 122.800 C 13.378 123.680,12.623 125.300,12.179 126.400 C 9.516 132.995,8.000 137.101,8.000 137.715 C 8.000 138.102,7.323 139.944,6.495 141.809 C 3.918 147.614,3.346 149.810,2.801 156.000 C 2.510 159.300,1.922 164.880,1.494 168.400 C 0.267 178.491,-0.284 226.019,0.766 231.200 C 1.257 233.620,1.770 236.701,1.906 238.046 C 2.261 241.547,6.779 256.481,7.936 257.980 C 8.284 258.431,9.008 260.600,9.545 262.800 C 10.083 265.000,11.610 269.140,12.939 272.000 C 14.269 274.860,16.267 279.720,17.378 282.800 C 22.284 296.391,39.780 323.103,50.388 333.200 C 52.238 334.960,54.063 337.198,54.445 338.173 C 54.827 339.149,56.684 341.059,58.570 342.419 C 63.978 346.318,66.251 348.059,72.840 353.353 C 78.485 357.888,87.130 363.392,99.600 370.389 C 102.240 371.870,106.442 374.453,108.937 376.128 C 116.599 381.272,125.311 384.781,142.400 389.609 C 154.365 392.989,173.116 395.667,192.800 396.805 C 200.060 397.226,208.995 397.809,212.654 398.103 C 222.232 398.870,232.211 396.970,250.800 390.836 C 256.520 388.949,263.180 387.139,265.600 386.814 C 280.029 384.877,301.171 374.207,318.669 360.031 C 321.677 357.594,325.476 354.700,327.110 353.600 C 338.668 345.820,349.411 335.770,353.244 329.150 C 355.679 324.945,359.151 319.807,364.135 313.034 C 365.821 310.743,367.200 308.368,367.200 307.757 C 367.200 307.145,369.230 303.620,371.710 299.922 C 378.814 289.334,384.860 276.251,385.626 269.811 C 386.250 264.566,388.443 255.508,390.766 248.580 C 392.131 244.511,394.709 233.554,395.985 226.400 C 396.495 223.540,397.084 220.480,397.293 219.600 C 400.983 204.051,399.747 175.982,394.353 152.800 C 393.380 148.620,392.407 144.120,392.191 142.800 C 391.976 141.480,391.534 140.040,391.210 139.600 C 390.886 139.160,390.367 137.720,390.056 136.400 C 389.410 133.651,388.273 131.147,379.158 112.400 C 375.521 104.920,370.983 96.508,369.073 93.707 C 367.163 90.906,365.599 87.846,365.598 86.907 C 365.593 81.095,346.435 58.094,342.771 59.500 C 341.305 60.063,341.309 60.066,326.800 47.884 C 313.477 36.699,295.424 24.000,292.845 24.000 C 292.469 24.000,289.875 22.557,287.080 20.793 C 280.622 16.716,258.219 5.606,254.455 4.614 C 245.682 2.301,240.417 1.437,233.600 1.193 C 209.318 0.324,194.416 0.186,191.600 0.805 M224.000 10.062 C 244.344 12.974,247.919 13.621,248.455 14.488 C 248.697 14.880,249.598 15.200,250.458 15.200 C 251.318 15.200,252.647 15.543,253.411 15.962 C 254.175 16.381,257.140 17.485,260.000 18.415 C 262.860 19.344,265.920 20.393,266.800 20.745 C 267.680 21.098,269.300 21.748,270.400 22.192 C 275.772 24.356,280.922 27.094,286.164 30.574 C 289.334 32.678,292.140 34.400,292.400 34.400 C 294.521 34.400,317.373 51.824,328.074 61.600 C 340.999 73.408,344.545 77.145,351.992 86.800 C 354.367 89.880,358.115 94.740,360.320 97.600 C 362.525 100.460,364.975 103.498,365.765 104.351 C 366.554 105.204,367.201 106.464,367.203 107.151 C 367.205 107.838,368.015 109.638,369.003 111.151 C 373.108 117.436,374.494 119.811,376.397 123.824 C 377.499 126.147,378.400 128.402,378.400 128.835 C 378.400 129.267,378.716 130.247,379.102 131.011 C 379.488 131.775,380.232 133.840,380.755 135.600 C 381.278 137.360,381.998 139.520,382.355 140.400 C 385.860 149.038,390.726 200.149,388.868 208.800 C 388.443 210.780,387.699 215.280,387.215 218.800 C 386.007 227.587,383.936 237.221,382.400 241.200 C 381.820 242.703,380.718 246.634,379.596 251.200 C 379.070 253.343,376.461 263.100,375.532 266.400 C 375.222 267.500,374.697 268.760,374.364 269.200 C 374.031 269.640,372.802 272.880,371.633 276.400 C 369.405 283.108,364.102 294.610,363.027 295.067 C 362.682 295.213,362.400 295.688,362.400 296.123 C 362.400 296.557,361.320 298.481,360.000 300.400 C 358.680 302.319,357.600 304.453,357.600 305.144 C 357.600 305.835,357.240 306.400,356.800 306.400 C 356.360 306.400,356.000 306.785,356.000 307.256 C 356.000 309.483,340.640 328.800,338.869 328.800 C 338.342 328.800,333.950 332.702,329.110 337.471 C 324.269 342.241,317.630 348.000,314.355 350.270 C 311.080 352.540,306.600 355.674,304.400 357.235 C 302.200 358.795,299.140 360.631,297.600 361.315 C 296.060 361.999,291.560 364.100,287.600 365.984 C 272.945 372.958,263.690 376.957,258.000 378.773 C 255.800 379.476,253.375 380.399,252.611 380.825 C 251.847 381.251,250.569 381.600,249.771 381.600 C 248.973 381.600,247.978 381.897,247.560 382.261 C 246.628 383.072,241.979 384.374,235.600 385.612 C 232.960 386.125,229.180 386.863,227.200 387.253 C 214.252 389.803,165.029 387.266,148.800 383.212 C 146.820 382.717,143.760 382.022,142.000 381.668 C 134.439 380.144,124.963 376.467,117.400 372.123 C 113.031 369.614,108.839 367.276,105.200 365.320 C 103.440 364.374,101.820 363.401,101.600 363.158 C 101.380 362.915,99.925 362.124,98.366 361.399 C 94.085 359.410,77.717 346.845,70.000 339.624 C 68.240 337.978,65.000 335.275,62.800 333.620 C 58.603 330.461,55.825 327.578,51.217 321.600 C 49.690 319.620,48.228 317.820,47.968 317.600 C 47.177 316.932,42.400 309.746,42.400 309.225 C 42.400 308.958,40.319 305.602,37.775 301.769 C 35.232 297.936,32.312 293.000,31.288 290.800 C 30.263 288.600,29.104 286.175,28.712 285.411 C 28.321 284.647,28.000 283.532,28.000 282.934 C 28.000 282.335,27.495 280.801,26.877 279.523 C 26.259 278.245,24.999 275.490,24.077 273.400 C 23.155 271.310,21.630 267.890,20.688 265.800 C 18.808 261.629,17.829 258.761,16.726 254.200 C 16.327 252.550,15.620 249.670,15.156 247.800 C 13.468 240.997,12.675 237.127,12.246 233.600 C 12.005 231.620,11.385 229.395,10.868 228.656 C 9.255 226.350,11.101 163.175,12.878 159.854 C 13.275 159.112,13.600 157.037,13.600 155.242 C 13.600 153.447,13.952 151.353,14.383 150.589 C 15.392 148.798,18.400 139.265,18.400 137.857 C 18.400 137.264,18.714 136.153,19.098 135.389 C 19.482 134.625,22.438 128.600,25.666 122.000 C 28.895 115.400,31.758 109.820,32.028 109.600 C 32.299 109.380,34.096 106.860,36.021 104.000 C 37.947 101.140,40.170 98.102,40.961 97.249 C 41.752 96.396,42.400 95.385,42.400 95.002 C 42.400 94.393,46.828 88.282,48.053 87.200 C 48.302 86.980,49.626 85.153,50.995 83.141 C 53.279 79.782,69.898 63.599,73.892 60.844 C 74.831 60.196,76.081 59.195,76.669 58.621 C 77.257 58.046,79.057 56.613,80.669 55.436 C 82.281 54.260,84.946 52.036,86.592 50.494 C 88.238 48.952,92.378 46.011,95.792 43.959 C 99.206 41.906,102.720 39.136,103.600 37.804 C 104.480 36.472,106.280 34.859,107.600 34.218 C 108.920 33.578,111.980 31.990,114.400 30.689 C 116.820 29.388,120.960 27.490,123.600 26.471 C 126.240 25.452,129.480 24.146,130.800 23.568 C 133.206 22.516,139.311 20.449,152.000 16.391 C 163.371 12.754,171.684 11.397,190.800 10.057 C 210.512 8.676,214.315 8.676,224.000 10.062 M172.400 19.637 C 157.146 22.254,146.695 25.301,135.780 30.312 C 132.799 31.680,130.012 32.800,129.587 32.800 C 125.344 32.800,100.581 47.068,85.943 57.947 C 79.830 62.491,55.240 86.200,51.069 91.573 C 49.349 93.788,45.982 98.120,43.586 101.200 C 41.190 104.280,38.508 108.316,37.626 110.168 C 36.744 112.021,34.660 115.801,32.995 118.568 C 30.307 123.036,28.977 125.786,25.145 134.800 C 21.143 144.214,20.556 146.356,20.322 152.400 C 20.060 159.184,18.799 169.485,17.581 174.800 C 13.300 193.481,15.720 239.535,21.890 256.800 C 22.598 258.780,23.182 260.945,23.188 261.612 C 23.207 263.524,27.664 272.176,32.019 278.751 C 34.208 282.057,36.000 284.970,36.000 285.224 C 36.000 285.478,37.571 288.096,39.491 291.043 C 41.411 293.989,43.900 298.217,45.023 300.439 C 48.141 306.610,55.812 316.530,64.319 325.393 C 68.544 329.795,72.000 333.741,72.000 334.163 C 72.000 334.585,73.890 336.154,76.200 337.648 C 78.510 339.143,82.560 342.191,85.200 344.421 C 89.608 348.144,91.985 349.712,103.600 356.555 C 108.390 359.377,127.834 368.800,128.867 368.800 C 129.268 368.800,132.206 370.183,135.398 371.874 C 138.589 373.565,142.460 375.207,144.000 375.522 C 147.770 376.293,154.640 377.525,160.000 378.390 C 162.420 378.781,167.776 379.698,171.903 380.429 C 179.903 381.845,199.859 381.672,211.600 380.084 C 214.680 379.668,220.080 378.947,223.600 378.482 C 227.120 378.018,231.260 377.293,232.800 376.873 C 235.548 376.122,236.777 375.809,242.400 374.422 C 247.957 373.052,252.431 371.806,254.000 371.190 C 258.122 369.572,260.707 368.875,264.400 368.389 C 266.600 368.099,269.480 367.392,270.800 366.818 C 272.120 366.245,274.693 365.213,276.518 364.527 C 278.343 363.840,282.797 361.641,286.415 359.639 C 290.034 357.638,293.221 355.998,293.497 355.997 C 293.774 355.995,295.960 354.507,298.357 352.690 C 300.753 350.874,303.993 348.857,305.557 348.209 C 307.120 347.561,310.380 345.159,312.800 342.871 C 315.220 340.583,319.225 337.223,321.700 335.404 C 337.435 323.841,367.995 280.396,370.605 265.880 C 370.830 264.626,371.823 261.440,372.812 258.800 C 377.866 245.299,380.320 225.658,381.260 191.200 C 381.682 175.727,381.631 175.023,378.458 152.400 C 377.726 147.187,377.102 145.342,373.540 137.877 C 372.248 135.169,371.396 132.420,371.646 131.769 C 372.749 128.894,363.947 113.816,356.088 105.119 C 349.409 97.727,344.808 92.139,338.881 84.216 C 329.068 71.102,304.266 48.233,294.390 43.195 C 292.695 42.330,291.078 41.250,290.796 40.794 C 290.176 39.790,282.370 35.794,276.599 33.525 C 274.289 32.618,271.320 31.384,270.000 30.784 C 266.755 29.308,257.606 26.400,256.209 26.400 C 255.589 26.400,252.319 25.455,248.941 24.299 C 245.563 23.144,239.920 21.862,236.400 21.450 C 232.880 21.039,227.660 20.351,224.800 19.921 C 215.874 18.580,179.702 18.384,172.400 19.637 M195.840 25.760 C 197.956 27.876,197.076 42.879,194.708 45.075 L 192.616 47.015 194.508 49.573 C 196.039 51.642,196.501 53.529,196.928 59.465 C 197.219 63.499,197.711 70.220,198.021 74.400 C 198.332 78.580,199.066 82.769,199.652 83.708 C 201.133 86.085,200.503 86.400,194.267 86.400 C 188.444 86.400,187.502 85.472,189.586 81.789 C 190.480 80.210,192.988 69.022,192.856 67.200 C 192.808 66.540,192.594 63.120,192.380 59.600 C 192.166 56.080,191.744 52.300,191.442 51.200 C 191.140 50.100,190.857 48.660,190.813 48.000 C 190.476 42.894,186.485 34.705,182.456 30.850 C 180.115 28.611,179.376 26.491,180.533 25.333 C 181.498 24.369,194.820 24.740,195.840 25.760 M220.121 26.462 C 223.795 26.885,230.400 27.574,234.800 27.994 C 252.366 29.671,254.193 30.767,250.806 37.600 C 250.261 38.700,249.364 41.580,248.814 44.000 C 248.264 46.420,246.556 52.540,245.020 57.600 C 243.484 62.660,241.756 68.420,241.179 70.400 C 240.206 73.741,235.160 86.065,233.647 88.800 C 232.810 90.312,228.878 90.046,221.015 87.945 C 217.786 87.083,212.630 86.400,209.348 86.400 C 202.580 86.400,202.026 86.115,203.730 83.514 C 204.607 82.175,204.818 80.721,204.443 78.606 C 204.150 76.953,203.716 72.270,203.478 68.200 C 203.015 60.269,203.473 59.422,206.847 61.975 C 208.842 63.484,211.924 63.529,212.489 62.057 C 212.975 60.791,207.871 53.934,204.048 50.717 C 201.436 48.520,201.191 47.211,202.118 40.441 C 202.917 34.612,204.093 34.927,212.393 43.193 C 219.021 49.793,220.079 50.554,221.974 50.078 C 225.243 49.258,224.284 46.641,219.200 42.509 C 209.529 34.649,204.430 23.713,211.121 25.183 C 212.398 25.463,216.448 26.039,220.121 26.462 M168.800 28.879 C 168.800 29.363,168.302 30.893,167.694 32.279 C 167.085 33.666,166.142 35.970,165.597 37.400 C 164.339 40.701,163.318 57.100,164.140 60.800 C 164.482 62.340,164.776 66.120,164.793 69.200 C 164.836 76.856,167.346 83.396,171.336 86.245 C 174.412 88.442,172.956 89.455,161.355 93.191 C 155.060 95.218,148.328 97.924,146.395 99.203 C 140.994 102.779,139.015 99.884,135.631 83.463 C 134.558 78.258,133.155 72.200,132.513 70.000 C 131.474 66.440,130.652 60.284,129.234 45.455 C 128.613 38.971,133.205 35.996,148.400 33.034 C 149.720 32.776,151.675 31.989,152.744 31.283 C 156.600 28.739,168.800 26.912,168.800 28.879 M262.615 34.432 C 264.947 35.132,269.810 37.337,280.400 42.496 C 283.920 44.210,287.090 45.610,287.444 45.607 C 288.981 45.591,301.733 54.840,308.384 60.795 C 320.084 71.271,335.288 88.179,334.087 89.379 C 333.791 89.676,331.935 89.487,329.963 88.959 C 312.565 84.306,300.999 93.944,308.446 106.890 C 313.981 116.513,304.222 126.912,294.018 122.263 C 290.245 120.544,291.229 112.800,295.221 112.800 C 296.891 112.800,297.346 113.968,296.000 114.800 C 294.944 115.453,294.967 118.400,296.028 118.400 C 301.292 118.400,303.455 108.218,298.540 106.580 C 294.543 105.248,290.196 108.713,286.500 116.178 C 285.144 118.917,284.459 118.940,281.076 116.359 C 277.450 113.594,277.639 112.837,283.296 107.457 C 301.502 90.141,307.483 68.780,296.975 58.600 C 287.768 49.680,272.506 63.821,267.618 85.800 C 265.945 93.322,264.676 93.744,258.687 88.774 C 253.897 84.798,252.026 84.286,247.004 85.573 C 242.347 86.767,240.547 85.870,242.220 83.191 C 242.759 82.328,243.200 81.072,243.200 80.400 C 243.200 79.728,243.530 78.553,243.934 77.789 C 244.571 76.585,248.422 67.216,250.507 61.800 C 250.888 60.810,251.524 59.190,251.919 58.200 C 254.624 51.432,257.783 38.209,257.113 36.463 C 256.331 34.425,257.417 32.554,259.007 33.200 C 259.773 33.512,261.397 34.066,262.615 34.432 M176.400 35.200 C 176.672 35.640,177.941 36.000,179.219 36.000 C 184.777 36.000,190.597 63.295,186.640 70.800 C 185.750 72.488,184.670 75.833,183.247 81.308 C 181.031 89.837,173.539 84.511,172.040 73.342 C 169.352 53.315,172.200 28.404,176.400 35.200 M176.266 45.260 C 176.000 45.953,176.218 47.974,176.751 49.751 C 177.492 52.225,177.501 53.509,176.788 55.228 C 175.898 57.379,175.942 59.006,177.259 72.642 C 177.775 77.983,178.795 78.731,180.579 75.075 C 181.311 73.576,181.364 71.355,180.789 66.295 C 180.293 61.932,180.296 58.559,180.796 56.815 C 181.498 54.368,181.348 50.802,180.334 45.800 C 179.908 43.695,177.014 43.311,176.266 45.260 M121.996 46.386 C 122.273 47.259,122.802 51.129,123.172 54.986 C 123.542 58.844,124.211 63.394,124.660 65.097 C 126.668 72.724,118.223 71.905,105.365 63.227 C 101.552 60.654,98.049 60.075,97.348 61.903 C 96.925 63.006,98.164 64.800,99.351 64.800 C 99.698 64.800,100.716 65.430,101.614 66.200 C 104.600 68.762,117.683 75.759,125.000 78.709 C 126.884 79.468,128.000 80.446,128.000 81.337 C 128.000 83.450,131.293 93.617,132.952 96.624 C 133.749 98.068,134.400 99.778,134.400 100.424 C 134.400 101.071,134.760 101.600,135.200 101.600 C 138.855 101.600,135.935 105.422,127.376 111.836 C 119.122 118.022,118.894 118.008,114.000 111.014 C 111.800 107.870,104.150 99.435,97.000 92.269 C 82.307 77.543,82.448 77.865,88.339 72.414 C 93.135 67.977,94.696 64.380,92.518 62.787 C 90.218 61.105,91.701 59.953,107.200 51.383 C 109.180 50.288,111.340 48.974,112.000 48.462 C 113.956 46.945,118.589 44.994,120.546 44.863 C 121.066 44.828,121.719 45.514,121.996 46.386 M290.109 62.795 C 291.369 63.452,293.184 63.992,294.143 63.995 C 295.803 64.000,298.432 65.903,298.372 67.057 C 298.330 67.844,296.253 75.979,295.361 78.847 C 294.219 82.517,292.061 86.428,289.207 90.000 C 287.801 91.760,285.283 95.450,283.611 98.200 C 279.485 104.989,270.872 107.740,272.368 101.790 C 272.671 100.586,273.207 97.260,273.560 94.400 C 274.130 89.778,275.582 84.372,277.535 79.600 C 277.895 78.720,278.995 75.480,279.978 72.400 C 283.000 62.937,285.619 60.454,290.109 62.795 M88.844 65.518 C 87.882 67.315,81.848 72.800,80.833 72.800 C 80.413 72.800,77.444 75.444,74.235 78.675 C 68.634 84.315,65.886 86.400,64.053 86.400 C 62.249 86.400,63.359 84.810,67.400 81.604 C 69.710 79.771,73.940 76.036,76.800 73.305 C 86.242 64.287,91.228 61.063,88.844 65.518 M84.918 90.545 C 87.713 93.704,92.298 98.474,95.107 101.145 C 111.529 116.756,114.721 121.860,110.556 125.850 C 107.412 128.863,104.800 128.750,104.800 125.600 C 104.800 123.786,104.434 123.200,103.298 123.200 C 100.709 123.200,99.737 125.261,100.257 129.650 C 100.629 132.790,100.390 134.282,99.166 136.460 C 98.305 137.994,97.600 140.318,97.600 141.624 C 97.600 144.653,96.348 144.653,92.343 141.622 C 90.614 140.314,88.891 139.234,88.514 139.222 C 87.777 139.198,78.238 134.907,75.600 133.412 C 74.720 132.914,73.010 132.006,71.800 131.394 C 68.814 129.886,69.081 128.001,72.630 125.544 C 77.100 122.450,80.362 117.372,79.235 115.266 C 77.983 112.925,76.996 113.188,75.722 116.200 C 74.498 119.096,66.308 127.200,64.605 127.200 C 64.005 127.200,59.783 124.994,55.223 122.298 L 46.931 117.396 50.866 113.929 C 53.030 112.022,55.069 110.448,55.398 110.431 C 56.937 110.352,62.644 104.176,64.070 101.047 C 66.734 95.198,63.968 93.793,60.958 99.466 C 59.934 101.397,57.277 104.320,54.960 106.066 C 52.672 107.790,50.679 109.474,50.530 109.810 C 50.382 110.145,48.669 111.514,46.723 112.853 C 39.142 118.069,41.017 112.426,50.953 100.122 C 52.854 97.769,54.734 95.261,55.133 94.548 C 55.758 93.430,56.129 93.399,57.841 94.315 C 59.693 95.306,60.041 95.159,63.112 92.088 C 64.920 90.280,67.030 88.790,67.800 88.777 C 68.570 88.765,70.820 87.892,72.800 86.838 C 78.392 83.861,79.231 84.118,84.918 90.545 M255.600 93.600 C 259.217 95.444,260.994 95.592,263.174 94.230 C 265.420 92.828,265.802 93.703,265.166 98.796 C 264.523 103.943,263.299 104.941,260.099 102.928 C 258.945 102.201,256.020 100.674,253.600 99.534 C 251.180 98.394,248.575 97.132,247.811 96.730 C 247.047 96.329,245.877 96.000,245.211 96.000 C 243.761 96.000,243.621 94.299,244.960 92.960 C 246.439 91.481,252.112 91.822,255.600 93.600 M330.600 94.892 C 336.585 95.787,333.952 105.200,327.716 105.200 C 323.570 105.200,323.456 110.754,327.579 111.892 C 334.649 113.844,341.333 108.363,340.494 101.301 C 339.670 94.366,341.225 94.452,345.474 101.576 C 349.088 107.634,349.431 108.800,347.600 108.800 C 346.940 108.800,346.400 109.093,346.400 109.452 C 346.400 110.225,340.277 113.600,338.874 113.600 C 338.338 113.600,336.842 114.719,335.550 116.086 C 330.947 120.955,321.463 128.200,319.692 128.200 C 318.538 128.200,317.559 128.947,316.938 130.300 C 315.898 132.564,306.680 139.200,304.576 139.200 C 303.871 139.200,303.072 139.560,302.800 140.000 C 301.560 142.007,298.547 140.773,296.881 137.575 C 294.350 132.720,294.124 132.953,303.385 130.869 C 306.581 130.149,310.743 126.153,313.211 121.434 C 315.502 117.051,315.477 117.702,313.885 103.881 C 313.377 99.469,314.358 97.303,317.851 95.125 C 320.429 93.518,321.314 93.502,330.600 94.892 M226.074 96.655 C 227.435 97.073,233.015 99.585,238.474 102.235 C 243.933 104.886,251.900 108.687,256.178 110.682 C 264.988 114.792,271.878 119.238,276.320 123.680 C 288.262 135.622,296.654 149.520,302.116 166.400 C 302.756 168.380,303.595 170.720,303.979 171.600 C 306.178 176.638,306.886 210.517,304.949 218.000 C 304.380 220.200,303.605 223.620,303.228 225.600 C 299.310 246.167,281.133 273.541,262.974 286.221 C 260.429 287.997,257.613 290.384,256.716 291.525 C 255.818 292.666,254.632 293.600,254.080 293.600 C 253.128 293.600,245.606 296.477,240.400 298.831 C 238.267 299.796,231.540 301.399,222.000 303.216 C 207.022 306.068,204.257 306.372,193.119 306.385 C 186.475 306.393,179.995 306.085,178.719 305.700 C 177.444 305.314,174.420 304.559,172.000 304.021 C 141.297 297.195,117.098 277.192,102.338 246.437 C 94.954 231.050,95.437 232.857,94.197 216.000 C 92.265 189.753,93.575 171.475,97.720 166.840 C 98.094 166.422,98.400 165.621,98.400 165.060 C 98.400 163.970,102.333 154.775,104.499 150.800 C 105.219 149.480,106.786 146.536,107.982 144.257 C 111.677 137.216,136.061 112.852,139.456 112.808 C 139.817 112.804,141.617 111.769,143.456 110.510 C 145.295 109.250,151.114 106.101,156.388 103.512 C 166.301 98.645,166.052 98.707,183.145 96.813 C 187.294 96.353,190.885 95.782,191.123 95.543 C 191.839 94.828,223.400 95.831,226.074 96.655 M186.800 100.523 C 183.720 101.132,179.220 101.924,176.800 102.283 C 171.420 103.082,165.052 105.674,155.587 110.918 C 145.752 116.368,144.715 116.995,142.890 118.600 C 142.015 119.370,140.992 120.000,140.617 120.000 C 139.975 120.000,135.954 122.641,133.917 124.400 C 133.407 124.840,130.794 126.777,128.110 128.704 C 119.425 134.939,108.553 151.866,104.529 165.414 C 103.866 167.647,102.864 170.313,102.302 171.337 C 101.740 172.362,101.008 175.360,100.675 178.000 C 100.342 180.640,99.521 185.680,98.850 189.200 C 97.274 197.476,97.282 205.398,98.872 212.400 C 99.571 215.480,100.425 219.620,100.769 221.600 C 101.113 223.580,102.190 227.540,103.161 230.400 C 104.133 233.260,105.411 237.400,106.002 239.601 C 106.993 243.293,108.916 247.367,113.556 255.600 C 117.582 262.745,134.430 280.293,139.636 282.764 C 141.156 283.485,142.400 284.566,142.400 285.166 C 142.400 286.543,146.608 290.129,148.996 290.786 C 149.988 291.059,152.420 291.947,154.400 292.760 C 158.076 294.269,161.609 295.289,168.000 296.686 C 169.980 297.119,173.760 297.944,176.400 298.519 C 185.803 300.569,216.523 299.492,230.400 296.626 C 243.667 293.886,263.435 279.383,275.979 263.188 C 277.508 261.215,278.957 259.420,279.200 259.200 C 280.370 258.140,284.800 252.096,284.800 251.560 C 284.800 251.225,285.703 249.768,286.806 248.321 C 288.695 245.845,293.067 236.917,294.995 231.600 C 296.299 228.004,296.838 224.394,297.318 216.052 C 297.557 211.900,298.078 207.646,298.476 206.599 C 299.807 203.100,298.728 186.757,296.853 182.000 C 295.468 178.488,294.400 174.603,294.400 173.077 C 294.400 172.191,294.139 171.206,293.820 170.886 C 293.501 170.567,292.812 168.209,292.289 165.646 C 290.929 158.980,283.662 144.569,280.754 142.771 C 280.335 142.513,278.496 140.073,276.667 137.350 C 273.631 132.830,265.366 124.072,258.380 117.973 C 256.851 116.637,252.720 114.080,249.200 112.289 C 245.680 110.499,241.360 108.265,239.600 107.325 C 230.728 102.590,203.200 97.869,203.200 101.082 C 203.200 102.831,201.436 102.745,197.411 100.800 C 195.590 99.920,193.717 99.249,193.250 99.308 C 192.782 99.367,189.880 99.914,186.800 100.523 M197.748 104.722 C 202.786 106.686,206.527 112.523,209.591 123.200 C 211.269 129.045,211.712 130.782,213.501 138.545 C 214.651 143.533,216.364 164.299,215.756 165.883 C 215.491 166.571,214.088 167.442,212.638 167.818 C 208.899 168.787,209.171 170.793,213.045 170.825 C 216.902 170.856,217.572 171.945,217.588 178.200 C 217.595 181.315,217.934 183.200,218.486 183.200 C 218.973 183.200,219.181 183.695,218.949 184.301 C 218.717 184.906,218.841 190.147,219.226 195.947 C 220.115 209.349,218.166 213.420,210.331 214.527 C 209.269 214.677,208.400 215.340,208.400 216.000 C 208.400 217.985,212.260 217.825,217.033 215.642 C 222.815 212.997,223.213 213.066,220.284 216.200 C 215.318 221.513,212.285 228.800,215.040 228.800 C 216.122 228.800,217.600 226.950,217.600 225.597 C 217.600 224.891,218.836 223.116,220.347 221.651 C 223.464 218.631,225.600 218.786,225.600 222.034 C 225.600 226.119,228.367 224.103,228.643 219.817 C 228.849 216.624,229.276 215.771,231.443 214.234 C 234.651 211.960,246.400 200.477,246.400 199.617 C 246.400 198.479,255.194 188.193,257.835 186.241 C 264.970 180.969,271.771 181.343,274.786 187.174 C 277.051 191.553,275.753 194.579,265.332 209.200 C 256.190 222.026,257.001 221.268,254.717 219.122 C 253.666 218.135,252.616 217.517,252.384 217.749 C 251.614 218.519,252.951 220.800,254.172 220.800 C 256.001 220.800,254.975 223.686,250.287 231.735 C 243.876 242.741,241.721 247.000,240.516 251.051 C 239.903 253.113,238.502 256.662,237.403 258.937 C 236.304 261.213,235.163 264.040,234.867 265.219 C 234.172 267.986,230.821 270.883,224.147 274.488 C 220.610 276.399,218.799 277.863,218.796 278.815 C 218.793 280.252,216.687 281.196,209.200 283.116 C 207.440 283.567,203.278 284.703,199.951 285.640 C 195.413 286.918,192.517 287.246,188.351 286.954 C 177.700 286.206,167.577 284.830,164.400 283.697 C 162.640 283.070,159.964 282.337,158.452 282.069 C 155.718 281.583,152.800 279.603,152.800 278.233 C 152.800 277.838,150.539 273.298,147.775 268.146 C 145.012 262.994,142.253 257.523,141.645 255.989 C 141.037 254.455,138.580 248.880,136.184 243.600 C 124.783 218.470,123.351 184.690,133.355 176.821 C 135.961 174.771,137.285 175.540,135.594 178.121 C 134.236 180.194,134.239 183.291,135.600 183.736 C 136.040 183.880,137.411 182.199,138.646 179.999 C 139.882 177.800,141.328 176.000,141.860 176.000 C 143.353 176.000,148.798 179.936,148.818 181.029 C 148.828 181.563,149.540 182.900,150.400 184.000 C 151.260 185.100,151.972 186.789,151.982 187.753 C 151.992 188.717,152.317 189.701,152.704 189.941 C 153.747 190.585,155.568 198.736,156.516 207.000 C 156.979 211.034,156.922 211.200,155.077 211.200 C 154.020 211.200,151.074 212.280,148.530 213.600 C 145.986 214.920,143.054 216.000,142.016 216.000 C 139.961 216.000,139.973 216.033,138.313 206.000 C 136.949 197.756,136.461 196.800,133.620 196.800 C 130.979 196.800,130.861 196.952,131.902 199.011 C 133.269 201.717,134.400 206.149,134.400 208.800 C 134.400 223.110,147.061 234.365,155.108 227.209 C 158.472 224.217,158.731 224.221,160.976 227.306 C 164.405 232.019,172.921 232.820,177.168 228.830 C 181.005 225.226,184.983 229.653,188.104 241.000 C 188.679 243.090,189.475 244.800,189.874 244.800 C 190.537 244.800,190.397 242.589,189.070 232.167 C 188.515 227.802,189.832 224.623,193.285 221.989 C 198.203 218.238,198.400 217.268,198.400 196.781 C 198.400 176.580,197.297 168.967,192.780 158.000 C 192.417 157.120,191.938 155.500,191.716 154.400 C 191.493 153.300,190.897 150.960,190.390 149.200 C 188.339 142.077,188.365 141.910,191.919 139.559 C 195.158 137.415,195.993 135.784,194.365 134.778 C 193.906 134.494,193.027 134.679,192.413 135.189 C 189.751 137.398,186.865 135.846,185.741 131.600 C 185.159 129.400,184.316 126.340,183.867 124.800 C 182.199 119.076,182.229 117.147,184.044 113.284 C 186.341 108.398,190.839 104.736,195.348 104.080 C 195.649 104.036,196.729 104.325,197.748 104.722 M357.013 121.790 C 357.550 123.006,358.263 124.000,358.595 124.000 C 358.928 124.000,359.200 124.514,359.200 125.142 C 359.200 125.770,360.182 127.056,361.383 128.001 C 366.242 131.823,367.692 136.000,364.160 136.000 C 362.928 136.000,361.578 136.295,361.160 136.656 C 360.742 137.017,357.700 138.176,354.400 139.232 C 351.100 140.289,346.800 142.154,344.843 143.376 C 342.887 144.599,340.993 145.600,340.635 145.600 C 339.337 145.600,329.942 150.001,323.200 153.768 C 308.406 162.032,308.570 161.985,307.278 158.281 C 306.049 154.755,306.088 154.685,309.044 155.030 C 313.107 155.504,314.106 153.728,312.047 149.693 C 309.296 144.299,309.722 143.030,315.559 139.227 L 320.717 135.866 324.303 138.333 C 328.605 141.293,333.600 141.794,333.600 139.265 C 333.600 136.633,332.735 135.290,329.916 133.548 C 326.567 131.478,326.552 131.503,334.626 125.940 C 344.760 118.957,346.593 118.752,347.668 124.480 C 347.948 125.976,348.498 127.200,348.889 127.200 C 349.280 127.200,349.600 127.848,349.600 128.640 C 349.600 130.124,351.029 132.000,352.160 132.000 C 353.138 132.000,352.900 127.405,351.605 121.292 C 350.964 118.263,350.671 115.409,350.955 114.950 C 351.554 113.979,355.554 118.496,357.013 121.790 M42.536 120.264 C 44.150 121.219,47.930 123.401,50.936 125.113 C 59.575 130.035,59.869 130.260,60.143 132.180 C 60.350 133.640,60.857 133.967,62.707 133.835 C 64.151 133.731,66.275 134.538,68.389 135.992 C 72.622 138.905,84.699 144.986,90.735 147.245 C 95.809 149.143,96.715 150.370,95.171 153.254 C 93.745 155.920,90.339 155.515,83.600 151.878 C 80.054 149.965,67.227 142.931,64.000 141.130 C 62.460 140.270,59.760 139.093,58.000 138.513 C 56.240 137.933,51.920 136.105,48.400 134.451 C 39.261 130.156,37.982 129.945,35.583 132.344 C 32.291 135.636,32.928 136.208,45.400 141.151 C 51.890 143.724,60.015 147.217,63.454 148.914 C 66.894 150.611,70.078 152.000,70.529 152.000 C 71.898 152.000,89.450 160.855,90.436 162.043 C 93.236 165.418,87.872 169.434,84.616 166.400 C 82.401 164.337,81.372 164.384,78.711 166.674 C 76.204 168.830,76.525 171.200,79.323 171.200 C 85.149 171.200,86.937 181.289,81.359 182.689 C 66.275 186.474,29.120 162.666,34.481 152.649 C 35.772 150.237,45.600 153.256,45.600 156.065 C 45.600 156.469,46.207 156.800,46.948 156.800 C 48.551 156.800,52.000 153.743,52.000 152.323 C 52.000 150.914,45.600 145.600,43.903 145.600 C 43.128 145.600,42.272 145.240,42.000 144.800 C 41.009 143.196,35.744 143.960,32.556 146.169 C 29.520 148.273,29.392 148.293,28.313 146.816 C 26.309 144.076,26.456 143.533,32.899 129.785 C 34.605 126.147,36.000 122.984,36.000 122.757 C 36.000 121.984,38.582 118.400,39.092 118.464 C 39.371 118.500,40.921 119.310,42.536 120.264 M364.329 144.404 C 366.205 147.267,362.278 154.690,357.348 157.601 C 348.369 162.903,344.489 161.631,344.955 153.539 L 345.200 149.278 351.600 145.854 C 359.103 141.840,362.403 141.464,364.329 144.404 M373.441 154.066 C 373.574 154.910,373.988 156.320,374.361 157.200 C 375.466 159.809,376.973 180.147,376.124 180.996 C 375.654 181.466,374.663 181.354,373.486 180.698 C 361.636 174.098,344.756 178.914,339.482 190.400 C 338.976 191.500,337.982 193.723,337.273 195.340 C 333.007 205.056,316.000 209.051,316.000 200.337 C 316.000 195.550,321.379 192.362,324.504 195.298 C 327.984 198.567,334.133 194.361,332.170 190.054 C 330.524 186.440,321.136 183.984,318.614 186.506 C 317.021 188.099,315.200 186.646,315.200 183.782 C 315.200 180.358,318.655 176.901,325.291 173.687 C 327.962 172.393,331.846 169.865,333.922 168.068 C 338.373 164.216,338.287 164.229,342.106 166.820 C 350.941 172.816,364.899 166.525,370.246 154.137 C 371.312 151.668,373.058 151.629,373.441 154.066 M337.162 157.000 C 336.685 158.572,335.502 160.213,332.400 163.602 C 331.080 165.044,324.620 169.277,321.200 170.940 C 319.440 171.796,317.165 173.015,316.144 173.648 C 314.417 174.720,314.156 174.635,312.376 172.427 C 310.070 169.565,310.777 168.402,316.708 165.311 C 318.739 164.253,323.820 161.568,328.000 159.345 C 336.701 154.718,337.951 154.398,337.162 157.000 M27.398 159.141 C 28.288 161.220,32.542 165.401,40.678 172.192 C 44.408 175.305,43.344 176.000,34.848 176.000 C 27.558 176.000,27.335 176.056,24.959 178.487 C 20.861 182.677,20.077 180.067,22.853 171.482 C 24.080 167.686,24.458 162.606,23.655 160.703 C 23.333 159.940,23.644 158.870,24.411 158.103 C 26.133 156.381,26.231 156.415,27.398 159.141 M187.839 160.822 C 188.797 161.714,189.783 163.424,190.030 164.622 C 190.277 165.820,190.804 168.060,191.202 169.600 C 191.599 171.140,192.140 173.480,192.405 174.800 C 192.670 176.120,193.276 178.820,193.753 180.800 C 194.229 182.780,194.768 189.264,194.949 195.210 L 195.280 206.020 190.015 207.019 C 187.120 207.568,184.089 208.430,183.281 208.935 C 179.655 211.200,179.173 209.486,177.958 190.000 C 177.466 182.096,175.955 172.867,175.065 172.316 C 172.902 170.980,175.300 163.567,178.592 161.410 C 182.402 158.913,185.574 158.712,187.839 160.822 M162.400 165.737 C 162.400 166.252,161.794 167.344,161.053 168.162 C 158.740 170.718,161.382 172.631,164.183 170.428 C 170.922 165.127,174.338 177.111,175.463 210.000 L 175.600 214.000 170.800 214.501 C 168.160 214.777,165.398 215.255,164.661 215.563 C 162.619 216.419,161.626 213.558,159.677 201.200 C 159.004 196.933,157.819 192.487,156.311 188.577 C 154.635 184.227,155.083 182.860,158.871 180.761 C 160.152 180.051,161.323 178.834,161.474 178.055 C 161.757 176.597,161.343 176.603,154.600 178.158 C 152.524 178.637,152.390 177.907,153.695 173.209 C 154.996 168.520,162.400 162.165,162.400 165.737 M42.800 182.325 C 49.215 183.395,52.664 184.298,56.012 185.784 C 57.546 186.465,61.773 188.183,65.407 189.603 C 80.661 195.565,83.639 209.585,69.653 209.597 C 66.369 209.600,57.468 207.041,55.582 205.552 C 55.132 205.196,52.792 203.850,50.382 202.560 C 47.972 201.270,44.423 199.356,42.494 198.307 C 38.265 196.006,33.648 191.648,30.664 187.138 L 28.461 183.809 30.403 182.237 C 32.434 180.592,32.407 180.592,42.800 182.325 M141.783 182.537 C 140.654 183.666,140.477 186.106,141.479 186.725 C 142.424 187.309,145.755 184.065,145.377 182.929 C 144.935 181.601,142.937 181.383,141.783 182.537 M368.287 185.668 C 373.717 190.448,372.774 192.560,362.931 197.669 C 356.211 201.157,351.342 199.368,355.927 195.096 C 359.216 192.032,355.835 189.821,352.104 192.596 C 346.273 196.931,351.078 206.443,359.057 206.362 C 363.334 206.318,366.307 204.919,371.570 200.475 C 377.353 195.591,377.561 196.387,375.200 214.400 C 374.767 217.700,374.218 222.560,373.978 225.200 C 373.739 227.840,373.196 231.350,372.771 233.000 C 371.194 239.134,370.495 242.122,369.540 246.800 C 367.665 255.994,366.414 260.260,364.413 264.274 C 363.306 266.496,362.400 268.607,362.400 268.966 C 362.400 271.053,352.945 290.075,349.223 295.478 C 347.450 298.050,345.280 301.343,344.400 302.794 C 341.966 306.807,333.789 315.655,333.126 314.993 C 332.805 314.671,333.466 312.696,334.596 310.604 C 336.720 306.669,337.366 301.082,336.970 290.063 C 336.695 282.414,327.168 275.229,319.764 277.087 C 317.354 277.692,311.200 283.019,311.200 284.500 C 311.200 286.792,303.478 293.600,300.879 293.600 C 293.273 293.600,290.457 276.404,296.687 268.000 C 299.676 263.968,303.852 265.905,302.111 270.516 C 300.952 273.587,302.316 275.060,305.130 273.778 C 311.359 270.939,308.917 254.864,302.511 256.539 C 299.613 257.297,299.837 255.056,303.391 247.737 C 305.350 243.702,307.417 238.780,307.984 236.800 C 308.551 234.820,309.675 231.220,310.482 228.800 C 311.289 226.380,312.394 221.790,312.937 218.600 C 313.899 212.954,315.581 210.981,317.200 213.600 C 317.472 214.040,320.182 214.400,323.222 214.400 C 329.916 214.400,335.089 210.315,338.682 202.191 C 340.635 197.775,347.039 188.284,349.766 185.765 C 354.561 181.335,363.313 181.290,368.287 185.668 M84.800 191.600 C 84.800 196.172,83.275 196.348,81.389 191.995 C 79.610 187.888,79.581 188.000,82.400 188.000 C 84.711 188.000,84.800 188.133,84.800 191.600 M23.769 190.274 C 25.449 192.004,35.779 200.000,36.334 200.000 C 36.668 200.000,38.764 201.203,49.200 207.386 C 51.743 208.893,54.503 210.242,59.400 212.371 C 63.265 214.051,63.191 214.483,58.442 217.969 C 53.479 221.612,53.164 222.531,53.389 232.700 C 53.607 242.554,52.679 244.818,47.633 246.745 C 36.847 250.864,25.014 241.375,24.655 228.316 C 24.395 218.883,31.269 216.873,34.810 225.348 C 36.961 230.496,42.375 228.549,41.169 223.060 C 39.547 215.676,33.832 212.178,28.147 215.090 C 27.406 215.470,25.270 216.014,23.400 216.300 L 20.000 216.819 20.000 204.075 C 20.000 188.438,20.436 186.842,23.769 190.274 M84.460 211.555 C 85.175 214.403,84.329 215.316,81.971 214.241 C 80.104 213.390,79.371 211.296,80.533 210.133 C 81.773 208.893,83.994 209.697,84.460 211.555 M190.000 211.914 C 190.000 213.875,185.747 216.485,184.171 215.491 C 182.122 214.198,182.470 211.766,184.800 211.102 C 187.702 210.274,190.000 210.633,190.000 211.914 M194.400 214.000 C 194.400 214.660,194.040 215.200,193.600 215.200 C 193.160 215.200,192.800 214.660,192.800 214.000 C 192.800 213.340,193.160 212.800,193.600 212.800 C 194.040 212.800,194.400 213.340,194.400 214.000 M153.350 216.502 C 154.340 219.081,147.427 222.310,145.969 219.950 C 145.680 219.482,146.056 218.422,146.805 217.594 C 147.983 216.293,148.972 215.876,152.225 215.309 C 152.569 215.249,153.075 215.786,153.350 216.502 M173.224 219.000 C 171.981 223.982,168.212 225.520,166.364 221.800 C 164.511 218.071,165.535 217.087,171.487 216.880 C 173.592 216.806,173.730 216.974,173.224 219.000 M190.800 218.400 C 189.237 220.128,182.928 220.701,182.000 219.200 C 181.698 218.712,182.909 218.400,185.106 218.400 C 187.086 218.400,188.928 218.040,189.200 217.600 C 189.472 217.160,190.269 216.800,190.971 216.800 C 192.083 216.800,192.061 217.007,190.800 218.400 M80.233 222.101 C 81.876 223.697,83.371 225.767,83.556 226.701 C 86.126 239.720,85.437 242.873,79.605 244.798 C 75.039 246.305,71.822 243.776,75.337 241.442 C 77.407 240.067,76.702 238.400,74.051 238.400 C 68.652 238.400,67.948 246.786,73.052 250.298 C 78.292 253.903,79.827 253.622,85.276 248.057 C 90.547 242.674,92.241 242.612,93.078 247.771 C 93.691 251.553,106.492 270.825,110.723 274.336 C 113.280 276.458,112.240 277.600,107.750 277.600 C 102.996 277.600,102.557 277.938,95.795 286.800 C 93.780 289.440,88.878 295.020,84.901 299.200 C 80.924 303.380,75.585 309.763,73.035 313.385 C 70.382 317.154,67.902 319.889,67.235 319.780 C 65.613 319.517,57.525 309.721,55.204 305.208 C 54.149 303.156,52.259 300.614,51.005 299.559 C 49.083 297.941,37.600 280.794,37.600 279.540 C 37.600 279.313,35.841 276.521,33.692 273.336 C 29.679 267.390,24.800 254.469,24.800 249.790 C 24.800 248.858,24.440 247.872,24.000 247.600 C 23.045 247.010,22.932 244.260,23.840 243.699 C 24.192 243.482,26.065 244.558,28.002 246.092 C 29.940 247.625,32.802 249.432,34.363 250.107 C 35.923 250.782,37.825 251.664,38.589 252.067 C 42.753 254.263,51.651 251.392,54.234 247.018 C 54.955 245.798,55.827 244.800,56.172 244.800 C 56.518 244.800,56.800 244.152,56.800 243.360 C 56.800 242.568,57.223 241.497,57.739 240.981 C 58.286 240.434,58.645 237.845,58.598 234.777 C 58.407 222.161,72.060 214.162,80.233 222.101 M343.318 227.600 C 337.051 233.512,337.037 233.517,334.830 230.773 C 333.342 228.922,333.009 228.835,331.006 229.773 C 328.941 230.740,327.879 233.600,329.585 233.600 C 332.216 233.600,330.948 240.264,328.147 241.153 C 327.347 241.407,324.960 243.622,322.842 246.075 C 318.041 251.635,318.632 252.644,327.102 253.354 C 334.205 253.950,335.200 255.014,335.200 262.018 C 335.200 264.692,335.530 267.222,335.932 267.640 C 336.335 268.058,336.785 269.300,336.932 270.400 C 337.524 274.817,341.125 273.016,341.732 268.000 C 343.287 255.146,344.138 253.658,350.000 253.553 C 362.625 253.327,363.518 252.123,355.642 245.954 C 348.189 240.116,348.392 240.775,351.169 231.436 C 352.441 227.157,353.307 223.374,353.094 223.028 C 351.915 221.121,348.486 222.724,343.318 227.600 M152.800 223.985 C 152.800 224.977,149.173 225.925,148.045 225.228 C 146.337 224.173,147.275 223.200,150.000 223.200 C 151.540 223.200,152.800 223.553,152.800 223.985 M346.400 233.502 C 346.400 236.111,344.615 238.007,342.810 237.315 C 341.217 236.703,341.271 234.490,342.924 232.663 C 344.901 230.479,346.400 230.840,346.400 233.502 M341.454 239.862 C 342.987 241.042,343.263 241.898,343.054 244.825 C 342.516 252.319,336.000 251.253,336.000 243.671 C 336.000 238.595,337.995 237.201,341.454 239.862 M332.800 246.753 C 332.800 248.992,332.543 249.209,329.000 249.969 C 325.991 250.615,325.383 248.849,327.724 246.263 C 329.743 244.032,332.800 244.327,332.800 246.753 M351.239 246.270 C 353.485 248.090,352.709 249.600,349.528 249.600 C 347.049 249.600,345.878 248.115,346.689 246.000 C 347.309 244.385,349.037 244.488,351.239 246.270 M64.790 262.834 C 63.705 266.709,61.558 268.800,58.664 268.800 C 54.146 268.800,43.200 273.681,43.200 275.695 C 43.200 278.039,45.337 279.020,52.796 280.098 C 59.883 281.122,60.297 281.681,58.343 287.585 C 53.482 302.276,57.459 302.819,68.199 288.931 C 71.783 284.298,72.009 284.245,80.591 286.038 C 84.333 286.819,84.790 284.817,81.720 281.092 C 78.911 277.685,79.140 276.751,84.089 271.421 C 91.901 263.007,89.454 261.149,75.311 264.758 C 71.503 265.729,69.600 264.965,69.600 262.462 C 69.600 260.909,68.103 259.200,66.744 259.200 C 66.229 259.200,65.350 260.835,64.790 262.834 M79.200 269.902 C 79.200 271.259,77.247 272.981,76.526 272.260 C 75.339 271.072,76.044 268.800,77.600 268.800 C 78.480 268.800,79.200 269.296,79.200 269.902 M72.457 272.911 C 74.018 275.928,72.976 279.200,70.455 279.200 C 64.975 279.200,62.611 274.039,67.000 271.658 C 70.196 269.924,71.009 270.111,72.457 272.911 M61.144 274.309 C 61.964 275.636,59.466 276.813,56.915 276.303 C 54.443 275.809,53.878 275.189,54.933 274.133 C 55.721 273.346,60.635 273.485,61.144 274.309 M287.200 279.109 C 287.200 282.842,290.642 291.502,293.481 294.909 C 298.142 300.505,304.121 299.564,311.705 292.040 C 323.079 280.757,328.317 280.893,329.189 292.493 C 329.318 294.202,329.681 297.232,329.997 299.228 C 330.568 302.843,329.097 307.436,326.109 311.369 C 324.275 313.783,318.920 314.091,316.879 311.900 C 314.656 309.514,314.916 306.706,317.329 307.038 C 320.193 307.433,320.197 305.832,317.339 303.652 C 310.287 298.273,306.003 306.373,311.525 314.644 C 314.301 318.801,322.790 321.805,324.400 319.200 C 325.116 318.041,328.800 318.216,328.800 319.409 C 328.800 321.868,305.887 343.200,303.247 343.200 C 302.010 343.200,302.235 341.011,304.020 335.676 C 308.434 322.479,294.759 296.807,279.000 288.709 C 275.494 286.908,275.204 285.496,278.029 283.985 C 279.145 283.387,281.366 281.183,282.965 279.086 C 286.257 274.769,287.200 274.774,287.200 279.109 M66.400 282.384 C 67.457 283.054,67.440 283.409,66.254 285.372 C 63.806 289.423,60.307 290.135,62.193 286.199 C 62.667 285.209,63.256 283.770,63.502 283.000 C 64.007 281.422,64.661 281.283,66.400 282.384 M114.732 287.153 C 122.521 292.512,116.137 304.800,105.563 304.800 C 101.178 304.800,96.800 302.560,96.800 300.317 C 96.800 299.672,96.222 298.261,95.515 297.183 C 94.265 295.275,94.325 295.129,97.715 291.762 C 99.632 289.859,102.045 287.292,103.077 286.056 C 105.501 283.156,109.465 283.530,114.732 287.153 M131.210 294.811 C 133.169 296.896,132.841 298.012,130.119 298.522 C 129.304 298.675,127.732 300.420,126.624 302.400 C 125.517 304.380,124.008 306.900,123.272 308.000 C 122.535 309.100,121.236 311.350,120.385 313.000 C 119.533 314.650,118.600 316.000,118.312 316.000 C 118.024 316.000,116.853 317.890,115.711 320.200 C 114.569 322.510,112.198 326.200,110.443 328.400 C 106.102 333.840,100.574 341.446,99.600 343.319 C 98.347 345.728,95.546 344.923,95.825 342.234 C 95.949 341.043,95.499 338.749,94.825 337.136 C 93.381 333.680,93.261 327.017,94.474 317.600 C 95.668 308.332,95.516 308.643,98.164 310.024 C 101.129 311.570,106.405 311.506,112.304 309.851 C 118.936 307.990,123.401 303.417,126.416 295.400 C 127.591 292.275,128.700 292.139,131.210 294.811 M276.400 294.212 C 277.714 295.178,282.686 301.709,285.479 306.139 C 286.914 308.415,288.634 310.731,289.302 311.285 C 291.072 312.753,293.423 317.681,294.881 322.976 C 297.954 334.133,297.928 336.637,294.704 340.483 L 292.762 342.800 291.381 340.842 C 290.621 339.765,288.256 336.525,286.124 333.642 C 282.264 328.422,272.000 308.411,272.000 306.105 C 272.000 305.439,271.640 304.672,271.200 304.400 C 269.513 303.357,270.333 298.158,272.550 295.844 C 274.854 293.438,275.167 293.306,276.400 294.212 M261.600 298.753 C 261.600 299.387,261.240 300.128,260.800 300.400 C 260.360 300.672,260.000 300.153,260.000 299.247 C 260.000 298.341,260.360 297.600,260.800 297.600 C 261.240 297.600,261.600 298.119,261.600 298.753 M155.107 307.544 C 163.110 310.874,166.798 312.000,169.707 312.000 C 174.539 312.000,174.867 313.474,170.460 315.383 C 167.112 316.834,161.600 321.270,161.600 322.515 C 161.600 323.165,158.738 327.662,157.600 328.800 C 157.380 329.020,155.310 332.984,153.000 337.609 C 146.921 349.781,147.111 360.038,153.541 366.855 C 155.857 369.310,155.957 369.600,154.493 369.600 C 153.008 369.600,151.304 369.134,142.400 366.294 C 140.860 365.803,137.440 364.408,134.800 363.195 C 132.160 361.981,126.940 359.796,123.200 358.340 C 109.801 353.122,106.832 350.547,114.800 351.055 C 119.431 351.351,126.482 349.949,127.368 348.556 C 128.463 346.832,128.038 346.400,125.247 346.400 C 123.733 346.400,122.272 346.040,122.000 345.600 C 121.728 345.160,118.827 344.800,115.553 344.800 C 109.329 344.800,107.351 342.863,110.720 340.067 C 111.336 339.556,113.727 336.262,116.035 332.747 C 119.749 327.090,120.386 326.474,121.596 327.379 C 135.595 337.847,142.599 338.634,132.578 328.613 C 125.147 321.182,124.911 318.654,130.882 310.455 L 134.630 305.309 136.115 307.143 C 136.932 308.152,137.600 309.410,137.600 309.939 C 137.600 313.302,147.951 317.767,149.058 314.881 C 149.358 314.099,148.668 313.045,147.146 311.961 C 144.884 310.351,141.600 305.126,141.600 303.139 C 141.600 301.970,142.130 302.143,155.107 307.544 M255.496 307.800 C 260.344 317.184,256.395 328.800,248.357 328.800 C 243.040 328.800,241.180 315.353,245.852 310.682 C 246.153 310.380,246.400 309.545,246.400 308.827 C 246.400 304.966,253.611 304.153,255.496 307.800 M88.788 308.200 C 88.781 309.190,88.253 312.160,87.616 314.800 C 86.242 320.489,86.034 333.021,87.274 335.338 C 90.169 340.748,83.112 337.342,75.722 329.764 C 71.499 325.433,71.455 324.253,75.395 321.062 C 77.173 319.622,82.454 312.900,85.186 308.600 C 86.880 305.935,88.805 305.721,88.788 308.200 M240.400 310.467 C 240.400 312.063,239.947 312.444,237.800 312.651 C 234.896 312.931,234.900 312.924,235.967 316.343 C 236.389 317.694,237.668 321.860,238.810 325.600 C 239.951 329.340,241.203 333.120,241.591 334.000 C 244.834 341.352,246.072 344.533,248.130 350.800 C 249.431 354.760,251.403 359.554,252.513 361.453 C 255.490 366.551,254.663 367.302,243.600 369.544 C 241.400 369.990,237.911 370.725,235.846 371.177 C 227.734 372.955,224.108 371.240,229.780 368.307 C 234.273 365.984,239.520 359.428,240.212 355.273 C 241.504 347.512,241.778 342.222,240.973 340.536 C 239.553 337.559,238.932 335.672,238.695 333.610 C 238.129 328.682,232.106 321.293,224.446 316.127 C 220.080 313.184,220.403 312.481,226.400 311.870 C 229.260 311.579,233.220 310.616,235.200 309.730 C 239.519 307.798,240.400 307.923,240.400 310.467 M270.510 317.818 C 272.254 321.287,274.653 325.482,275.841 327.140 C 277.028 328.798,279.759 333.899,281.909 338.477 C 284.059 343.055,286.129 347.425,286.509 348.189 C 288.388 351.965,286.176 355.284,282.805 353.748 C 281.582 353.190,280.680 353.147,280.381 353.630 C 279.144 355.633,270.590 352.560,267.417 348.972 C 264.624 345.815,260.800 340.239,260.800 339.323 C 260.800 338.888,260.530 338.413,260.200 338.267 C 256.108 336.448,255.337 330.746,258.786 327.800 C 262.552 324.584,263.920 321.545,264.522 315.060 C 265.148 308.330,265.918 308.685,270.510 317.818 M208.406 315.210 C 208.681 315.655,207.300 317.905,205.335 320.210 C 203.371 322.514,200.341 327.460,198.602 331.200 C 196.862 334.940,194.590 339.800,193.552 342.000 C 188.043 353.672,193.444 370.400,202.720 370.400 C 203.479 370.400,205.967 370.974,208.250 371.676 C 210.532 372.378,212.902 373.106,213.515 373.295 C 215.810 374.001,213.400 374.657,205.816 375.392 C 195.468 376.394,174.708 375.390,170.178 373.668 C 169.075 373.248,167.392 373.109,166.439 373.358 C 164.635 373.830,158.425 371.317,158.409 370.109 C 158.404 369.723,160.077 369.717,162.200 370.096 C 173.142 372.046,182.400 368.732,182.400 362.865 C 182.400 361.905,182.797 360.723,183.282 360.238 C 183.924 359.596,183.666 358.684,182.331 356.878 C 179.946 353.651,177.600 353.559,177.600 356.692 C 177.600 363.019,167.329 368.080,161.173 364.786 C 154.877 361.416,155.022 352.068,161.600 337.200 C 164.240 331.233,166.412 326.092,166.427 325.775 C 166.663 320.668,181.603 315.184,182.276 319.957 C 182.551 321.903,181.359 326.811,179.803 330.146 C 178.953 331.965,179.439 334.400,180.651 334.400 C 183.029 334.400,186.400 325.466,186.400 319.161 C 186.400 315.570,186.550 315.283,188.600 314.973 C 193.343 314.254,207.923 314.429,208.406 315.210 M221.954 321.910 C 235.881 332.533,237.822 356.246,225.362 363.547 C 221.312 365.921,208.203 366.919,206.281 365.000 C 205.731 364.450,204.681 364.000,203.949 364.000 C 199.173 364.000,197.671 358.918,200.057 350.823 C 200.968 347.730,202.108 343.760,202.590 342.000 C 203.991 336.887,209.313 327.094,212.699 323.400 C 216.302 319.469,218.326 319.143,221.954 321.910 M255.802 341.618 C 260.040 348.016,266.654 354.837,270.600 356.880 C 275.005 359.160,274.315 360.393,267.200 362.964 C 262.442 364.683,263.202 365.392,258.437 354.800 C 256.019 349.425,254.305 345.902,252.015 341.600 C 249.987 337.791,249.696 336.970,250.197 336.470 C 251.220 335.447,252.482 336.606,255.802 341.618 " stroke="none" fill="#000000" fill-rule="evenodd"></path></g></svg>