<svg id="svg" xmlns="http://www.w3.org/2000/svg" xmlns:xlink="http://www.w3.org/1999/xlink" width="400" height="82.60325406758447" viewBox="0, 0, 400,82.60325406758447"><g id="svgg"><path id="path0" d="M45.314 0.989 C 45.140 1.271,45.249 1.502,45.557 1.502 C 45.865 1.502,45.977 1.727,45.807 2.003 C 45.637 2.278,45.160 2.503,44.747 2.503 C 44.334 2.503,44.121 2.300,44.274 2.053 C 44.428 1.805,43.765 1.602,42.802 1.602 C 41.001 1.602,40.672 1.923,41.562 2.814 C 41.910 3.161,41.345 3.282,39.797 3.190 C 38.458 3.112,37.641 3.252,37.814 3.531 C 37.975 3.792,38.713 4.010,39.454 4.016 C 41.219 4.031,43.928 5.979,42.207 5.996 C 41.604 6.003,40.974 6.228,40.807 6.498 C 40.614 6.810,40.173 6.781,39.593 6.419 C 38.592 5.794,36.809 6.219,37.274 6.972 C 37.445 7.249,36.733 7.361,35.554 7.243 C 34.447 7.133,33.542 7.261,33.542 7.527 C 33.542 7.792,33.805 8.010,34.126 8.010 C 34.447 8.010,34.579 8.141,34.419 8.301 C 34.259 8.461,33.672 8.348,33.115 8.049 C 31.603 7.240,31.269 8.310,32.733 9.270 C 34.387 10.353,34.922 11.730,33.549 11.371 C 32.308 11.047,32.233 11.902,33.417 12.873 C 34.218 13.530,34.186 13.562,33.041 13.251 C 31.074 12.716,28.038 12.730,28.006 13.274 C 27.989 13.545,28.479 13.886,29.095 14.031 C 30.488 14.360,31.031 15.641,29.717 15.503 C 27.868 15.307,27.034 15.533,27.034 16.229 C 27.034 16.619,26.752 17.055,26.408 17.198 C 25.979 17.376,26.153 17.782,26.964 18.491 C 27.614 19.059,27.952 19.532,27.715 19.540 C 27.478 19.549,27.735 19.910,28.285 20.343 C 29.270 21.117,29.268 21.124,28.160 20.794 C 26.752 20.374,26.751 20.701,28.153 22.970 C 28.769 23.966,29.163 24.885,29.029 25.012 C 28.799 25.232,34.826 27.490,41.246 29.590 C 51.745 33.023,54.848 37.983,50.766 44.806 C 45.383 53.804,38.158 57.666,25.397 58.369 C 18.817 58.731,17.987 59.006,21.661 59.605 C 23.906 59.970,22.707 60.077,13.767 60.306 C 12.115 60.349,10.088 60.733,9.262 61.160 C 8.324 61.644,7.029 61.845,5.814 61.694 C 3.212 61.370,3.831 62.376,6.513 62.829 C 7.614 63.015,8.397 63.358,8.253 63.591 C 8.110 63.823,8.616 64.018,9.378 64.023 C 10.140 64.028,11.214 64.139,11.765 64.268 C 12.315 64.398,14.075 64.521,15.674 64.542 C 17.490 64.566,18.465 64.770,18.271 65.085 C 17.672 66.053,19.559 66.226,20.283 65.269 C 20.695 64.726,21.001 64.594,21.010 64.956 C 21.019 65.300,21.421 65.600,21.902 65.622 C 22.426 65.645,22.527 65.763,22.153 65.914 C 21.040 66.363,21.489 67.083,22.904 67.119 C 26.274 67.205,20.062 68.689,15.770 68.822 C 7.871 69.068,2.330 69.688,1.613 70.406 C 1.036 70.983,1.086 71.089,1.937 71.089 C 3.452 71.089,3.721 72.017,2.310 72.371 C 0.964 72.709,0.365 73.652,0.264 75.594 C 0.194 76.922,0.426 77.320,2.664 79.729 C 3.752 80.901,3.924 81.345,3.415 81.668 C 2.571 82.203,1.572 82.136,14.117 82.384 C 24.289 82.584,30.243 82.031,26.783 81.206 C 26.124 81.048,26.892 80.661,29.032 80.070 C 30.820 79.577,32.372 79.264,32.481 79.373 C 32.734 79.626,30.196 80.601,29.284 80.601 C 28.905 80.601,28.456 80.826,28.285 81.101 C 28.115 81.377,28.228 81.602,28.536 81.602 C 28.844 81.602,28.956 81.827,28.786 82.103 C 28.616 82.378,28.828 82.603,29.257 82.603 C 29.686 82.603,30.038 82.399,30.038 82.149 C 30.038 81.900,30.432 81.798,30.914 81.923 C 31.395 82.048,32.747 81.812,33.917 81.398 C 35.088 80.984,36.045 80.860,36.045 81.124 C 36.045 81.387,36.383 81.602,36.796 81.602 C 37.209 81.602,37.550 81.208,37.555 80.726 C 37.561 80.006,37.644 79.978,38.017 80.569 C 38.337 81.074,38.669 81.138,39.136 80.784 C 40.035 80.102,46.328 78.329,47.184 78.516 C 47.390 78.561,47.559 78.358,47.559 78.064 C 47.559 77.765,47.982 77.664,48.519 77.834 C 49.046 78.001,49.601 77.939,49.752 77.695 C 49.902 77.452,51.442 76.542,53.173 75.674 C 54.904 74.806,57.517 72.964,58.980 71.581 C 60.444 70.198,61.833 69.185,62.067 69.330 C 62.628 69.677,66.040 65.674,66.397 64.252 C 66.563 63.591,66.946 63.249,67.347 63.403 C 68.057 63.676,70.797 60.285,71.393 58.397 C 71.737 57.308,72.046 56.910,75.339 53.317 C 77.979 50.436,78.825 48.686,78.036 47.736 C 77.578 47.184,77.563 46.889,77.977 46.633 C 78.655 46.214,79.601 42.254,79.837 38.844 C 79.950 37.215,80.285 36.232,80.832 35.925 C 81.366 35.627,81.498 35.257,81.207 34.878 C 80.399 33.829,79.490 29.668,79.833 28.588 C 80.039 27.939,79.949 27.534,79.599 27.534 C 79.259 27.534,79.159 27.133,79.349 26.533 C 79.531 25.959,79.439 25.532,79.133 25.532 C 78.839 25.532,78.598 25.205,78.598 24.806 C 78.598 24.407,78.204 23.859,77.722 23.590 C 77.240 23.320,76.906 22.968,76.979 22.808 C 77.053 22.648,76.719 21.918,76.239 21.184 C 75.603 20.213,75.531 19.796,75.977 19.647 C 76.429 19.497,76.449 19.184,76.053 18.444 C 75.739 17.857,75.213 17.561,74.779 17.728 C 74.347 17.894,74.173 17.797,74.360 17.494 C 74.757 16.852,73.641 15.430,73.035 15.805 C 72.790 15.956,72.591 15.728,72.591 15.298 C 72.591 13.975,65.319 7.494,61.184 5.131 C 59.872 4.382,58.896 4.313,59.321 5.001 C 59.496 5.284,59.296 5.368,58.852 5.198 C 58.427 5.035,58.193 4.715,58.334 4.488 C 58.475 4.260,58.361 3.933,58.081 3.760 C 57.801 3.587,57.572 3.729,57.572 4.076 C 57.572 4.566,57.438 4.572,56.971 4.105 C 56.641 3.775,55.852 3.504,55.219 3.504 C 54.586 3.504,54.068 3.306,54.068 3.064 C 54.068 2.208,51.124 1.329,50.365 1.959 C 49.825 2.407,49.470 2.340,48.790 1.660 C 47.765 0.635,45.771 0.250,45.314 0.989 M104.794 37.069 C 98.720 38.270,95.476 42.086,97.132 46.083 C 98.461 49.291,100.490 50.103,110.107 51.278 C 116.465 52.055,118.080 52.718,117.472 54.302 C 115.990 58.165,101.126 56.374,101.126 52.332 C 101.126 51.227,99.716 50.432,98.359 50.772 C 97.103 51.088,97.084 51.163,97.227 55.209 L 97.372 59.324 98.849 59.492 C 99.794 59.600,100.542 59.365,100.926 58.840 C 101.480 58.082,101.730 58.088,104.205 58.920 C 113.292 61.977,124.197 58.225,123.526 52.272 C 123.009 47.683,120.041 46.088,109.664 44.820 C 102.720 43.971,101.878 43.581,103.494 41.966 C 106.178 39.282,116.330 40.607,118.395 43.911 C 119.122 45.074,119.780 45.524,120.776 45.538 L 122.153 45.557 122.153 41.552 L 122.153 37.547 120.635 37.547 C 119.759 37.547,118.998 37.859,118.834 38.285 C 118.591 38.919,118.361 38.927,117.223 38.346 C 114.125 36.765,108.995 36.238,104.794 37.069 M138.173 37.344 C 131.169 39.208,126.959 44.434,127.913 50.080 C 130.170 63.443,156.689 63.439,158.947 50.075 C 160.461 41.110,149.429 34.349,138.173 37.344 M327.951 37.309 C 317.398 40.271,318.303 48.928,329.329 50.501 C 331.440 50.801,334.856 51.283,336.921 51.572 C 345.059 52.707,342.040 57.109,333.583 56.437 C 329.634 56.124,326.978 54.814,325.433 52.417 C 323.110 48.814,321.652 49.837,321.652 55.069 L 321.652 59.324 323.129 59.492 C 324.031 59.595,324.821 59.366,325.158 58.906 C 325.646 58.239,326.109 58.263,329.177 59.114 C 339.634 62.013,349.691 57.475,347.397 50.890 C 346.144 47.295,343.450 46.150,333.536 44.999 C 326.553 44.189,324.872 42.852,328.782 41.219 C 333.040 39.440,341.177 41.152,342.729 44.153 C 344.369 47.324,346.183 45.961,346.183 41.559 C 346.183 37.480,345.584 36.761,343.233 38.018 C 342.405 38.462,341.673 38.414,339.939 37.802 C 336.619 36.631,331.165 36.406,327.951 37.309 M383.229 36.886 C 373.718 39.017,369.108 45.604,372.156 52.707 C 376.050 61.784,394.285 62.699,398.762 54.042 C 400.506 50.670,397.545 49.498,395.527 52.763 C 391.044 60.016,378.473 56.702,378.473 48.267 C 378.473 40.264,391.397 37.248,395.547 44.282 C 396.364 45.667,396.914 46.058,398.047 46.058 L 399.499 46.058 399.499 42.053 L 399.499 38.048 398.039 38.048 C 397.236 38.048,396.504 38.255,396.412 38.508 C 396.320 38.761,394.668 38.429,392.741 37.770 C 389.494 36.660,385.780 36.315,383.229 36.886 M161.702 39.549 C 161.702 40.771,161.912 41.053,162.829 41.059 C 165.006 41.074,165.152 41.519,165.207 48.324 C 165.235 51.896,165.247 55.100,165.233 55.444 C 165.217 55.823,164.502 56.070,163.421 56.070 C 161.769 56.070,161.647 56.173,161.794 57.447 L 161.952 58.824 168.085 58.964 L 174.218 59.105 174.218 57.587 C 174.218 56.185,174.084 56.070,172.450 56.070 C 170.234 56.070,170.140 55.805,170.318 50.056 L 170.463 45.368 178.223 52.213 C 185.566 58.691,186.096 59.059,188.099 59.066 L 190.215 59.074 190.351 50.188 L 190.488 41.302 192.396 41.144 C 194.139 41.001,194.290 40.872,194.148 39.643 L 193.992 38.298 187.735 38.298 L 181.477 38.298 181.477 39.541 C 181.477 40.590,181.771 40.832,183.360 41.090 C 185.865 41.497,185.795 41.344,185.628 46.068 L 185.482 50.208 178.801 44.128 L 172.119 38.048 166.911 38.048 L 161.702 38.048 161.702 39.549 M196.092 38.368 C 195.120 39.340,195.768 41.052,197.121 41.087 C 200.921 41.184,208.241 49.309,208.253 53.442 L 208.260 56.070 206.508 56.070 C 204.891 56.070,204.756 56.187,204.756 57.586 L 204.756 59.101 211.890 58.962 L 219.024 58.824 219.179 57.479 C 219.321 56.250,219.170 56.121,217.427 55.977 C 213.999 55.694,214.305 52.023,218.119 47.677 C 223.742 41.269,224.000 41.051,225.966 41.051 C 227.653 41.051,227.785 40.943,227.785 39.549 L 227.785 38.048 221.777 38.048 L 215.770 38.048 215.770 39.549 C 215.770 40.718,215.992 41.051,216.771 41.051 C 218.204 41.051,218.028 41.479,215.378 44.452 L 213.016 47.102 210.889 44.364 C 208.422 41.191,208.441 41.252,209.802 40.896 C 210.550 40.700,210.796 40.297,210.678 39.461 C 210.512 38.293,197.167 37.293,196.092 38.368 M242.303 39.549 C 242.303 40.852,242.485 41.052,243.680 41.059 C 246.266 41.073,246.348 41.327,246.197 48.850 L 246.058 55.820 244.431 55.977 C 243.000 56.115,242.804 56.311,242.804 57.604 L 242.804 59.074 248.561 59.074 L 254.318 59.074 254.318 57.604 C 254.318 56.311,254.122 56.115,252.691 55.977 L 251.064 55.820 250.960 49.562 L 250.856 43.304 252.090 45.807 C 252.769 47.184,254.438 50.732,255.799 53.692 L 258.274 59.074 260.584 59.074 L 262.894 59.074 265.368 53.692 C 266.729 50.732,268.394 47.184,269.069 45.807 L 270.295 43.304 270.191 49.562 L 270.088 55.820 268.431 55.979 C 266.960 56.120,266.791 56.289,266.929 57.481 L 267.084 58.824 273.967 58.963 L 280.851 59.102 280.851 57.586 C 280.851 56.187,280.716 56.070,279.099 56.070 L 277.347 56.070 277.347 48.821 L 277.347 41.571 278.723 41.269 C 281.206 40.725,281.424 40.568,281.262 39.427 C 281.104 38.319,280.974 38.298,274.364 38.298 L 267.627 38.298 264.754 44.509 L 261.881 50.720 259.387 45.392 C 258.015 42.462,256.749 39.611,256.573 39.056 C 256.272 38.109,255.830 38.048,249.278 38.048 L 242.303 38.048 242.303 39.549 M284.702 38.368 C 283.797 39.273,284.370 41.051,285.566 41.051 C 288.313 41.051,288.360 41.169,288.360 48.040 C 288.360 58.173,290.149 59.825,301.126 59.825 C 311.666 59.825,313.012 58.544,313.392 48.150 L 313.642 41.302 315.269 41.145 C 316.700 41.007,316.896 40.810,316.896 39.518 L 316.896 38.048 310.889 38.048 L 304.881 38.048 304.881 39.518 C 304.881 40.810,305.077 41.007,306.508 41.145 L 308.135 41.302 308.280 47.309 C 308.497 56.282,307.959 57.071,301.629 57.071 C 296.264 57.071,295.804 56.328,295.980 47.943 L 296.120 41.302 297.872 41.051 C 299.341 40.842,299.625 40.598,299.625 39.549 L 299.625 38.298 292.337 38.160 C 288.328 38.084,284.893 38.178,284.702 38.368 M352.774 38.381 C 351.658 39.497,352.495 40.995,354.318 41.146 L 356.195 41.302 356.195 48.561 L 356.195 55.820 354.288 55.977 C 352.544 56.121,352.394 56.250,352.536 57.479 L 352.691 58.824 360.075 58.962 L 367.459 59.101 367.459 57.616 C 367.459 56.261,367.295 56.117,365.582 55.975 L 363.705 55.820 363.705 48.561 L 363.705 41.302 365.582 41.146 C 367.290 41.005,367.459 40.858,367.459 39.519 L 367.459 38.048 360.284 38.048 C 356.337 38.048,352.958 38.198,352.774 38.381 M147.349 41.234 C 153.561 43.829,153.546 53.234,147.325 55.884 C 141.321 58.443,135.169 54.588,135.169 48.267 C 135.169 42.374,141.428 38.760,147.349 41.234 M76.095 50.468 C 76.095 50.690,75.740 51.310,75.307 51.844 C 74.874 52.379,74.614 52.591,74.729 52.315 C 74.845 52.040,75.080 51.421,75.251 50.939 C 75.572 50.039,76.095 49.746,76.095 50.468 M23.279 79.360 C 20.220 80.147,18.023 80.260,18.023 79.630 C 18.023 79.168,19.791 78.907,23.780 78.780 L 25.782 78.716 23.279 79.360 " stroke="none" fill="#000000" fill-rule="evenodd"></path></g></svg>