<svg id="svg" xmlns="http://www.w3.org/2000/svg" xmlns:xlink="http://www.w3.org/1999/xlink" width="400" height="400" viewBox="0, 0, 400,400"><g id="svgg"><path id="path0" d="M160.714 4.563 C -71.507 54.438,-42.015 392.253,195.042 397.769 C 363.475 401.689,460.724 215.335,360.651 80.422 C 316.504 20.906,232.688 -10.896,160.714 4.563 M215.038 110.781 C 284.857 117.402,350.639 144.770,347.478 165.881 C 345.046 182.113,333.105 185.282,312.852 175.070 C 253.128 144.955,154.343 135.888,89.942 154.610 C 69.074 160.676,53.986 142.535,67.019 127.047 C 78.447 113.465,154.828 105.071,215.038 110.781 M212.561 181.261 C 255.573 187.471,311.178 209.098,317.539 222.092 C 326.166 239.716,309.151 247.901,287.870 236.364 C 238.491 209.594,166.884 200.771,109.234 214.353 C 86.506 219.708,80.826 218.662,76.926 208.403 C 71.458 194.022,86.863 185.478,127.400 180.410 C 158.151 176.566,181.662 176.801,212.561 181.261 M196.053 244.736 C 243.232 249.847,294.643 271.342,294.643 285.955 C 294.643 296.947,283.668 298.722,267.799 290.297 C 229.514 269.972,176.203 262.505,126.786 270.547 C 88.292 276.811,81.221 275.317,84.653 261.643 C 87.885 248.765,148.431 239.576,196.053 244.736 " stroke="none" fill="#000000" fill-rule="evenodd"></path></g></svg>