<svg id="svg" version="1.1" xmlns="http://www.w3.org/2000/svg" xmlns:xlink="http://www.w3.org/1999/xlink" width="400" height="400" viewBox="0, 0, 400,400"><g id="svgg"><path id="path0" d="M175.000 1.185 C 11.863 21.386,-58.381 221.347,56.207 339.352 C 162.324 448.634,347.623 403.882,391.747 258.315 C 433.720 119.840,318.701 -16.609,175.000 1.185 M347.656 110.405 C 347.656 110.542,329.060 150.884,306.331 200.054 L 265.006 289.453 158.590 289.651 C 73.543 289.810,52.254 289.653,52.570 288.870 C 52.788 288.331,70.615 249.746,92.187 203.125 C 113.759 156.504,132.233 116.514,133.239 114.258 L 135.070 110.156 241.363 110.156 C 299.824 110.156,347.656 110.268,347.656 110.405 " stroke="none" fill="#000000" fill-rule="evenodd"></path></g></svg>