<svg id="svg" version="1.1" xmlns="http://www.w3.org/2000/svg" xmlns:xlink="http://www.w3.org/1999/xlink" width="400" height="400" viewBox="0, 0, 400,400"><g id="svgg"><path id="path0" d="M0.000 8.400 C 0.000 15.382,0.096 16.800,0.567 16.800 C 0.925 16.800,1.295 16.047,1.572 14.757 C 1.813 13.633,2.368 12.259,2.805 11.703 C 3.242 11.147,3.600 10.479,3.600 10.218 C 3.600 9.958,4.005 9.359,4.500 8.888 C 4.995 8.416,6.388 7.034,7.595 5.815 C 8.802 4.597,9.993 3.600,10.241 3.600 C 10.489 3.600,11.152 3.238,11.715 2.796 C 12.495 2.181,15.780 1.200,17.055 1.200 C 17.135 1.200,17.200 0.930,17.200 0.600 C 17.200 0.085,15.978 0.000,8.600 0.000 L 0.000 0.000 0.000 8.400 M383.200 0.386 C 383.200 0.908,384.557 1.600,385.581 1.600 C 387.985 1.600,395.045 7.194,396.727 10.431 C 397.119 11.184,397.637 12.160,397.880 12.600 C 398.123 13.040,398.474 14.106,398.661 14.970 C 399.556 19.113,400.000 16.947,400.000 8.433 L 400.000 0.000 391.600 0.000 C 386.471 0.000,383.200 0.150,383.200 0.386 M280.639 60.443 C 276.399 60.674,273.980 61.004,272.261 61.584 C 270.932 62.033,269.244 62.400,268.509 62.400 C 267.775 62.400,266.507 62.679,265.691 63.020 C 264.874 63.361,263.395 63.819,262.403 64.039 C 260.649 64.427,256.417 65.985,254.400 66.987 C 253.850 67.260,252.332 68.005,251.028 68.642 C 248.624 69.815,246.440 71.108,245.019 72.200 C 244.589 72.530,244.075 72.800,243.876 72.800 C 242.640 72.800,233.092 81.641,229.542 86.073 C 226.147 90.312,225.979 90.550,225.740 91.500 C 225.615 91.995,225.346 92.400,225.142 92.400 C 224.938 92.400,224.417 93.165,223.984 94.100 C 223.551 95.035,222.591 96.970,221.850 98.400 C 219.775 102.403,218.800 104.624,218.800 105.345 C 218.800 105.707,218.440 106.675,218.000 107.496 C 217.560 108.316,217.200 109.394,217.200 109.890 C 217.200 110.386,216.833 111.738,216.384 112.896 C 215.935 114.053,215.401 116.260,215.196 117.800 C 214.992 119.340,214.526 121.590,214.161 122.800 C 213.578 124.734,213.475 128.504,213.306 154.000 C 213.196 170.635,212.956 183.298,212.743 183.700 C 212.396 184.355,210.775 184.400,187.414 184.400 C 165.259 184.400,162.387 184.471,161.829 185.029 C 161.001 185.857,160.856 243.896,161.680 244.720 C 162.043 245.083,168.260 245.201,187.180 245.206 C 200.941 245.209,212.425 245.355,212.701 245.530 C 213.100 245.784,213.182 261.384,213.101 322.206 L 213.000 398.564 212.000 398.842 C 211.450 398.995,168.430 399.132,116.400 399.147 C 17.074 399.176,15.168 399.145,13.258 397.471 C 12.896 397.154,12.150 396.758,11.600 396.591 C 9.530 395.963,4.830 391.597,3.566 389.127 C 3.151 388.317,2.649 387.554,2.451 387.432 C 2.253 387.309,1.971 386.532,1.824 385.704 C 1.398 383.301,1.182 382.800,0.573 382.800 C 0.093 382.800,0.000 384.202,0.000 391.400 L 0.000 400.000 139.200 400.000 C 215.760 400.000,278.400 399.886,278.400 399.746 C 278.400 399.606,277.950 399.075,277.400 398.565 L 276.400 397.638 276.400 321.809 L 276.400 245.980 277.426 245.590 C 278.051 245.352,288.008 245.198,302.926 245.194 C 316.387 245.191,327.649 245.030,327.953 244.838 C 328.322 244.604,328.625 243.110,328.865 240.344 C 329.062 238.065,329.480 234.940,329.793 233.400 C 330.106 231.860,330.558 228.207,330.798 225.283 C 331.037 222.359,331.418 219.479,331.644 218.883 C 331.871 218.287,332.148 215.910,332.259 213.600 C 332.371 211.290,332.807 207.600,333.227 205.400 C 333.648 203.200,334.162 199.107,334.370 196.305 C 334.577 193.502,334.866 191.017,335.011 190.782 C 335.156 190.547,335.417 189.330,335.590 188.077 C 336.152 184.019,339.239 184.400,305.800 184.400 C 277.170 184.400,276.418 184.380,276.014 183.626 C 275.744 183.121,275.600 175.556,275.600 161.830 C 275.600 139.080,276.045 133.988,278.422 129.546 C 278.850 128.746,279.200 127.861,279.200 127.579 C 279.200 126.978,279.779 126.296,282.964 123.141 C 284.265 121.854,285.548 120.800,285.815 120.800 C 286.083 120.800,286.526 120.531,286.799 120.201 C 287.072 119.872,288.160 119.346,289.217 119.032 C 290.273 118.718,291.507 118.264,291.960 118.021 C 293.675 117.103,301.192 116.662,319.000 116.435 L 337.400 116.200 337.400 89.400 L 337.400 62.600 333.600 62.142 C 331.510 61.890,328.270 61.488,326.400 61.249 C 319.412 60.357,291.308 59.862,280.639 60.443 M398.790 384.226 C 398.576 384.790,398.400 385.610,398.400 386.047 C 398.400 386.485,397.950 387.505,397.400 388.314 C 396.850 389.123,396.400 389.976,396.400 390.210 C 396.400 390.843,390.783 396.181,389.400 396.862 C 388.740 397.187,387.840 397.648,387.400 397.887 C 386.960 398.126,385.894 398.474,385.030 398.661 C 380.887 399.556,383.053 400.000,391.567 400.000 L 400.000 400.000 400.000 391.600 C 400.000 383.356,399.735 381.741,398.790 384.226 M278.800 399.600 C 278.800 399.864,295.333 400.000,327.600 400.000 C 359.867 400.000,376.400 399.864,376.400 399.600 C 376.400 399.336,359.867 399.200,327.600 399.200 C 295.333 399.200,278.800 399.336,278.800 399.600 " stroke="none" fill="#fbfbfb" fill-rule="evenodd"></path><path id="path1" d="M17.200 0.600 C 17.200 0.930,17.135 1.200,17.055 1.200 C 15.780 1.200,12.495 2.181,11.715 2.796 C 11.152 3.238,10.489 3.600,10.241 3.600 C 9.993 3.600,8.802 4.597,7.595 5.815 C 6.388 7.034,4.995 8.416,4.500 8.888 C 4.005 9.359,3.600 9.958,3.600 10.218 C 3.600 10.479,3.242 11.147,2.805 11.703 C 2.368 12.259,1.813 13.633,1.572 14.757 C 1.295 16.047,0.925 16.800,0.567 16.800 C 0.079 16.800,0.000 42.156,0.000 199.800 C 0.000 358.374,0.076 382.800,0.573 382.800 C 1.182 382.800,1.398 383.301,1.824 385.704 C 1.971 386.532,2.253 387.309,2.451 387.432 C 2.649 387.554,3.151 388.317,3.566 389.127 C 4.830 391.597,9.530 395.963,11.600 396.591 C 12.150 396.758,12.896 397.154,13.258 397.471 C 15.168 399.145,17.074 399.176,116.400 399.147 C 168.430 399.132,211.450 398.995,212.000 398.842 L 213.000 398.564 213.101 322.206 C 213.182 261.384,213.100 245.784,212.701 245.530 C 212.425 245.355,200.941 245.209,187.180 245.206 C 168.260 245.201,162.043 245.083,161.680 244.720 C 160.856 243.896,161.001 185.857,161.829 185.029 C 162.387 184.471,165.259 184.400,187.414 184.400 C 210.775 184.400,212.396 184.355,212.743 183.700 C 212.956 183.298,213.196 170.635,213.306 154.000 C 213.475 128.504,213.578 124.734,214.161 122.800 C 214.526 121.590,214.992 119.340,215.196 117.800 C 215.401 116.260,215.935 114.053,216.384 112.896 C 216.833 111.738,217.200 110.386,217.200 109.890 C 217.200 109.394,217.560 108.316,218.000 107.496 C 218.440 106.675,218.800 105.707,218.800 105.345 C 218.800 104.624,219.775 102.403,221.850 98.400 C 222.591 96.970,223.551 95.035,223.984 94.100 C 224.417 93.165,224.938 92.400,225.142 92.400 C 225.346 92.400,225.615 91.995,225.740 91.500 C 225.979 90.550,226.147 90.312,229.542 86.073 C 233.092 81.641,242.640 72.800,243.876 72.800 C 244.075 72.800,244.589 72.530,245.019 72.200 C 246.440 71.108,248.624 69.815,251.028 68.642 C 252.332 68.005,253.850 67.260,254.400 66.987 C 256.417 65.985,260.649 64.427,262.403 64.039 C 263.395 63.819,264.874 63.361,265.691 63.020 C 266.507 62.679,267.782 62.400,268.525 62.400 C 269.267 62.400,270.911 62.044,272.177 61.608 C 277.021 59.941,314.278 59.694,326.400 61.248 C 328.270 61.488,331.510 61.890,333.600 62.142 L 337.400 62.600 337.400 89.400 L 337.400 116.200 319.000 116.435 C 301.192 116.662,293.675 117.103,291.960 118.021 C 291.507 118.264,290.273 118.718,289.217 119.032 C 288.160 119.346,287.072 119.872,286.799 120.201 C 286.526 120.531,286.083 120.800,285.815 120.800 C 285.548 120.800,284.265 121.854,282.964 123.141 C 279.779 126.296,279.200 126.978,279.200 127.579 C 279.200 127.861,278.850 128.746,278.422 129.546 C 276.045 133.988,275.600 139.080,275.600 161.830 C 275.600 175.556,275.744 183.121,276.014 183.626 C 276.418 184.380,277.170 184.400,305.800 184.400 C 339.239 184.400,336.152 184.019,335.590 188.077 C 335.417 189.330,335.156 190.547,335.011 190.782 C 334.866 191.017,334.577 193.502,334.370 196.305 C 334.162 199.107,333.648 203.200,333.227 205.400 C 332.807 207.600,332.371 211.290,332.259 213.600 C 332.148 215.910,331.871 218.287,331.644 218.883 C 331.418 219.479,331.037 222.359,330.798 225.283 C 330.558 228.207,330.106 231.860,329.793 233.400 C 329.480 234.940,329.062 238.065,328.865 240.344 C 328.625 243.110,328.322 244.604,327.953 244.838 C 327.649 245.030,316.387 245.191,302.926 245.194 C 288.008 245.198,278.051 245.352,277.426 245.590 L 276.400 245.980 276.400 321.776 L 276.400 397.572 277.600 398.800 C 278.260 399.475,278.800 399.841,278.800 399.614 C 278.800 399.331,294.249 399.200,327.600 399.200 C 359.867 399.200,376.400 399.336,376.400 399.600 C 376.400 400.296,382.837 400.102,383.357 399.391 C 383.602 399.056,384.522 398.669,385.401 398.532 C 386.281 398.395,387.478 397.949,388.062 397.541 C 388.646 397.134,389.329 396.800,389.580 396.800 C 390.176 396.800,396.400 390.800,396.400 390.226 C 396.400 389.984,396.822 389.159,397.338 388.393 C 397.853 387.627,398.389 386.281,398.529 385.401 C 398.668 384.522,399.056 383.602,399.391 383.357 C 400.321 382.677,400.321 17.323,399.391 16.643 C 399.056 16.398,398.668 15.478,398.529 14.599 C 398.389 13.719,397.853 12.373,397.338 11.607 C 396.822 10.841,396.400 10.031,396.399 9.807 C 396.395 8.136,387.642 1.600,385.408 1.600 C 384.853 1.600,384.040 1.240,383.600 0.800 C 382.510 -0.290,17.200 -0.489,17.200 0.600 " stroke="none" fill="#000000" fill-rule="evenodd"></path></g></svg>