<svg id="svg" version="1.1" xmlns="http://www.w3.org/2000/svg" xmlns:xlink="http://www.w3.org/1999/xlink" width="400" height="400" viewBox="0, 0, 400,400"><g id="svgg"><path id="path0" d="M0.000 200.000 L 0.000 400.000 200.000 400.000 L 400.000 400.000 400.000 200.000 L 400.000 0.000 200.000 0.000 L 0.000 0.000 0.000 200.000 M328.340 34.604 C 329.517 35.152,330.644 35.600,330.846 35.600 C 331.573 35.600,336.802 39.680,337.671 40.925 C 338.160 41.626,338.794 42.344,339.080 42.520 C 339.366 42.696,339.600 43.073,339.600 43.358 C 339.600 43.643,339.960 44.202,340.400 44.600 C 340.840 44.998,341.200 45.528,341.200 45.777 C 341.200 46.027,341.576 46.944,342.035 47.815 C 342.495 48.687,343.110 50.390,343.403 51.600 C 343.906 53.677,344.243 54.936,345.974 61.200 C 347.056 65.114,347.962 68.705,348.599 71.600 C 348.914 73.030,349.440 74.920,349.768 75.800 C 350.096 76.680,350.373 77.867,350.382 78.437 C 350.392 79.008,350.748 80.486,351.173 81.722 C 351.598 82.958,352.075 84.828,352.233 85.878 C 352.390 86.928,352.746 88.331,353.024 88.996 C 353.302 89.661,353.740 91.364,353.996 92.780 C 354.253 94.197,354.719 95.720,355.032 96.167 C 355.344 96.613,355.600 97.656,355.600 98.485 C 355.600 99.313,355.953 100.921,356.385 102.056 C 356.816 103.192,357.282 104.949,357.421 105.961 C 357.559 106.972,357.992 108.700,358.384 109.800 C 358.775 110.900,359.219 112.647,359.370 113.682 C 359.520 114.718,359.902 116.083,360.218 116.717 C 360.535 117.351,360.961 118.933,361.165 120.234 C 361.370 121.536,361.798 123.410,362.116 124.400 C 362.936 126.951,363.972 131.038,364.428 133.518 C 364.642 134.682,365.173 136.572,365.608 137.718 C 367.887 143.714,364.753 158.038,359.726 164.600 C 359.221 165.260,358.538 166.160,358.210 166.600 C 356.260 169.212,355.187 170.437,353.400 172.092 C 348.948 176.216,340.830 180.775,336.489 181.588 C 335.328 181.805,333.978 182.206,333.489 182.479 C 331.983 183.319,318.634 183.178,316.492 182.300 C 315.552 181.915,314.227 181.600,313.546 181.600 C 312.866 181.600,311.654 181.255,310.854 180.834 C 310.055 180.412,308.140 179.480,306.600 178.761 C 297.637 174.577,288.882 164.800,286.163 155.937 C 285.848 154.912,285.324 153.562,284.998 152.937 C 284.672 152.312,284.401 151.170,284.397 150.400 C 284.372 146.030,283.657 146.368,282.065 151.500 C 280.220 157.447,278.691 160.836,276.086 164.752 C 274.019 167.861,268.183 174.400,267.476 174.400 C 267.305 174.400,266.209 175.107,265.039 175.971 C 263.869 176.835,262.279 177.807,261.505 178.130 C 260.731 178.454,259.975 178.917,259.825 179.159 C 259.675 179.402,259.248 179.606,258.876 179.613 C 258.504 179.619,257.300 180.068,256.200 180.609 C 255.100 181.150,253.727 181.594,253.149 181.596 C 252.571 181.598,251.401 181.908,250.549 182.283 C 248.316 183.268,235.839 183.308,233.200 182.339 C 232.210 181.975,230.688 181.575,229.817 181.450 C 228.947 181.326,227.417 180.826,226.417 180.340 C 222.381 178.377,220.541 177.401,219.204 176.515 C 218.432 176.004,217.445 175.364,217.011 175.093 C 214.625 173.603,206.400 164.508,206.400 163.359 C 206.400 163.248,205.950 162.495,205.400 161.686 C 204.850 160.877,204.400 159.969,204.400 159.669 C 204.400 159.369,204.055 158.640,203.634 158.048 C 203.213 157.457,202.736 156.259,202.574 155.386 C 202.412 154.514,201.946 153.020,201.540 152.067 C 201.133 151.114,200.797 149.854,200.794 149.267 C 200.784 147.603,200.187 146.904,199.643 147.920 C 199.399 148.375,199.200 149.117,199.200 149.569 C 199.200 150.022,198.840 151.338,198.400 152.496 C 197.960 153.653,197.600 154.888,197.600 155.240 C 197.600 155.593,197.150 156.727,196.600 157.762 C 196.050 158.796,195.600 159.820,195.600 160.037 C 195.600 160.255,195.268 160.920,194.863 161.516 C 194.457 162.112,193.609 163.410,192.979 164.400 C 190.473 168.336,185.949 173.165,182.963 175.093 C 182.543 175.364,181.568 176.004,180.795 176.516 C 177.539 178.673,171.248 181.600,169.868 181.600 C 169.290 181.600,168.048 181.915,167.108 182.300 C 164.675 183.297,152.273 183.322,149.600 182.336 C 148.610 181.970,147.090 181.551,146.222 181.403 C 145.355 181.255,144.005 180.805,143.222 180.402 C 142.440 179.999,140.810 179.193,139.600 178.611 C 138.390 178.029,136.950 177.231,136.400 176.838 C 135.850 176.445,134.594 175.601,133.610 174.962 C 130.329 172.833,125.225 167.128,122.800 162.880 C 122.470 162.302,121.975 161.584,121.700 161.286 C 121.425 160.987,121.200 160.513,121.200 160.231 C 121.200 159.949,120.778 158.926,120.263 157.956 C 119.747 156.987,119.192 155.481,119.028 154.610 C 118.865 153.740,118.501 152.571,118.219 152.014 C 117.938 151.456,117.473 150.010,117.187 148.800 L 116.666 146.600 116.151 147.800 C 115.868 148.460,115.628 149.682,115.618 150.516 C 115.608 151.350,115.255 152.708,114.833 153.535 C 114.412 154.361,113.943 155.697,113.792 156.504 C 113.640 157.311,113.265 158.180,112.958 158.435 C 112.651 158.690,112.400 159.211,112.400 159.593 C 112.400 159.976,111.950 160.951,111.400 161.762 C 110.850 162.572,110.400 163.401,110.400 163.602 C 110.400 164.523,101.416 174.400,100.579 174.400 C 100.407 174.400,99.982 174.674,99.634 175.010 C 97.410 177.150,88.501 181.600,86.440 181.600 C 85.736 181.600,84.584 181.908,83.880 182.285 C 82.023 183.278,69.056 183.316,66.400 182.336 C 65.410 181.970,63.901 181.553,63.046 181.407 C 62.191 181.262,60.844 180.796,60.052 180.372 C 59.260 179.947,58.305 179.600,57.930 179.600 C 57.554 179.600,57.123 179.400,56.972 179.155 C 56.821 178.910,55.955 178.365,55.048 177.944 C 49.650 175.439,43.090 169.107,39.416 162.854 C 39.205 162.494,38.735 161.747,38.372 161.192 C 38.009 160.638,37.583 159.738,37.426 159.192 C 37.268 158.647,36.810 157.480,36.408 156.600 C 34.048 151.439,32.901 142.224,34.193 138.800 C 34.566 137.810,35.125 135.740,35.434 134.200 C 35.743 132.660,36.256 130.770,36.573 130.000 C 36.890 129.230,37.257 127.772,37.390 126.761 C 37.522 125.749,37.984 123.992,38.415 122.856 C 38.847 121.721,39.200 120.113,39.200 119.285 C 39.200 118.456,39.456 117.413,39.768 116.967 C 40.081 116.520,40.536 114.995,40.779 113.578 C 41.023 112.160,41.471 110.280,41.775 109.400 C 42.080 108.520,42.450 107.080,42.599 106.200 C 42.747 105.320,43.213 103.616,43.634 102.414 C 44.055 101.211,44.400 99.793,44.400 99.262 C 44.400 98.731,44.832 96.925,45.360 95.248 C 46.523 91.557,47.075 89.456,47.821 85.885 C 48.133 84.392,48.582 82.807,48.820 82.363 C 49.057 81.919,49.426 80.441,49.640 79.078 C 49.854 77.715,50.383 75.564,50.815 74.298 C 51.247 73.033,51.600 71.554,51.600 71.013 C 51.600 70.472,51.934 69.168,52.343 68.115 C 52.752 67.062,53.210 65.390,53.361 64.400 C 53.512 63.410,53.968 61.610,54.374 60.400 C 54.780 59.190,55.302 57.300,55.533 56.200 C 56.251 52.788,57.380 48.937,57.833 48.356 C 58.071 48.050,58.508 47.170,58.804 46.400 C 60.414 42.214,65.668 37.249,71.007 34.869 L 73.800 33.624 200.000 33.616 L 326.200 33.608 328.340 34.604 M119.421 195.800 C 120.808 196.790,122.127 197.600,122.352 197.600 C 122.576 197.600,122.904 197.825,123.080 198.100 C 123.451 198.680,124.648 199.370,128.800 201.398 C 134.762 204.309,137.599 205.399,141.000 206.082 C 142.100 206.303,143.720 206.739,144.600 207.050 C 148.768 208.524,170.072 208.634,171.811 207.191 C 172.091 206.959,173.463 206.585,174.860 206.361 C 176.257 206.137,177.893 205.709,178.496 205.410 C 179.099 205.110,180.179 204.741,180.896 204.589 C 181.613 204.437,182.830 204.000,183.600 203.618 C 184.370 203.236,186.777 202.041,188.948 200.962 C 192.331 199.281,195.925 197.007,198.981 194.612 C 200.054 193.772,200.162 193.800,202.380 195.500 C 203.457 196.325,205.100 197.450,206.031 198.000 C 206.963 198.550,208.335 199.405,209.081 199.900 C 209.826 200.395,210.673 200.800,210.964 200.800 C 211.254 200.800,211.921 201.135,212.446 201.545 C 212.971 201.955,213.850 202.423,214.400 202.586 C 214.950 202.749,215.950 203.197,216.623 203.582 C 217.295 203.967,218.537 204.412,219.381 204.570 C 220.226 204.729,221.318 205.121,221.808 205.442 C 222.298 205.763,223.667 206.131,224.849 206.260 C 226.032 206.390,227.393 206.740,227.874 207.040 C 230.442 208.640,252.486 208.610,255.595 207.003 C 256.236 206.671,257.264 206.402,257.880 206.404 C 260.242 206.412,270.568 202.341,274.600 199.812 C 279.018 197.041,282.363 194.783,282.586 194.422 C 283.019 193.721,284.344 193.947,284.800 194.800 C 285.035 195.240,285.402 195.600,285.614 195.600 C 285.826 195.600,286.315 195.886,286.700 196.236 C 287.684 197.131,291.427 199.442,293.800 200.621 C 294.900 201.168,296.070 201.776,296.400 201.973 C 297.827 202.825,301.512 204.347,302.794 204.614 C 303.561 204.774,304.551 205.137,304.994 205.421 C 305.437 205.705,306.700 206.064,307.800 206.218 C 308.900 206.372,310.422 206.752,311.182 207.063 C 314.785 208.535,335.318 208.635,338.011 207.194 C 338.469 206.949,339.938 206.572,341.275 206.357 C 342.613 206.142,344.225 205.697,344.859 205.370 C 346.761 204.386,349.516 204.004,349.779 204.688 C 350.577 206.769,349.974 336.312,349.148 340.196 C 348.206 344.625,348.172 344.745,347.612 345.600 C 347.396 345.930,346.938 346.830,346.594 347.600 C 344.934 351.317,340.901 356.586,338.131 358.656 C 337.289 359.285,336.420 360.014,336.200 360.276 C 335.636 360.947,328.001 364.800,327.234 364.800 C 326.885 364.800,325.653 365.160,324.496 365.600 C 322.408 366.394,321.413 366.400,200.144 366.400 L 77.897 366.400 74.648 365.354 C 68.453 363.359,64.955 361.334,60.221 357.000 C 58.874 355.767,55.779 351.939,55.046 350.600 C 54.685 349.940,54.228 349.130,54.030 348.800 C 52.995 347.074,51.643 343.521,51.213 341.400 C 50.946 340.080,50.563 338.187,50.362 337.193 C 50.149 336.137,50.040 308.229,50.099 269.993 L 50.200 204.600 52.238 204.650 C 53.382 204.679,54.721 204.992,55.288 205.363 C 55.844 205.728,57.267 206.135,58.449 206.269 C 59.632 206.403,61.104 206.766,61.720 207.076 C 64.595 208.526,86.888 208.621,88.611 207.191 C 88.891 206.959,90.201 206.594,91.522 206.382 C 92.843 206.169,94.706 205.640,95.662 205.206 C 96.618 204.772,97.739 204.414,98.153 204.409 C 98.567 204.404,99.467 204.061,100.153 203.646 C 100.839 203.231,101.850 202.757,102.400 202.593 C 102.950 202.429,103.878 201.959,104.462 201.548 C 105.046 201.136,105.738 200.800,106.000 200.800 C 106.635 200.800,110.693 198.251,113.744 195.937 C 116.777 193.636,116.400 193.645,119.421 195.800 M262.000 233.674 C 261.230 233.890,259.250 234.291,257.600 234.565 C 255.950 234.840,254.060 235.341,253.400 235.679 C 252.740 236.017,251.543 236.412,250.740 236.557 C 249.937 236.702,249.060 237.086,248.791 237.411 C 248.522 237.735,248.079 238.000,247.807 238.000 C 244.516 238.000,231.330 248.673,227.761 254.226 C 227.346 254.872,226.867 255.580,226.698 255.800 C 226.003 256.700,224.516 259.084,223.951 260.204 C 223.619 260.862,223.151 261.760,222.911 262.200 C 221.997 263.878,220.400 267.929,220.400 268.570 C 220.400 268.938,220.140 269.743,219.822 270.357 C 219.504 270.972,219.132 272.448,218.995 273.637 C 218.859 274.827,218.483 277.567,218.161 279.727 C 217.721 282.676,217.676 284.221,217.979 285.927 C 218.202 287.177,218.574 289.906,218.806 291.992 C 219.039 294.078,219.492 296.186,219.814 296.678 C 220.136 297.170,220.400 297.961,220.400 298.436 C 220.400 299.239,222.010 303.436,222.840 304.800 C 223.041 305.130,223.415 305.850,223.672 306.400 C 226.839 313.200,236.298 322.671,243.794 326.550 C 245.117 327.234,246.438 328.021,246.729 328.297 C 247.019 328.574,247.547 328.800,247.902 328.800 C 248.257 328.800,249.279 329.136,250.174 329.546 C 254.715 331.629,259.724 332.749,267.708 333.466 C 272.743 333.918,285.906 331.730,288.800 329.961 C 289.130 329.759,289.850 329.398,290.400 329.158 C 293.159 327.955,296.374 326.139,297.867 324.939 C 298.784 324.203,299.659 323.600,299.811 323.600 C 300.264 323.600,303.854 320.237,305.802 317.988 C 309.277 313.975,313.818 305.841,314.616 302.200 C 314.761 301.540,315.236 299.904,315.672 298.564 C 316.844 294.961,316.646 277.060,315.424 276.167 C 314.449 275.455,267.691 275.309,266.374 276.014 C 265.175 276.655,265.175 294.145,266.374 294.786 C 266.864 295.048,272.200 295.200,280.950 295.200 C 295.651 295.200,295.507 295.180,295.253 297.147 C 293.729 308.936,272.215 317.805,259.322 311.961 C 258.399 311.542,257.388 311.200,257.076 311.200 C 256.763 311.200,256.050 310.840,255.491 310.400 C 254.931 309.960,254.265 309.600,254.010 309.600 C 252.254 309.600,244.568 301.753,242.841 298.198 C 242.093 296.659,241.170 294.770,240.790 294.000 C 240.411 293.230,239.983 291.610,239.839 290.400 C 239.696 289.190,239.375 287.254,239.125 286.097 C 238.572 283.531,239.631 275.520,240.845 273.088 C 241.260 272.256,241.600 271.348,241.600 271.071 C 241.600 267.914,251.456 257.461,255.608 256.215 C 256.153 256.051,257.023 255.649,257.540 255.323 C 258.583 254.664,267.093 252.795,268.991 252.808 C 270.591 252.819,279.270 254.606,280.240 255.124 C 280.658 255.348,282.035 256.009,283.300 256.595 C 284.566 257.180,287.017 258.816,288.747 260.230 C 290.478 261.643,292.195 262.800,292.562 262.800 C 293.534 262.800,306.093 250.018,305.820 249.307 C 305.699 248.992,305.600 248.584,305.600 248.401 C 305.600 247.638,296.954 241.143,294.349 239.948 C 293.551 239.583,292.776 239.085,292.626 238.842 C 292.476 238.599,291.938 238.400,291.430 238.400 C 290.923 238.400,290.064 238.051,289.522 237.625 C 288.980 237.198,288.011 236.723,287.368 236.569 C 286.726 236.414,285.694 236.032,285.075 235.720 C 284.456 235.409,282.476 234.905,280.675 234.601 C 278.874 234.297,276.771 233.858,276.003 233.624 C 274.278 233.101,263.914 233.138,262.000 233.674 " stroke="none" fill="#fafafa" fill-rule="evenodd"></path><path id="path1" d="M71.007 34.869 C 65.668 37.249,60.414 42.214,58.804 46.400 C 58.508 47.170,58.071 48.050,57.833 48.356 C 57.380 48.937,56.251 52.788,55.533 56.200 C 55.302 57.300,54.780 59.190,54.374 60.400 C 53.968 61.610,53.512 63.410,53.361 64.400 C 53.210 65.390,52.752 67.062,52.343 68.115 C 51.934 69.168,51.600 70.472,51.600 71.013 C 51.600 71.554,51.247 73.033,50.815 74.298 C 50.383 75.564,49.854 77.715,49.640 79.078 C 49.426 80.441,49.057 81.919,48.820 82.363 C 48.582 82.807,48.133 84.392,47.821 85.885 C 47.075 89.456,46.523 91.557,45.360 95.248 C 44.832 96.925,44.400 98.731,44.400 99.262 C 44.400 99.793,44.055 101.211,43.634 102.414 C 43.213 103.616,42.747 105.320,42.599 106.200 C 42.450 107.080,42.080 108.520,41.775 109.400 C 41.471 110.280,41.023 112.160,40.779 113.578 C 40.536 114.995,40.081 116.520,39.768 116.967 C 39.456 117.413,39.200 118.456,39.200 119.285 C 39.200 120.113,38.847 121.721,38.415 122.856 C 37.984 123.992,37.522 125.749,37.390 126.761 C 37.257 127.772,36.890 129.230,36.573 130.000 C 36.256 130.770,35.743 132.660,35.434 134.200 C 35.125 135.740,34.566 137.810,34.193 138.800 C 32.901 142.224,34.048 151.439,36.408 156.600 C 36.810 157.480,37.268 158.647,37.426 159.192 C 37.583 159.738,38.009 160.638,38.372 161.192 C 38.735 161.747,39.205 162.494,39.416 162.854 C 43.090 169.107,49.650 175.439,55.048 177.944 C 55.955 178.365,56.821 178.910,56.972 179.155 C 57.123 179.400,57.554 179.600,57.930 179.600 C 58.305 179.600,59.260 179.947,60.052 180.372 C 60.844 180.796,62.191 181.262,63.046 181.407 C 63.901 181.553,65.410 181.970,66.400 182.336 C 69.056 183.316,82.023 183.278,83.880 182.285 C 84.584 181.908,85.736 181.600,86.440 181.600 C 88.501 181.600,97.410 177.150,99.634 175.010 C 99.982 174.674,100.407 174.400,100.579 174.400 C 101.416 174.400,110.400 164.523,110.400 163.602 C 110.400 163.401,110.850 162.572,111.400 161.762 C 111.950 160.951,112.400 159.976,112.400 159.593 C 112.400 159.211,112.651 158.690,112.958 158.435 C 113.265 158.180,113.640 157.311,113.792 156.504 C 113.943 155.697,114.412 154.361,114.833 153.535 C 115.255 152.708,115.608 151.350,115.618 150.516 C 115.628 149.682,115.868 148.460,116.151 147.800 L 116.666 146.600 117.187 148.800 C 117.473 150.010,117.938 151.456,118.219 152.014 C 118.501 152.571,118.865 153.740,119.028 154.610 C 119.192 155.481,119.747 156.987,120.263 157.956 C 120.778 158.926,121.200 159.949,121.200 160.231 C 121.200 160.513,121.425 160.987,121.700 161.286 C 121.975 161.584,122.470 162.302,122.800 162.880 C 125.225 167.128,130.329 172.833,133.610 174.962 C 134.594 175.601,135.850 176.445,136.400 176.838 C 136.950 177.231,138.390 178.029,139.600 178.611 C 140.810 179.193,142.440 179.999,143.222 180.402 C 144.005 180.805,145.355 181.255,146.222 181.403 C 147.090 181.551,148.610 181.970,149.600 182.336 C 152.273 183.322,164.675 183.297,167.108 182.300 C 168.048 181.915,169.290 181.600,169.868 181.600 C 171.248 181.600,177.539 178.673,180.795 176.516 C 181.568 176.004,182.543 175.364,182.963 175.093 C 185.949 173.165,190.473 168.336,192.979 164.400 C 193.609 163.410,194.457 162.112,194.863 161.516 C 195.268 160.920,195.600 160.255,195.600 160.037 C 195.600 159.820,196.050 158.796,196.600 157.762 C 197.150 156.727,197.600 155.593,197.600 155.240 C 197.600 154.888,197.960 153.653,198.400 152.496 C 198.840 151.338,199.200 150.022,199.200 149.569 C 199.200 149.117,199.399 148.375,199.643 147.920 C 200.187 146.904,200.784 147.603,200.794 149.267 C 200.797 149.854,201.133 151.114,201.540 152.067 C 201.946 153.020,202.412 154.514,202.574 155.386 C 202.736 156.259,203.213 157.457,203.634 158.048 C 204.055 158.640,204.400 159.369,204.400 159.669 C 204.400 159.969,204.850 160.877,205.400 161.686 C 205.950 162.495,206.400 163.248,206.400 163.359 C 206.400 164.508,214.625 173.603,217.011 175.093 C 217.445 175.364,218.432 176.004,219.204 176.515 C 220.541 177.401,222.381 178.377,226.417 180.340 C 227.417 180.826,228.947 181.326,229.817 181.450 C 230.688 181.575,232.210 181.975,233.200 182.339 C 235.839 183.308,248.316 183.268,250.549 182.283 C 251.401 181.908,252.571 181.598,253.149 181.596 C 253.727 181.594,255.100 181.150,256.200 180.609 C 257.300 180.068,258.504 179.619,258.876 179.613 C 259.248 179.606,259.675 179.402,259.825 179.159 C 259.975 178.917,260.731 178.454,261.505 178.130 C 262.279 177.807,263.869 176.835,265.039 175.971 C 266.209 175.107,267.305 174.400,267.476 174.400 C 268.183 174.400,274.019 167.861,276.086 164.752 C 278.691 160.836,280.220 157.447,282.065 151.500 C 283.657 146.368,284.372 146.030,284.397 150.400 C 284.401 151.170,284.672 152.312,284.998 152.937 C 285.324 153.562,285.848 154.912,286.163 155.937 C 288.882 164.800,297.637 174.577,306.600 178.761 C 308.140 179.480,310.055 180.412,310.854 180.834 C 311.654 181.255,312.866 181.600,313.546 181.600 C 314.227 181.600,315.552 181.915,316.492 182.300 C 318.634 183.178,331.983 183.319,333.489 182.479 C 333.978 182.206,335.328 181.805,336.489 181.588 C 340.830 180.775,348.948 176.216,353.400 172.092 C 355.187 170.437,356.260 169.212,358.210 166.600 C 358.538 166.160,359.221 165.260,359.726 164.600 C 364.753 158.038,367.887 143.714,365.608 137.718 C 365.173 136.572,364.642 134.682,364.428 133.518 C 363.972 131.038,362.936 126.951,362.116 124.400 C 361.798 123.410,361.370 121.536,361.165 120.234 C 360.961 118.933,360.535 117.351,360.218 116.717 C 359.902 116.083,359.520 114.718,359.370 113.682 C 359.219 112.647,358.775 110.900,358.384 109.800 C 357.992 108.700,357.559 106.972,357.421 105.961 C 357.282 104.949,356.816 103.192,356.385 102.056 C 355.953 100.921,355.600 99.313,355.600 98.485 C 355.600 97.656,355.344 96.613,355.032 96.167 C 354.719 95.720,354.253 94.197,353.996 92.780 C 353.740 91.364,353.302 89.661,353.024 88.996 C 352.746 88.331,352.390 86.928,352.233 85.878 C 352.075 84.828,351.598 82.958,351.173 81.722 C 350.748 80.486,350.392 79.008,350.382 78.437 C 350.373 77.867,350.096 76.680,349.768 75.800 C 349.440 74.920,348.914 73.030,348.599 71.600 C 347.962 68.705,347.056 65.114,345.974 61.200 C 344.243 54.936,343.906 53.677,343.403 51.600 C 343.110 50.390,342.495 48.687,342.035 47.815 C 341.576 46.944,341.200 46.027,341.200 45.777 C 341.200 45.528,340.840 44.998,340.400 44.600 C 339.960 44.202,339.600 43.643,339.600 43.358 C 339.600 43.073,339.366 42.696,339.080 42.520 C 338.794 42.344,338.160 41.626,337.671 40.925 C 336.802 39.680,331.573 35.600,330.846 35.600 C 330.644 35.600,329.517 35.152,328.340 34.604 L 326.200 33.608 200.000 33.616 L 73.800 33.624 71.007 34.869 M113.744 195.937 C 110.693 198.251,106.635 200.800,106.000 200.800 C 105.738 200.800,105.046 201.136,104.462 201.548 C 103.878 201.959,102.950 202.429,102.400 202.593 C 101.850 202.757,100.839 203.231,100.153 203.646 C 99.467 204.061,98.567 204.404,98.153 204.409 C 97.739 204.414,96.618 204.772,95.662 205.206 C 94.706 205.640,92.843 206.169,91.522 206.382 C 90.201 206.594,88.891 206.959,88.611 207.191 C 86.888 208.621,64.595 208.526,61.720 207.076 C 61.104 206.766,59.632 206.403,58.449 206.269 C 57.267 206.135,55.844 205.728,55.288 205.363 C 54.721 204.992,53.382 204.679,52.238 204.650 L 50.200 204.600 50.099 269.993 C 50.040 308.229,50.149 336.137,50.362 337.193 C 50.563 338.187,50.946 340.080,51.213 341.400 C 51.643 343.521,52.995 347.074,54.030 348.800 C 54.228 349.130,54.685 349.940,55.046 350.600 C 55.779 351.939,58.874 355.767,60.221 357.000 C 64.955 361.334,68.453 363.359,74.648 365.354 L 77.897 366.400 200.144 366.400 C 321.413 366.400,322.408 366.394,324.496 365.600 C 325.653 365.160,326.885 364.800,327.234 364.800 C 328.001 364.800,335.636 360.947,336.200 360.276 C 336.420 360.014,337.289 359.285,338.131 358.656 C 340.901 356.586,344.934 351.317,346.594 347.600 C 346.938 346.830,347.396 345.930,347.612 345.600 C 348.172 344.745,348.206 344.625,349.148 340.196 C 349.974 336.312,350.577 206.769,349.779 204.688 C 349.516 204.004,346.761 204.386,344.859 205.370 C 344.225 205.697,342.613 206.142,341.275 206.357 C 339.938 206.572,338.469 206.949,338.011 207.194 C 335.318 208.635,314.785 208.535,311.182 207.063 C 310.422 206.752,308.900 206.372,307.800 206.218 C 306.700 206.064,305.437 205.705,304.994 205.421 C 304.551 205.137,303.561 204.774,302.794 204.614 C 301.512 204.347,297.827 202.825,296.400 201.973 C 296.070 201.776,294.900 201.168,293.800 200.621 C 291.427 199.442,287.684 197.131,286.700 196.236 C 286.315 195.886,285.826 195.600,285.614 195.600 C 285.402 195.600,285.035 195.240,284.800 194.800 C 284.344 193.947,283.019 193.721,282.586 194.422 C 282.363 194.783,279.018 197.041,274.600 199.812 C 270.568 202.341,260.242 206.412,257.880 206.404 C 257.264 206.402,256.236 206.671,255.595 207.003 C 252.486 208.610,230.442 208.640,227.874 207.040 C 227.393 206.740,226.032 206.390,224.849 206.260 C 223.667 206.131,222.298 205.763,221.808 205.442 C 221.318 205.121,220.226 204.729,219.381 204.570 C 218.537 204.412,217.295 203.967,216.623 203.582 C 215.950 203.197,214.950 202.749,214.400 202.586 C 213.850 202.423,212.971 201.955,212.446 201.545 C 211.921 201.135,211.254 200.800,210.964 200.800 C 210.673 200.800,209.826 200.395,209.081 199.900 C 208.335 199.405,206.963 198.550,206.031 198.000 C 205.100 197.450,203.457 196.325,202.380 195.500 C 200.162 193.800,200.054 193.772,198.981 194.612 C 195.925 197.007,192.331 199.281,188.948 200.962 C 186.777 202.041,184.370 203.236,183.600 203.618 C 182.830 204.000,181.613 204.437,180.896 204.589 C 180.179 204.741,179.099 205.110,178.496 205.410 C 177.893 205.709,176.257 206.137,174.860 206.361 C 173.463 206.585,172.091 206.959,171.811 207.191 C 170.072 208.634,148.768 208.524,144.600 207.050 C 143.720 206.739,142.100 206.303,141.000 206.082 C 137.599 205.399,134.762 204.309,128.800 201.398 C 124.648 199.370,123.451 198.680,123.080 198.100 C 122.904 197.825,122.576 197.600,122.352 197.600 C 122.127 197.600,120.808 196.790,119.421 195.800 C 116.400 193.645,116.777 193.636,113.744 195.937 M276.003 233.624 C 276.771 233.858,278.874 234.297,280.675 234.601 C 282.476 234.905,284.456 235.409,285.075 235.720 C 285.694 236.032,286.726 236.414,287.368 236.569 C 288.011 236.723,288.980 237.198,289.522 237.625 C 290.064 238.051,290.923 238.400,291.430 238.400 C 291.938 238.400,292.476 238.599,292.626 238.842 C 292.776 239.085,293.551 239.583,294.349 239.948 C 296.954 241.143,305.600 247.638,305.600 248.401 C 305.600 248.584,305.699 248.992,305.820 249.307 C 306.093 250.018,293.534 262.800,292.562 262.800 C 292.195 262.800,290.478 261.643,288.747 260.230 C 287.017 258.816,284.566 257.180,283.300 256.595 C 282.035 256.009,280.658 255.348,280.240 255.124 C 279.270 254.606,270.591 252.819,268.991 252.808 C 267.093 252.795,258.583 254.664,257.540 255.323 C 257.023 255.649,256.153 256.051,255.608 256.215 C 251.456 257.461,241.600 267.914,241.600 271.071 C 241.600 271.348,241.260 272.256,240.845 273.088 C 239.631 275.520,238.572 283.531,239.125 286.097 C 239.375 287.254,239.696 289.190,239.839 290.400 C 239.983 291.610,240.411 293.230,240.790 294.000 C 241.170 294.770,242.093 296.659,242.841 298.198 C 244.568 301.753,252.254 309.600,254.010 309.600 C 254.265 309.600,254.931 309.960,255.491 310.400 C 256.050 310.840,256.763 311.200,257.076 311.200 C 257.388 311.200,258.399 311.542,259.322 311.961 C 272.215 317.805,293.729 308.936,295.253 297.147 C 295.507 295.180,295.651 295.200,280.950 295.200 C 272.200 295.200,266.864 295.048,266.374 294.786 C 265.175 294.145,265.175 276.655,266.374 276.014 C 267.691 275.309,314.449 275.455,315.424 276.167 C 316.646 277.060,316.844 294.961,315.672 298.564 C 315.236 299.904,314.761 301.540,314.616 302.200 C 313.818 305.841,309.277 313.975,305.802 317.988 C 303.854 320.237,300.264 323.600,299.811 323.600 C 299.659 323.600,298.784 324.203,297.867 324.939 C 296.374 326.139,293.159 327.955,290.400 329.158 C 289.850 329.398,289.130 329.759,288.800 329.961 C 285.906 331.730,272.743 333.918,267.708 333.466 C 259.724 332.749,254.715 331.629,250.174 329.546 C 249.279 329.136,248.257 328.800,247.902 328.800 C 247.547 328.800,247.019 328.574,246.729 328.297 C 246.438 328.021,245.117 327.234,243.794 326.550 C 236.298 322.671,226.839 313.200,223.672 306.400 C 223.415 305.850,223.041 305.130,222.840 304.800 C 222.010 303.436,220.400 299.239,220.400 298.436 C 220.400 297.961,220.136 297.170,219.814 296.678 C 219.492 296.186,219.039 294.078,218.806 291.992 C 218.574 289.906,218.202 287.177,217.979 285.927 C 217.676 284.221,217.721 282.676,218.161 279.727 C 218.483 277.567,218.859 274.827,218.995 273.637 C 219.132 272.448,219.504 270.972,219.822 270.357 C 220.140 269.743,220.400 268.938,220.400 268.570 C 220.400 267.929,221.997 263.878,222.911 262.200 C 223.151 261.760,223.619 260.862,223.951 260.204 C 224.516 259.084,226.003 256.700,226.698 255.800 C 226.867 255.580,227.346 254.872,227.761 254.226 C 231.330 248.673,244.516 238.000,247.807 238.000 C 248.079 238.000,248.522 237.735,248.791 237.411 C 249.060 237.086,249.937 236.702,250.740 236.557 C 251.543 236.412,252.740 236.017,253.400 235.679 C 254.060 235.341,255.950 234.840,257.600 234.565 C 259.250 234.291,261.230 233.890,262.000 233.674 C 263.914 233.138,274.278 233.101,276.003 233.624 " stroke="none" fill="#040404" fill-rule="evenodd"></path></g></svg>