<svg id="svg" version="1.1" xmlns="http://www.w3.org/2000/svg" xmlns:xlink="http://www.w3.org/1999/xlink" width="400" height="409.04761904761904" viewBox="0, 0, 400,409.04761904761904"><g id="svgg"><path id="path0" d="M0.000 204.400 L 0.000 408.800 200.000 408.800 L 400.000 408.800 400.000 204.400 L 400.000 0.000 200.000 0.000 L 0.000 0.000 0.000 204.400 M318.400 6.421 C 357.722 9.992,389.677 38.480,397.346 76.800 C 399.057 85.350,399.000 80.946,399.000 205.000 L 399.000 323.400 398.090 328.600 C 390.948 369.404,358.981 399.229,318.590 402.772 C 312.062 403.344,88.767 403.363,82.600 402.792 C 41.829 399.013,10.635 370.359,2.919 329.600 C 1.963 324.549,1.783 86.151,2.732 80.800 C 10.113 39.145,42.292 9.492,83.600 6.280 C 88.472 5.901,314.169 6.036,318.400 6.421 M168.200 54.457 C 130.181 54.845,120.713 55.766,106.600 60.451 C 73.332 71.493,54.597 97.316,51.207 136.800 C 49.926 151.716,49.603 247.458,50.771 266.000 C 54.115 319.103,80.312 347.924,130.000 353.166 C 142.637 354.499,250.397 354.885,265.400 353.651 C 316.080 349.482,344.625 322.338,349.162 274.000 C 350.905 255.424,350.927 153.551,349.191 135.000 C 344.821 88.293,317.028 60.366,270.200 55.629 C 258.677 54.463,215.856 53.971,168.200 54.457 M246.400 81.602 C 266.639 82.212,273.085 82.787,280.529 84.647 C 304.717 90.690,318.281 106.800,321.762 133.616 C 324.149 152.010,324.149 256.790,321.762 275.184 C 317.883 305.064,301.206 322.015,272.000 325.761 C 252.999 328.199,147.278 328.196,128.400 325.757 C 98.871 321.943,82.524 304.976,78.610 274.076 C 76.443 256.978,76.455 151.733,78.625 134.600 C 82.579 103.379,99.712 86.118,130.000 82.841 C 143.304 81.402,214.589 80.643,246.400 81.602 M275.642 107.033 C 258.343 111.685,257.944 136.303,275.082 141.596 C 285.146 144.705,295.768 138.422,297.887 128.108 C 300.593 114.931,288.583 103.553,275.642 107.033 M196.000 127.471 C 144.555 131.221,111.213 180.116,127.000 228.658 C 145.235 284.731,218.707 299.790,258.003 255.509 C 300.012 208.173,269.520 132.575,206.420 127.622 C 201.209 127.213,199.814 127.193,196.000 127.471 M211.400 155.549 C 250.122 165.312,263.479 211.670,235.631 239.651 C 198.662 276.798,136.800 238.892,152.627 188.791 C 160.199 164.822,187.325 149.479,211.400 155.549 " stroke="none" fill="#f8f8f8" fill-rule="evenodd"></path><path id="path1" d="M83.600 6.280 C 42.292 9.492,10.113 39.145,2.732 80.800 C 1.783 86.151,1.963 324.549,2.919 329.600 C 10.635 370.359,41.829 399.013,82.600 402.792 C 88.767 403.363,312.062 403.344,318.590 402.772 C 358.981 399.229,390.948 369.404,398.090 328.600 L 399.000 323.400 399.000 205.000 C 399.000 80.946,399.057 85.350,397.346 76.800 C 389.677 38.480,357.722 9.992,318.400 6.421 C 314.169 6.036,88.472 5.901,83.600 6.280 M254.400 54.810 C 271.185 55.399,280.881 56.594,289.987 59.196 C 324.857 69.163,345.505 95.600,349.191 135.000 C 350.927 153.551,350.905 255.424,349.162 274.000 C 344.625 322.338,316.080 349.482,265.400 353.651 C 250.397 354.885,142.637 354.499,130.000 353.166 C 85.073 348.426,57.431 322.216,51.995 279.200 C 49.724 261.228,49.166 160.562,51.207 136.800 C 55.532 86.419,84.540 58.566,136.230 55.160 C 150.713 54.206,230.424 53.970,254.400 54.810 M157.600 81.471 C 128.404 82.102,117.495 83.863,106.090 89.785 C 90.275 97.995,81.434 112.421,78.625 134.600 C 76.455 151.733,76.443 256.978,78.610 274.076 C 82.524 304.976,98.871 321.943,128.400 325.757 C 147.278 328.196,252.999 328.199,272.000 325.761 C 301.206 322.015,317.883 305.064,321.762 275.184 C 324.149 256.790,324.149 152.010,321.762 133.616 C 317.588 101.462,299.282 84.890,265.200 82.415 C 251.292 81.405,186.794 80.839,157.600 81.471 M284.045 106.806 C 298.194 109.469,303.182 128.030,292.363 137.758 C 284.895 144.472,272.592 143.646,266.463 136.019 C 255.758 122.697,267.228 103.640,284.045 106.806 M206.420 127.622 C 269.520 132.575,300.012 208.173,258.003 255.509 C 210.974 308.503,123.420 275.253,123.420 204.400 C 123.420 162.822,153.876 130.541,196.000 127.471 C 199.814 127.193,201.209 127.213,206.420 127.622 M192.000 154.967 C 145.185 163.356,134.738 225.071,176.200 248.303 C 210.156 267.330,252.576 240.510,250.242 201.489 C 248.479 172.005,220.708 149.822,192.000 154.967 " stroke="none" fill="#040404" fill-rule="evenodd"></path></g></svg>