<svg id="svg" version="1.1" xmlns="http://www.w3.org/2000/svg" xmlns:xlink="http://www.w3.org/1999/xlink" width="400" height="400" viewBox="0, 0, 400,400"><g id="svgg"><path id="path0" d="M80.791 60.425 C 25.583 64.398,6.462 79.807,1.631 124.220 C -0.744 146.050,0.506 265.423,3.235 277.358 C 11.142 311.948,28.402 328.877,64.000 336.959 C 80.916 340.799,264.310 342.901,309.507 339.773 C 388.408 334.312,399.991 315.728,399.955 194.667 C 399.922 89.081,392.750 72.743,342.079 62.832 C 326.054 59.698,117.579 57.777,80.791 60.425 M214.416 164.527 C 281.433 199.070,281.505 197.438,211.351 233.535 C 151.264 264.453,153.778 265.995,153.778 198.225 C 153.778 130.091,150.810 131.741,214.416 164.527 " stroke="none" fill="#000000" fill-rule="evenodd"></path></g></svg>